<svg width="34" height="34" viewBox="0 0 34 34" fill="none" xmlns="http://www.w3.org/2000/svg">
<mask id="path-1-inside-1_1_91" fill="white">
<path d="M0 4C0 1.79086 1.79086 0 4 0H30C32.2091 0 34 1.79086 34 4V30C34 32.2091 32.2091 34 30 34H4C1.79086 34 0 32.2091 0 30V4Z"/>
</mask>
<path d="M0 4C0 1.79086 1.79086 0 4 0H30C32.2091 0 34 1.79086 34 4V30C34 32.2091 32.2091 34 30 34H4C1.79086 34 0 32.2091 0 30V4Z" fill="#FFA800" fill-opacity="0.1"/>
<path d="M4 0V1H30V0V-1H4V0ZM34 4H33V30H34H35V4H34ZM30 34V33H4V34V35H30V34ZM0 30H1V4H0H-1V30H0ZM4 34V33C2.34315 33 1 31.6569 1 30H0H-1C-1 32.7614 1.23858 35 4 35V34ZM34 30H33C33 31.6569 31.6569 33 30 33V34V35C32.7614 35 35 32.7614 35 30H34ZM30 0V1C31.6569 1 33 2.34315 33 4H34H35C35 1.23858 32.7614 -1 30 -1V0ZM4 0V-1C1.23858 -1 -1 1.23858 -1 4H0H1C1 2.34315 2.34315 1 4 1V0Z" fill="#FFA800" fill-opacity="0.28" mask="url(#path-1-inside-1_1_91)"/>
<path opacity="0.9" d="M15.9773 10.1818H10.5227C10.3345 10.1818 10.1818 10.3344 10.1818 10.5227V15.9772C10.1818 16.1655 10.3345 16.3181 10.5227 16.3181H15.9773C16.1656 16.3181 16.3182 16.1655 16.3182 15.9772V10.5227C16.3182 10.3344 16.1656 10.1818 15.9773 10.1818Z" fill="#FFA800"/>
<path opacity="0.65" d="M23.4773 10.1818H18.0227C17.8344 10.1818 17.6818 10.3344 17.6818 10.5227V15.9772C17.6818 16.1655 17.8344 16.3181 18.0227 16.3181H23.4773C23.6655 16.3181 23.8182 16.1655 23.8182 15.9772V10.5227C23.8182 10.3344 23.6655 10.1818 23.4773 10.1818Z" fill="#FFA800"/>
<path opacity="0.65" d="M15.9773 17.6818H10.5227C10.3345 17.6818 10.1818 17.8344 10.1818 18.0227V23.4772C10.1818 23.6655 10.3345 23.8181 10.5227 23.8181H15.9773C16.1656 23.8181 16.3182 23.6655 16.3182 23.4772V18.0227C16.3182 17.8344 16.1656 17.6818 15.9773 17.6818Z" fill="#FFA800"/>
<path opacity="0.45" d="M23.4773 17.6818H18.0227C17.8344 17.6818 17.6818 17.8344 17.6818 18.0227V23.4772C17.6818 23.6655 17.8344 23.8181 18.0227 23.8181H23.4773C23.6655 23.8181 23.8182 23.6655 23.8182 23.4772V18.0227C23.8182 17.8344 23.6655 17.6818 23.4773 17.6818Z" fill="#FFA800"/>
</svg>
