<svg width="83" height="8" viewBox="0 0 83 8" fill="none" xmlns="http://www.w3.org/2000/svg">
<path d="M1.2768 7.20166H0.201601C0.0672009 7.20166 0.0224009 7.12326 0.0672009 6.96646L1.8368 0.23526C1.88907 0.0784601 2.00107 6.02041e-05 2.1728 6.02041e-05H3.6624C3.84907 6.02041e-05 3.96107 0.0784601 3.9984 0.23526L5.768 6.96646C5.8128 7.12326 5.768 7.20166 5.6336 7.20166H4.5584C4.47627 7.20166 4.42027 7.18673 4.3904 7.15686C4.36053 7.11953 4.33813 7.05606 4.3232 6.96646L4.0096 5.73446H1.8256L1.512 6.96646C1.49707 7.05606 1.47093 7.11953 1.4336 7.15686C1.40373 7.18673 1.35147 7.20166 1.2768 7.20166ZM2.9008 1.35526L2.0944 4.59206H3.752L2.9456 1.35526H2.9008ZM10.412 7.20166H9.45998C9.30318 7.20166 9.22478 7.12326 9.22478 6.96646V0.23526C9.22478 0.0784601 9.30318 6.02041e-05 9.45998 6.02041e-05H12.1928C12.7752 6.02041e-05 13.2269 0.160593 13.548 0.48166C13.869 0.79526 14.0296 1.24326 14.0296 1.82566V2.90086C14.0296 3.48326 13.869 3.93499 13.548 4.25606C13.2269 4.56966 12.7752 4.72646 12.1928 4.72646H10.7816C10.692 4.72646 10.6472 4.76753 10.6472 4.84966V6.96646C10.6472 7.12326 10.5688 7.20166 10.412 7.20166ZM10.7704 3.48326H11.9576C12.1965 3.48326 12.3645 3.43473 12.4616 3.33766C12.5586 3.23313 12.6072 3.06513 12.6072 2.83366V1.89286C12.6072 1.65393 12.5586 1.48593 12.4616 1.38886C12.3645 1.28433 12.1965 1.23206 11.9576 1.23206H10.7704C10.6882 1.23206 10.6472 1.27313 10.6472 1.35526V3.36006C10.6472 3.44219 10.6882 3.48326 10.7704 3.48326ZM18.815 7.20166H17.863C17.7062 7.20166 17.6278 7.12326 17.6278 6.96646V0.23526C17.6278 0.0784601 17.7062 6.02041e-05 17.863 6.02041e-05H20.5958C21.1782 6.02041e-05 21.63 0.160593 21.951 0.48166C22.2721 0.79526 22.4326 1.24326 22.4326 1.82566V2.90086C22.4326 3.48326 22.2721 3.93499 21.951 4.25606C21.63 4.56966 21.1782 4.72646 20.5958 4.72646H19.1846C19.095 4.72646 19.0502 4.76753 19.0502 4.84966V6.96646C19.0502 7.12326 18.9718 7.20166 18.815 7.20166ZM19.1734 3.48326H20.3606C20.5996 3.48326 20.7676 3.43473 20.8646 3.33766C20.9617 3.23313 21.0102 3.06513 21.0102 2.83366V1.89286C21.0102 1.65393 20.9617 1.48593 20.8646 1.38886C20.7676 1.28433 20.5996 1.23206 20.3606 1.23206H19.1734C19.0913 1.23206 19.0502 1.27313 19.0502 1.35526V3.36006C19.0502 3.44219 19.0913 3.48326 19.1734 3.48326ZM29.9509 7.20166H26.2661C26.1093 7.20166 26.0309 7.12326 26.0309 6.96646V0.23526C26.0309 0.0784601 26.1093 6.02041e-05 26.2661 6.02041e-05H27.2181C27.3749 6.02041e-05 27.4533 0.0784601 27.4533 0.23526V5.83526C27.4533 5.91739 27.4981 5.95846 27.5877 5.95846H29.9509C30.1002 5.95846 30.1749 6.04059 30.1749 6.20486V6.96646C30.1749 7.12326 30.1002 7.20166 29.9509 7.20166ZM35.0045 0.23526V6.96646C35.0045 7.12326 34.9261 7.20166 34.7693 7.20166H33.8173C33.6605 7.20166 33.5821 7.12326 33.5821 6.96646V0.23526C33.5821 0.0784601 33.6605 6.02041e-05 33.8173 6.02041e-05H34.7693C34.9261 6.02041e-05 35.0045 0.0784601 35.0045 0.23526ZM41.9329 7.20166H40.7121C40.1222 7.20166 39.6668 7.04486 39.3457 6.73126C39.0246 6.41766 38.8641 5.96593 38.8641 5.37606V1.82566C38.8641 1.23579 39.0246 0.78406 39.3457 0.47046C39.6668 0.15686 40.1222 6.02041e-05 40.7121 6.02041e-05H41.9329C42.5153 6.02041e-05 42.967 0.160593 43.2881 0.48166C43.6166 0.79526 43.7809 1.24326 43.7809 1.82566V2.35206C43.7809 2.51633 43.6988 2.59846 43.5345 2.59846H42.5937C42.4369 2.59846 42.3585 2.51633 42.3585 2.35206V1.89286C42.3585 1.65393 42.3062 1.48593 42.2017 1.38886C42.1046 1.28433 41.9366 1.23206 41.6977 1.23206H40.9361C40.7046 1.23206 40.5366 1.28433 40.4321 1.38886C40.335 1.48593 40.2865 1.65393 40.2865 1.89286V5.30886C40.2865 5.54779 40.335 5.71953 40.4321 5.82406C40.5366 5.92113 40.7046 5.96966 40.9361 5.96966H41.6977C41.9366 5.96966 42.1046 5.92113 42.2017 5.82406C42.3062 5.71953 42.3585 5.54779 42.3585 5.30886V4.84966C42.3585 4.68539 42.4369 4.60326 42.5937 4.60326H43.5345C43.6988 4.60326 43.7809 4.68539 43.7809 4.84966V5.37606C43.7809 5.95846 43.6166 6.41019 43.2881 6.73126C42.967 7.04486 42.5153 7.20166 41.9329 7.20166ZM48.2171 7.20166H47.1419C47.0075 7.20166 46.9627 7.12326 47.0075 6.96646L48.7771 0.23526C48.8293 0.0784601 48.9413 6.02041e-05 49.1131 6.02041e-05H50.6027C50.7893 6.02041e-05 50.9013 0.0784601 50.9387 0.23526L52.7083 6.96646C52.7531 7.12326 52.7083 7.20166 52.5739 7.20166H51.4987C51.4165 7.20166 51.3605 7.18673 51.3307 7.15686C51.3008 7.11953 51.2784 7.05606 51.2635 6.96646L50.9499 5.73446H48.7659L48.4523 6.96646C48.4373 7.05606 48.4112 7.11953 48.3739 7.15686C48.344 7.18673 48.2917 7.20166 48.2171 7.20166ZM49.8411 1.35526L49.0347 4.59206H50.6923L49.8859 1.35526H49.8411ZM58.3938 7.20166H57.453C57.2888 7.20166 57.2066 7.12326 57.2066 6.96646V1.35526C57.2066 1.27313 57.1656 1.23206 57.0834 1.23206H55.8066C55.6498 1.23206 55.5714 1.15366 55.5714 0.99686V0.23526C55.5714 0.0784601 55.6498 6.02041e-05 55.8066 6.02041e-05H60.0402C60.197 6.02041e-05 60.2754 0.0784601 60.2754 0.23526V0.99686C60.2754 1.15366 60.197 1.23206 60.0402 1.23206H58.7634C58.6738 1.23206 58.629 1.27313 58.629 1.35526V6.96646C58.629 7.12326 58.5506 7.20166 58.3938 7.20166ZM65.073 0.23526V6.96646C65.073 7.12326 64.9946 7.20166 64.8378 7.20166H63.8858C63.729 7.20166 63.6506 7.12326 63.6506 6.96646V0.23526C63.6506 0.0784601 63.729 6.02041e-05 63.8858 6.02041e-05H64.8378C64.9946 6.02041e-05 65.073 0.0784601 65.073 0.23526ZM71.0046 5.96966H71.7998C72.0387 5.96966 72.2067 5.92113 72.3038 5.82406C72.4083 5.71953 72.4606 5.54779 72.4606 5.30886V1.89286C72.4606 1.65393 72.4083 1.48593 72.3038 1.38886C72.2067 1.28433 72.0387 1.23206 71.7998 1.23206H71.0046C70.7657 1.23206 70.5977 1.28433 70.5006 1.38886C70.4035 1.48593 70.355 1.65393 70.355 1.89286V5.30886C70.355 5.54779 70.4035 5.71953 70.5006 5.82406C70.5977 5.92113 70.7657 5.96966 71.0046 5.96966ZM72.035 7.20166H70.7806C70.1907 7.20166 69.7353 7.04486 69.4142 6.73126C69.0931 6.41766 68.9326 5.96593 68.9326 5.37606V1.82566C68.9326 1.23579 69.0931 0.78406 69.4142 0.47046C69.7353 0.15686 70.1907 6.02041e-05 70.7806 6.02041e-05H72.035C72.6249 6.02041e-05 73.0803 0.15686 73.4014 0.47046C73.7225 0.78406 73.883 1.23579 73.883 1.82566V5.37606C73.883 5.96593 73.7225 6.41766 73.4014 6.73126C73.0803 7.04486 72.6249 7.20166 72.035 7.20166ZM78.8531 7.20166H77.9235C77.7667 7.20166 77.6883 7.12326 77.6883 6.96646V0.23526C77.6883 0.0784601 77.7667 6.02041e-05 77.9235 6.02041e-05H78.7635C78.9203 6.02041e-05 79.0248 0.0523269 79.0771 0.15686L81.3395 4.40166H81.3843V0.23526C81.3843 0.0784601 81.4627 6.02041e-05 81.6195 6.02041e-05H82.5491C82.7059 6.02041e-05 82.7843 0.0784601 82.7843 0.23526V6.96646C82.7843 7.12326 82.7059 7.20166 82.5491 7.20166H81.7315C81.5672 7.20166 81.4477 7.12699 81.3731 6.97766L79.1331 2.81126H79.0883V6.96646C79.0883 7.12326 79.0099 7.20166 78.8531 7.20166Z" fill="white"/>
</svg>
