<svg width="266" height="76" viewBox="0 0 266 76" fill="none" xmlns="http://www.w3.org/2000/svg">
<g filter="url(#filter0_di_1_80)">
<mask id="path-1-inside-1_1_80" fill="white">
<path d="M14 16C14 14.8954 14.8954 14 16 14H250C251.105 14 252 14.8954 252 16V60C252 61.1046 251.105 62 250 62H16C14.8954 62 14 61.1046 14 60V16Z"/>
</mask>
<path d="M14 16C14 14.8954 14.8954 14 16 14H250C251.105 14 252 14.8954 252 16V60C252 61.1046 251.105 62 250 62H16C14.8954 62 14 61.1046 14 60V16Z" fill="white" fill-opacity="0.01" shape-rendering="crispEdges"/>
<path d="M16 14V15H250V14V13H16V14ZM252 16H251V60H252H253V16H252ZM250 62V61H16V62V63H250V62ZM14 60H15V16H14H13V60H14ZM16 62V61C15.4477 61 15 60.5523 15 60H14H13C13 61.6569 14.3431 63 16 63V62ZM252 60H251C251 60.5523 250.552 61 250 61V62V63C251.657 63 253 61.6569 253 60H252ZM250 14V15C250.552 15 251 15.4477 251 16H252H253C253 14.3431 251.657 13 250 13V14ZM16 14V13C14.3431 13 13 14.3431 13 16H14H15C15 15.4477 15.4477 15 16 15V14Z" fill="#00D2E8" fill-opacity="0.38" mask="url(#path-1-inside-1_1_80)"/>
<g clip-path="url(#clip0_1_80)">
<path d="M61.6982 33.2312C60.7257 32.7849 59.6994 32.4666 58.6451 32.2844C58.6354 32.2825 58.6255 32.2837 58.6166 32.2879C58.6077 32.292 58.6004 32.2989 58.5957 32.3075C58.4644 32.5419 58.3182 32.8475 58.2157 33.0887C57.0791 32.9161 55.9229 32.9161 54.7863 33.0887C54.6722 32.8214 54.5435 32.5606 54.4007 32.3075C54.3958 32.2991 54.3884 32.2924 54.3796 32.2883C54.3708 32.2841 54.3609 32.2828 54.3513 32.2844C53.2968 32.4662 52.2705 32.7845 51.2982 33.2312C51.2899 33.2347 51.283 33.2406 51.2782 33.2481C49.3332 36.1537 48.8001 38.9875 49.0619 41.7856C49.0626 41.7926 49.0646 41.7993 49.0679 41.8054C49.0713 41.8115 49.0758 41.8169 49.0813 41.8212C50.2136 42.6601 51.4801 43.3005 52.8269 43.715C52.8364 43.7177 52.8465 43.7175 52.8559 43.7144C52.8653 43.7113 52.8735 43.7054 52.8794 43.6975C53.1682 43.3037 53.4257 42.8881 53.6457 42.4512C53.6488 42.4453 53.6505 42.4387 53.6509 42.432C53.6512 42.4253 53.6502 42.4186 53.6478 42.4124C53.6453 42.4061 53.6416 42.4004 53.6368 42.3957C53.6321 42.391 53.6263 42.3873 53.6201 42.385C53.2159 42.2303 52.8247 42.0439 52.4501 41.8275C52.4432 41.8235 52.4374 41.8179 52.4332 41.8112C52.4291 41.8044 52.4266 41.7967 52.4261 41.7888C52.4256 41.7809 52.4271 41.773 52.4304 41.7658C52.4337 41.7586 52.4387 41.7523 52.4451 41.7475C52.524 41.6885 52.6015 41.6276 52.6776 41.565C52.6842 41.5596 52.6922 41.5561 52.7007 41.555C52.7092 41.5539 52.7179 41.5552 52.7257 41.5587C55.1807 42.6794 57.8382 42.6794 60.2644 41.5587C60.2723 41.5551 60.2811 41.5537 60.2897 41.5548C60.2983 41.556 60.3065 41.5595 60.3132 41.565C60.3882 41.6262 60.4669 41.6887 60.5463 41.7475C60.5526 41.7522 60.5576 41.7584 60.5609 41.7655C60.5642 41.7726 60.5657 41.7803 60.5654 41.7882C60.565 41.796 60.5627 41.8036 60.5588 41.8103C60.5548 41.8171 60.5492 41.8228 60.5426 41.8269C60.1687 42.0453 59.7771 42.2318 59.3719 42.3844C59.3656 42.3868 59.3599 42.3905 59.3551 42.3953C59.3503 42.4 59.3466 42.4058 59.3442 42.4121C59.3418 42.4184 59.3407 42.4251 59.3411 42.4319C59.3414 42.4386 59.3432 42.4452 59.3463 42.4512C59.5713 42.8875 59.8288 43.3025 60.1119 43.6969C60.1178 43.7049 60.126 43.7109 60.1354 43.714C60.1448 43.7172 60.1549 43.7173 60.1644 43.7144C61.5135 43.3011 62.7821 42.6607 63.9157 41.8206C63.9212 41.8167 63.9258 41.8117 63.9293 41.8059C63.9327 41.8001 63.9349 41.7936 63.9357 41.7869C64.2482 38.5512 63.4119 35.7406 61.7176 33.2494C61.7136 33.241 61.7067 33.2349 61.6982 33.2312Z" fill="#00D2E8"/>
</g>
<path d="M76.7501 42H75.6213C75.4354 42 75.3424 41.907 75.3424 41.7211V33.7398C75.3424 33.5539 75.4354 33.461 75.6213 33.461H78.782C79.4725 33.461 80.0126 33.6513 80.4021 34.032C80.7917 34.4127 80.9864 34.9483 80.9864 35.6389V36.6747C80.9864 37.6751 80.5925 38.3391 79.8045 38.6667V38.7198L81.2255 41.6813C81.3052 41.8938 81.2299 42 80.9997 42H79.924C79.7647 42 79.6496 41.9823 79.5788 41.9469C79.5079 41.9115 79.4504 41.8362 79.4061 41.7211L78.0781 38.8526H77.1884C77.0821 38.8526 77.029 38.9013 77.029 38.9987V41.7211C77.029 41.907 76.936 42 76.7501 42ZM77.1751 37.4981H78.4765C78.7598 37.4981 78.9679 37.4405 79.1007 37.3254C79.2335 37.2015 79.2999 37.0067 79.2999 36.7411V35.7053C79.2999 35.4308 79.2335 35.2316 79.1007 35.1077C78.9679 34.9837 78.7598 34.9218 78.4765 34.9218H77.1751C77.0777 34.9218 77.029 34.9705 77.029 35.0678V37.352C77.029 37.4494 77.0777 37.4981 77.1751 37.4981ZM89.2184 42H84.8758C84.6899 42 84.5969 41.907 84.5969 41.7211V33.7398C84.5969 33.5539 84.6899 33.461 84.8758 33.461H89.2184C89.3954 33.461 89.484 33.5539 89.484 33.7398V34.6429C89.484 34.8288 89.3954 34.9218 89.2184 34.9218H86.4429C86.3366 34.9218 86.2835 34.9705 86.2835 35.0678V36.7942C86.2835 36.8916 86.3366 36.9403 86.4429 36.9403H88.7137C88.8997 36.9403 88.9926 37.0333 88.9926 37.2192V38.1222C88.9926 38.3082 88.8997 38.4011 88.7137 38.4011H86.4429C86.3366 38.4011 86.2835 38.4498 86.2835 38.5472V40.3931C86.2835 40.4905 86.3366 40.5392 86.4429 40.5392H89.2184C89.3954 40.5392 89.484 40.6322 89.484 40.8181V41.7211C89.484 41.907 89.3954 42 89.2184 42ZM96.8081 33.461H97.9236C98.1095 33.461 98.2025 33.5495 98.2025 33.7266V39.8354C98.2025 40.5259 98.0122 41.0615 97.6315 41.4422C97.2508 41.8141 96.7151 42 96.0246 42H94.6966C93.9972 42 93.4571 41.8141 93.0764 41.4422C92.6957 41.0704 92.5054 40.5348 92.5054 39.8354V38.587C92.5054 38.4011 92.5983 38.3082 92.7843 38.3082H93.9131C94.099 38.3082 94.1919 38.4011 94.1919 38.587V39.7557C94.1919 40.039 94.2495 40.2426 94.3646 40.3666C94.4885 40.4817 94.6877 40.5392 94.9622 40.5392H95.7457C96.029 40.5392 96.2282 40.4817 96.3433 40.3666C96.4584 40.2426 96.5159 40.039 96.5159 39.7557V33.7398C96.5159 33.5539 96.6133 33.461 96.8081 33.461ZM104.185 40.5392H105.128C105.411 40.5392 105.61 40.4817 105.725 40.3666C105.849 40.2426 105.911 40.039 105.911 39.7557V35.7053C105.911 35.422 105.849 35.2228 105.725 35.1077C105.61 34.9837 105.411 34.9218 105.128 34.9218H104.185C103.902 34.9218 103.702 34.9837 103.587 35.1077C103.472 35.2228 103.415 35.422 103.415 35.7053V39.7557C103.415 40.039 103.472 40.2426 103.587 40.3666C103.702 40.4817 103.902 40.5392 104.185 40.5392ZM105.407 42H103.919C103.22 42 102.68 41.8141 102.299 41.4422C101.918 41.0704 101.728 40.5348 101.728 39.8354V35.6256C101.728 34.9262 101.918 34.3906 102.299 34.0187C102.68 33.6469 103.22 33.461 103.919 33.461H105.407C106.106 33.461 106.646 33.6469 107.027 34.0187C107.408 34.3906 107.598 34.9262 107.598 35.6256V39.8354C107.598 40.5348 107.408 41.0704 107.027 41.4422C106.646 41.8141 106.106 42 105.407 42ZM112.933 33.7398V41.7211C112.933 41.907 112.84 42 112.654 42H111.526C111.34 42 111.247 41.907 111.247 41.7211V33.7398C111.247 33.5539 111.34 33.461 111.526 33.461H112.654C112.84 33.461 112.933 33.5539 112.933 33.7398ZM118.094 42H116.992C116.806 42 116.713 41.907 116.713 41.7211V33.7398C116.713 33.5539 116.806 33.461 116.992 33.461H117.988C118.174 33.461 118.297 33.5229 118.359 33.6469L121.042 38.68H121.095V33.7398C121.095 33.5539 121.188 33.461 121.374 33.461H122.476C122.662 33.461 122.755 33.5539 122.755 33.7398V41.7211C122.755 41.907 122.662 42 122.476 42H121.507C121.312 42 121.17 41.9115 121.082 41.7344L118.426 36.7942H118.373V41.7211C118.373 41.907 118.28 42 118.094 42ZM128.306 40.5392H129.753C130.036 40.5392 130.236 40.4817 130.351 40.3666C130.475 40.2426 130.537 40.039 130.537 39.7557V35.7053C130.537 35.422 130.475 35.2228 130.351 35.1077C130.236 34.9837 130.036 34.9218 129.753 34.9218H128.306C128.208 34.9218 128.16 34.9705 128.16 35.0678V40.3931C128.16 40.4905 128.208 40.5392 128.306 40.5392ZM126.473 41.7211V33.7398C126.473 33.5539 126.566 33.461 126.752 33.461H130.032C130.723 33.461 131.258 33.6513 131.639 34.032C132.028 34.4038 132.223 34.935 132.223 35.6256V39.8354C132.223 40.5259 132.028 41.0615 131.639 41.4422C131.258 41.8141 130.723 42 130.032 42H126.752C126.566 42 126.473 41.907 126.473 41.7211ZM137.213 42H136.084C135.898 42 135.805 41.907 135.805 41.7211V33.7398C135.805 33.5539 135.898 33.461 136.084 33.461H139.245C139.935 33.461 140.475 33.6513 140.865 34.032C141.255 34.4127 141.449 34.9483 141.449 35.6389V36.6747C141.449 37.6751 141.055 38.3391 140.267 38.6667V38.7198L141.688 41.6813C141.768 41.8938 141.693 42 141.463 42H140.387C140.228 42 140.112 41.9823 140.042 41.9469C139.971 41.9115 139.913 41.8362 139.869 41.7211L138.541 38.8526H137.651C137.545 38.8526 137.492 38.9013 137.492 38.9987V41.7211C137.492 41.907 137.399 42 137.213 42ZM137.638 37.4981H138.939C139.223 37.4981 139.431 37.4405 139.564 37.3254C139.696 37.2015 139.763 37.0067 139.763 36.7411V35.7053C139.763 35.4308 139.696 35.2316 139.564 35.1077C139.431 34.9837 139.223 34.9218 138.939 34.9218H137.638C137.541 34.9218 137.492 34.9705 137.492 35.0678V37.352C137.492 37.4494 137.541 37.4981 137.638 37.4981ZM149.681 42H145.339C145.153 42 145.06 41.907 145.06 41.7211V33.7398C145.06 33.5539 145.153 33.461 145.339 33.461H149.681C149.858 33.461 149.947 33.5539 149.947 33.7398V34.6429C149.947 34.8288 149.858 34.9218 149.681 34.9218H146.906C146.8 34.9218 146.746 34.9705 146.746 35.0678V36.7942C146.746 36.8916 146.8 36.9403 146.906 36.9403H149.177C149.363 36.9403 149.456 37.0333 149.456 37.2192V38.1222C149.456 38.3082 149.363 38.4011 149.177 38.4011H146.906C146.8 38.4011 146.746 38.4498 146.746 38.5472V40.3931C146.746 40.4905 146.8 40.5392 146.906 40.5392H149.681C149.858 40.5392 149.947 40.6322 149.947 40.8181V41.7211C149.947 41.907 149.858 42 149.681 42ZM160.149 40.5392H161.597C161.88 40.5392 162.079 40.4817 162.194 40.3666C162.318 40.2426 162.38 40.039 162.38 39.7557V35.7053C162.38 35.422 162.318 35.2228 162.194 35.1077C162.079 34.9837 161.88 34.9218 161.597 34.9218H160.149C160.052 34.9218 160.003 34.9705 160.003 35.0678V40.3931C160.003 40.4905 160.052 40.5392 160.149 40.5392ZM158.316 41.7211V33.7398C158.316 33.5539 158.409 33.461 158.595 33.461H161.876C162.566 33.461 163.102 33.6513 163.482 34.032C163.872 34.4038 164.067 34.935 164.067 35.6256V39.8354C164.067 40.5259 163.872 41.0615 163.482 41.4422C163.102 41.8141 162.566 42 161.876 42H158.595C158.409 42 158.316 41.907 158.316 41.7211ZM169.402 33.7398V41.7211C169.402 41.907 169.309 42 169.123 42H167.994C167.808 42 167.715 41.907 167.715 41.7211V33.7398C167.715 33.5539 167.808 33.461 167.994 33.461H169.123C169.309 33.461 169.402 33.5539 169.402 33.7398ZM172.969 39.8221V39.5565C172.969 39.3706 173.062 39.2776 173.248 39.2776H174.376C174.562 39.2776 174.655 39.3706 174.655 39.5565V39.6627C174.655 39.9991 174.722 40.2293 174.855 40.3533C174.987 40.4772 175.231 40.5392 175.585 40.5392H176.209C176.554 40.5392 176.793 40.4728 176.926 40.34C177.068 40.2072 177.139 39.9593 177.139 39.5963V39.437C177.139 39.1802 177.032 38.9854 176.82 38.8526C176.616 38.711 176.36 38.6269 176.05 38.6003C175.74 38.5738 175.403 38.5251 175.04 38.4542C174.686 38.3746 174.354 38.2772 174.044 38.1621C173.735 38.0381 173.473 37.8035 173.261 37.4582C173.057 37.1041 172.956 36.6526 172.956 36.1037V35.6389C172.956 34.9483 173.15 34.4127 173.54 34.032C173.929 33.6513 174.469 33.461 175.16 33.461H176.488C177.187 33.461 177.732 33.6513 178.121 34.032C178.511 34.4127 178.706 34.9483 178.706 35.6389V35.8912C178.706 36.0771 178.613 36.1701 178.427 36.1701H177.298C177.112 36.1701 177.019 36.0771 177.019 35.8912V35.8115C177.019 35.4662 176.953 35.2316 176.82 35.1077C176.687 34.9837 176.444 34.9218 176.09 34.9218H175.572C175.209 34.9218 174.961 34.9926 174.828 35.1342C174.704 35.267 174.642 35.5326 174.642 35.931V36.1834C174.642 36.5995 175.005 36.8385 175.731 36.9005C176.484 36.9625 177.152 37.113 177.736 37.352C178.046 37.4848 178.303 37.7238 178.507 38.0691C178.719 38.4055 178.825 38.8394 178.825 39.3706V39.8221C178.825 40.5126 178.631 41.0483 178.241 41.429C177.851 41.8097 177.311 42 176.621 42H175.173C174.483 42 173.943 41.8097 173.553 41.429C173.164 41.0483 172.969 40.5126 172.969 39.8221ZM185.838 42H184.39C183.691 42 183.151 41.8141 182.77 41.4422C182.39 41.0704 182.199 40.5348 182.199 39.8354V35.6256C182.199 34.9262 182.39 34.3906 182.77 34.0187C183.151 33.6469 183.691 33.461 184.39 33.461H185.838C186.529 33.461 187.064 33.6513 187.445 34.032C187.834 34.4038 188.029 34.935 188.029 35.6256V36.2498C188.029 36.4445 187.932 36.5419 187.737 36.5419H186.621C186.436 36.5419 186.343 36.4445 186.343 36.2498V35.7053C186.343 35.422 186.281 35.2228 186.157 35.1077C186.042 34.9837 185.842 34.9218 185.559 34.9218H184.656C184.382 34.9218 184.182 34.9837 184.058 35.1077C183.943 35.2228 183.886 35.422 183.886 35.7053V39.7557C183.886 40.039 183.943 40.2426 184.058 40.3666C184.182 40.4817 184.382 40.5392 184.656 40.5392H185.559C185.842 40.5392 186.042 40.4817 186.157 40.3666C186.281 40.2426 186.343 40.039 186.343 39.7557V39.2112C186.343 39.0164 186.436 38.919 186.621 38.919H187.737C187.932 38.919 188.029 39.0164 188.029 39.2112V39.8354C188.029 40.5259 187.834 41.0615 187.445 41.4422C187.064 41.8141 186.529 42 185.838 42ZM193.794 40.5392H194.737C195.02 40.5392 195.219 40.4817 195.334 40.3666C195.458 40.2426 195.52 40.039 195.52 39.7557V35.7053C195.52 35.422 195.458 35.2228 195.334 35.1077C195.219 34.9837 195.02 34.9218 194.737 34.9218H193.794C193.51 34.9218 193.311 34.9837 193.196 35.1077C193.081 35.2228 193.024 35.422 193.024 35.7053V39.7557C193.024 40.039 193.081 40.2426 193.196 40.3666C193.311 40.4817 193.51 40.5392 193.794 40.5392ZM195.016 42H193.528C192.829 42 192.289 41.8141 191.908 41.4422C191.527 41.0704 191.337 40.5348 191.337 39.8354V35.6256C191.337 34.9262 191.527 34.3906 191.908 34.0187C192.289 33.6469 192.829 33.461 193.528 33.461H195.016C195.715 33.461 196.255 33.6469 196.636 34.0187C197.016 34.3906 197.207 34.9262 197.207 35.6256V39.8354C197.207 40.5348 197.016 41.0704 196.636 41.4422C196.255 41.8141 195.715 42 195.016 42ZM202.197 42H201.068C200.882 42 200.789 41.907 200.789 41.7211V33.7398C200.789 33.5539 200.882 33.461 201.068 33.461H204.229C204.919 33.461 205.459 33.6513 205.849 34.032C206.238 34.4127 206.433 34.9483 206.433 35.6389V36.6747C206.433 37.6751 206.039 38.3391 205.251 38.6667V38.7198L206.672 41.6813C206.752 41.8938 206.677 42 206.446 42H205.371C205.211 42 205.096 41.9823 205.025 41.9469C204.955 41.9115 204.897 41.8362 204.853 41.7211L203.525 38.8526H202.635C202.529 38.8526 202.476 38.9013 202.476 38.9987V41.7211C202.476 41.907 202.383 42 202.197 42ZM202.622 37.4981H203.923C204.207 37.4981 204.415 37.4405 204.547 37.3254C204.68 37.2015 204.747 37.0067 204.747 36.7411V35.7053C204.747 35.4308 204.68 35.2316 204.547 35.1077C204.415 34.9837 204.207 34.9218 203.923 34.9218H202.622C202.524 34.9218 202.476 34.9705 202.476 35.0678V37.352C202.476 37.4494 202.524 37.4981 202.622 37.4981ZM211.876 40.5392H213.324C213.607 40.5392 213.806 40.4817 213.921 40.3666C214.045 40.2426 214.107 40.039 214.107 39.7557V35.7053C214.107 35.422 214.045 35.2228 213.921 35.1077C213.806 34.9837 213.607 34.9218 213.324 34.9218H211.876C211.779 34.9218 211.73 34.9705 211.73 35.0678V40.3931C211.73 40.4905 211.779 40.5392 211.876 40.5392ZM210.044 41.7211V33.7398C210.044 33.5539 210.137 33.461 210.323 33.461H213.603C214.293 33.461 214.829 33.6513 215.21 34.032C215.599 34.4038 215.794 34.935 215.794 35.6256V39.8354C215.794 40.5259 215.599 41.0615 215.21 41.4422C214.829 41.8141 214.293 42 213.603 42H210.323C210.137 42 210.044 41.907 210.044 41.7211Z" fill="#00D2E8"/>
</g>
<defs>
<filter id="filter0_di_1_80" x="0" y="0" width="266" height="76" filterUnits="userSpaceOnUse" color-interpolation-filters="sRGB">
<feFlood flood-opacity="0" result="BackgroundImageFix"/>
<feColorMatrix in="SourceAlpha" type="matrix" values="0 0 0 0 0 0 0 0 0 0 0 0 0 0 0 0 0 0 127 0" result="hardAlpha"/>
<feOffset/>
<feGaussianBlur stdDeviation="7"/>
<feComposite in2="hardAlpha" operator="out"/>
<feColorMatrix type="matrix" values="0 0 0 0 0 0 0 0 0 0.823529 0 0 0 0 0.909804 0 0 0 0.08 0"/>
<feBlend mode="normal" in2="BackgroundImageFix" result="effect1_dropShadow_1_80"/>
<feBlend mode="normal" in="SourceGraphic" in2="effect1_dropShadow_1_80" result="shape"/>
<feColorMatrix in="SourceAlpha" type="matrix" values="0 0 0 0 0 0 0 0 0 0 0 0 0 0 0 0 0 0 127 0" result="hardAlpha"/>
<feOffset/>
<feGaussianBlur stdDeviation="6"/>
<feComposite in2="hardAlpha" operator="arithmetic" k2="-1" k3="1"/>
<feColorMatrix type="matrix" values="0 0 0 0 0 0 0 0 0 0.823529 0 0 0 0 0.909804 0 0 0 0.04 0"/>
<feBlend mode="normal" in2="shape" result="effect2_innerShadow_1_80"/>
</filter>
<clipPath id="clip0_1_80">
<rect width="15" height="15" fill="white" transform="translate(49 30.5)"/>
</clipPath>
</defs>
</svg>
