<svg width="303" height="104" viewBox="0 0 303 104" fill="none" xmlns="http://www.w3.org/2000/svg">
<g filter="url(#filter0_dd_1_76)">
<path d="M28 30C28 28.8954 28.8954 28 30 28H272.406C273.511 28 274.406 28.8954 274.406 30V73.9219C274.406 75.0264 273.511 75.9219 272.406 75.9219H30C28.8954 75.9219 28 75.0264 28 73.9219V30Z" fill="#FFA800"/>
<path d="M65.5 46.7109L73.6667 51.9609L65.5 57.2109V46.7109Z" fill="white" stroke="white" stroke-width="1.16667" stroke-linecap="round" stroke-linejoin="round"/>
<path d="M91.035 47.4219H92.1505C92.3364 47.4219 92.4294 47.5104 92.4294 47.6875V53.7963C92.4294 54.4869 92.239 55.0225 91.8583 55.4032C91.4776 55.775 90.942 55.9609 90.2515 55.9609H88.9235C88.224 55.9609 87.684 55.775 87.3033 55.4032C86.9226 55.0313 86.7323 54.4957 86.7323 53.7963V52.548C86.7323 52.3621 86.8252 52.2691 87.0111 52.2691H88.1399C88.3259 52.2691 88.4188 52.3621 88.4188 52.548V53.7166C88.4188 53.9999 88.4764 54.2036 88.5915 54.3275C88.7154 54.4426 88.9146 54.5001 89.1891 54.5001H89.9726C90.2559 54.5001 90.4551 54.4426 90.5702 54.3275C90.6853 54.2036 90.7428 53.9999 90.7428 53.7166V47.7008C90.7428 47.5149 90.8402 47.4219 91.035 47.4219ZM98.4118 54.5001H99.3547C99.638 54.5001 99.8372 54.4426 99.9523 54.3275C100.076 54.2036 100.138 53.9999 100.138 53.7166V49.6662C100.138 49.3829 100.076 49.1837 99.9523 49.0686C99.8372 48.9447 99.638 48.8827 99.3547 48.8827H98.4118C98.1285 48.8827 97.9293 48.9447 97.8142 49.0686C97.6991 49.1837 97.6416 49.3829 97.6416 49.6662V53.7166C97.6416 53.9999 97.6991 54.2036 97.8142 54.3275C97.9293 54.4426 98.1285 54.5001 98.4118 54.5001ZM99.6336 55.9609H98.1462C97.4468 55.9609 96.9067 55.775 96.526 55.4032C96.1454 55.0313 95.955 54.4957 95.955 53.7963V49.5865C95.955 48.8871 96.1454 48.3515 96.526 47.9797C96.9067 47.6078 97.4468 47.4219 98.1462 47.4219H99.6336C100.333 47.4219 100.873 47.6078 101.254 47.9797C101.634 48.3515 101.825 48.8871 101.825 49.5865V53.7963C101.825 54.4957 101.634 55.0313 101.254 55.4032C100.873 55.775 100.333 55.9609 99.6336 55.9609ZM109.776 47.4219H110.892C111.087 47.4219 111.184 47.5104 111.184 47.6875V53.7963C111.184 54.4869 110.989 55.0225 110.6 55.4032C110.219 55.775 109.683 55.9609 108.993 55.9609H107.532C106.833 55.9609 106.292 55.775 105.912 55.4032C105.531 55.0313 105.341 54.4957 105.341 53.7963V47.7008C105.341 47.5149 105.434 47.4219 105.62 47.4219H106.748C106.934 47.4219 107.027 47.5149 107.027 47.7008V53.7166C107.027 53.9999 107.085 54.2036 107.2 54.3275C107.324 54.4426 107.523 54.5001 107.798 54.5001H108.714C108.997 54.5001 109.196 54.4426 109.311 54.3275C109.435 54.2036 109.497 53.9999 109.497 53.7166V47.7008C109.497 47.5149 109.59 47.4219 109.776 47.4219ZM119.452 55.9609H115.109C114.923 55.9609 114.83 55.868 114.83 55.6821V47.7008C114.83 47.5149 114.923 47.4219 115.109 47.4219H119.452C119.629 47.4219 119.717 47.5149 119.717 47.7008V48.6038C119.717 48.7897 119.629 48.8827 119.452 48.8827H116.676C116.57 48.8827 116.517 48.9314 116.517 49.0288V50.7552C116.517 50.8526 116.57 50.9013 116.676 50.9013H118.947C119.133 50.9013 119.226 50.9942 119.226 51.1801V52.0832C119.226 52.2691 119.133 52.3621 118.947 52.3621H116.676C116.57 52.3621 116.517 52.4108 116.517 52.5081V54.3541C116.517 54.4514 116.57 54.5001 116.676 54.5001H119.452C119.629 54.5001 119.717 54.5931 119.717 54.779V55.6821C119.717 55.868 119.629 55.9609 119.452 55.9609ZM122.951 55.6821V54.8853C122.951 54.5931 123.009 54.3762 123.124 54.2345L126.643 49.0421V48.9889H123.469C123.283 48.9889 123.19 48.896 123.19 48.7101V47.7008C123.19 47.5149 123.283 47.4219 123.469 47.4219H128.183C128.361 47.4219 128.449 47.5149 128.449 47.7008V48.8429C128.449 49.1085 128.383 49.3386 128.25 49.5334L124.943 54.3408V54.3939H128.316C128.493 54.3939 128.582 54.478 128.582 54.6462V55.6555C128.582 55.8591 128.493 55.9609 128.316 55.9609H123.23C123.044 55.9609 122.951 55.868 122.951 55.6821ZM140.47 55.9609H139.063C138.363 55.9609 137.823 55.775 137.442 55.4032C137.062 55.0313 136.871 54.4957 136.871 53.7963V49.5865C136.871 48.8871 137.062 48.3515 137.442 47.9797C137.823 47.6078 138.363 47.4219 139.063 47.4219H140.47C141.161 47.4219 141.696 47.6122 142.077 47.9929C142.458 48.3648 142.648 48.896 142.648 49.5865V49.9849C142.648 50.1797 142.555 50.2771 142.369 50.2771H141.241C141.055 50.2771 140.962 50.1797 140.962 49.9849V49.6662C140.962 49.3829 140.904 49.1837 140.789 49.0686C140.674 48.9447 140.475 48.8827 140.191 48.8827H139.328C139.054 48.8827 138.855 48.9447 138.731 49.0686C138.616 49.1837 138.558 49.3829 138.558 49.6662V53.7166C138.558 53.9999 138.616 54.2036 138.731 54.3275C138.855 54.4426 139.054 54.5001 139.328 54.5001H140.191C140.475 54.5001 140.674 54.4426 140.789 54.3275C140.904 54.2036 140.962 53.9999 140.962 53.7166V52.88C140.962 52.7826 140.913 52.7339 140.816 52.7339H140.019C139.833 52.7339 139.74 52.6409 139.74 52.455V51.552C139.74 51.3661 139.833 51.2731 140.019 51.2731H142.343C142.546 51.2731 142.648 51.3749 142.648 51.5785V53.7963C142.648 54.4869 142.458 55.0225 142.077 55.4032C141.696 55.775 141.161 55.9609 140.47 55.9609ZM147.64 55.9609H146.512C146.326 55.9609 146.233 55.868 146.233 55.6821V47.7008C146.233 47.5149 146.326 47.4219 146.512 47.4219H149.672C150.363 47.4219 150.903 47.6122 151.292 47.9929C151.682 48.3736 151.877 48.9093 151.877 49.5998V50.6357C151.877 51.6361 151.483 52.3001 150.695 52.6277V52.6808L152.116 55.6422C152.195 55.8547 152.12 55.9609 151.89 55.9609H150.814C150.655 55.9609 150.54 55.9432 150.469 55.9078C150.398 55.8724 150.341 55.7972 150.296 55.6821L148.968 52.8136H148.079C147.972 52.8136 147.919 52.8623 147.919 52.9597V55.6821C147.919 55.868 147.826 55.9609 147.64 55.9609ZM148.065 51.459H149.367C149.65 51.459 149.858 51.4015 149.991 51.2864C150.124 51.1624 150.19 50.9677 150.19 50.7021V49.6662C150.19 49.3918 150.124 49.1926 149.991 49.0686C149.858 48.9447 149.65 48.8827 149.367 48.8827H148.065C147.968 48.8827 147.919 48.9314 147.919 49.0288V51.3129C147.919 51.4103 147.968 51.459 148.065 51.459ZM156.377 55.9609H155.102C154.943 55.9609 154.89 55.868 154.943 55.6821L157.041 47.7008C157.103 47.5149 157.236 47.4219 157.439 47.4219H159.206C159.427 47.4219 159.56 47.5149 159.604 47.7008L161.702 55.6821C161.755 55.868 161.702 55.9609 161.543 55.9609H160.268C160.171 55.9609 160.104 55.9432 160.069 55.9078C160.033 55.8636 160.007 55.7883 159.989 55.6821L159.617 54.2213H157.028L156.656 55.6821C156.638 55.7883 156.607 55.8636 156.563 55.9078C156.528 55.9432 156.466 55.9609 156.377 55.9609ZM158.303 49.0288L157.346 52.8667H159.312L158.356 49.0288H158.303ZM167.514 55.9609H166.399C166.204 55.9609 166.107 55.868 166.107 55.6821V49.0288C166.107 48.9314 166.058 48.8827 165.96 48.8827H164.447C164.261 48.8827 164.168 48.7897 164.168 48.6038V47.7008C164.168 47.5149 164.261 47.4219 164.447 47.4219H169.466C169.652 47.4219 169.745 47.5149 169.745 47.7008V48.6038C169.745 48.7897 169.652 48.8827 169.466 48.8827H167.952C167.846 48.8827 167.793 48.9314 167.793 49.0288V55.6821C167.793 55.868 167.7 55.9609 167.514 55.9609ZM177.12 47.4219H178.236C178.431 47.4219 178.528 47.5104 178.528 47.6875V53.7963C178.528 54.4869 178.333 55.0225 177.944 55.4032C177.563 55.775 177.027 55.9609 176.337 55.9609H174.876C174.177 55.9609 173.637 55.775 173.256 55.4032C172.875 55.0313 172.685 54.4957 172.685 53.7963V47.7008C172.685 47.5149 172.778 47.4219 172.964 47.4219H174.093C174.278 47.4219 174.371 47.5149 174.371 47.7008V53.7166C174.371 53.9999 174.429 54.2036 174.544 54.3275C174.668 54.4426 174.867 54.5001 175.142 54.5001H176.058C176.341 54.5001 176.541 54.4426 176.656 54.3275C176.78 54.2036 176.842 53.9999 176.842 53.7166V47.7008C176.842 47.5149 176.934 47.4219 177.12 47.4219ZM183.927 47.7008V55.6821C183.927 55.868 183.834 55.9609 183.648 55.9609H182.52C182.334 55.9609 182.241 55.868 182.241 55.6821V47.7008C182.241 47.5149 182.334 47.4219 182.52 47.4219H183.648C183.834 47.4219 183.927 47.5149 183.927 47.7008ZM190.35 55.9609H189.234C189.039 55.9609 188.942 55.868 188.942 55.6821V49.0288C188.942 48.9314 188.893 48.8827 188.796 48.8827H187.282C187.096 48.8827 187.003 48.7897 187.003 48.6038V47.7008C187.003 47.5149 187.096 47.4219 187.282 47.4219H192.302C192.488 47.4219 192.581 47.5149 192.581 47.7008V48.6038C192.581 48.7897 192.488 48.8827 192.302 48.8827H190.788C190.682 48.8827 190.628 48.9314 190.628 49.0288V55.6821C190.628 55.868 190.535 55.9609 190.35 55.9609ZM200.208 55.9609H195.866C195.68 55.9609 195.587 55.868 195.587 55.6821V47.7008C195.587 47.5149 195.68 47.4219 195.866 47.4219H200.208C200.385 47.4219 200.474 47.5149 200.474 47.7008V48.6038C200.474 48.7897 200.385 48.8827 200.208 48.8827H197.433C197.326 48.8827 197.273 48.9314 197.273 49.0288V50.7552C197.273 50.8526 197.326 50.9013 197.433 50.9013H199.703C199.889 50.9013 199.982 50.9942 199.982 51.1801V52.0832C199.982 52.2691 199.889 52.3621 199.703 52.3621H197.433C197.326 52.3621 197.273 52.4108 197.273 52.5081V54.3541C197.273 54.4514 197.326 54.5001 197.433 54.5001H200.208C200.385 54.5001 200.474 54.5931 200.474 54.779V55.6821C200.474 55.868 200.385 55.9609 200.208 55.9609ZM209.604 47.4219H211.569C211.755 47.4219 211.848 47.5149 211.848 47.7008V55.6821C211.848 55.868 211.755 55.9609 211.569 55.9609H210.48C210.294 55.9609 210.201 55.868 210.201 55.6821V49.3873H210.148L208.794 53.8361C208.741 54.0132 208.63 54.1017 208.462 54.1017H207.346C207.178 54.1017 207.067 54.0132 207.014 53.8361L205.633 49.3741H205.58V55.6821C205.58 55.7883 205.562 55.8636 205.527 55.9078C205.492 55.9432 205.416 55.9609 205.301 55.9609H204.212C204.026 55.9609 203.933 55.868 203.933 55.6821V47.7008C203.933 47.5149 204.026 47.4219 204.212 47.4219H206.191C206.315 47.4219 206.399 47.4839 206.443 47.6078L207.851 52.2957H207.931L209.352 47.6078C209.378 47.4839 209.462 47.4219 209.604 47.4219ZM220.183 55.9609H215.84C215.654 55.9609 215.561 55.868 215.561 55.6821V47.7008C215.561 47.5149 215.654 47.4219 215.84 47.4219H220.183C220.36 47.4219 220.448 47.5149 220.448 47.7008V48.6038C220.448 48.7897 220.36 48.8827 220.183 48.8827H217.407C217.301 48.8827 217.248 48.9314 217.248 49.0288V50.7552C217.248 50.8526 217.301 50.9013 217.407 50.9013H219.678C219.864 50.9013 219.957 50.9942 219.957 51.1801V52.0832C219.957 52.2691 219.864 52.3621 219.678 52.3621H217.407C217.301 52.3621 217.248 52.4108 217.248 52.5081V54.3541C217.248 54.4514 217.301 54.5001 217.407 54.5001H220.183C220.36 54.5001 220.448 54.5931 220.448 54.779V55.6821C220.448 55.868 220.36 55.9609 220.183 55.9609ZM225.289 55.9609H224.187C224.001 55.9609 223.908 55.868 223.908 55.6821V47.7008C223.908 47.5149 224.001 47.4219 224.187 47.4219H225.183C225.369 47.4219 225.493 47.4839 225.555 47.6078L228.237 52.6409H228.29V47.7008C228.29 47.5149 228.383 47.4219 228.569 47.4219H229.671C229.857 47.4219 229.95 47.5149 229.95 47.7008V55.6821C229.95 55.868 229.857 55.9609 229.671 55.9609H228.702C228.507 55.9609 228.365 55.8724 228.277 55.6953L225.621 50.7552H225.568V55.6821C225.568 55.868 225.475 55.9609 225.289 55.9609ZM236.311 55.9609H235.195C235.001 55.9609 234.903 55.868 234.903 55.6821V49.0288C234.903 48.9314 234.854 48.8827 234.757 48.8827H233.243C233.057 48.8827 232.964 48.7897 232.964 48.6038V47.7008C232.964 47.5149 233.057 47.4219 233.243 47.4219H238.263C238.449 47.4219 238.542 47.5149 238.542 47.7008V48.6038C238.542 48.7897 238.449 48.8827 238.263 48.8827H236.749C236.643 48.8827 236.59 48.9314 236.59 49.0288V55.6821C236.59 55.868 236.497 55.9609 236.311 55.9609Z" fill="white"/>
</g>
<defs>
<filter id="filter0_dd_1_76" x="0" y="0" width="302.406" height="103.922" filterUnits="userSpaceOnUse" color-interpolation-filters="sRGB">
<feFlood flood-opacity="0" result="BackgroundImageFix"/>
<feColorMatrix in="SourceAlpha" type="matrix" values="0 0 0 0 0 0 0 0 0 0 0 0 0 0 0 0 0 0 127 0" result="hardAlpha"/>
<feOffset dy="4"/>
<feGaussianBlur stdDeviation="7"/>
<feComposite in2="hardAlpha" operator="out"/>
<feColorMatrix type="matrix" values="0 0 0 0 0 0 0 0 0 0 0 0 0 0 0 0 0 0 0.5 0"/>
<feBlend mode="normal" in2="BackgroundImageFix" result="effect1_dropShadow_1_76"/>
<feColorMatrix in="SourceAlpha" type="matrix" values="0 0 0 0 0 0 0 0 0 0 0 0 0 0 0 0 0 0 127 0" result="hardAlpha"/>
<feOffset/>
<feGaussianBlur stdDeviation="14"/>
<feComposite in2="hardAlpha" operator="out"/>
<feColorMatrix type="matrix" values="0 0 0 0 1 0 0 0 0 0.658824 0 0 0 0 0 0 0 0 0.42 0"/>
<feBlend mode="normal" in2="effect1_dropShadow_1_76" result="effect2_dropShadow_1_76"/>
<feBlend mode="normal" in="SourceGraphic" in2="effect2_dropShadow_1_76" result="shape"/>
</filter>
</defs>
</svg>
