<svg width="230" height="63" viewBox="0 0 230 63" fill="none" xmlns="http://www.w3.org/2000/svg">
<g filter="url(#filter0_d_1_109)">
<path d="M14 17C14 15.3431 15.3431 14 17 14H213C214.657 14 216 15.3431 216 17V45.7969C216 47.4537 214.657 48.7969 213 48.7969H17C15.3432 48.7969 14 47.4537 14 45.7969V17Z" fill="#FFA800" shape-rendering="crispEdges"/>
<path d="M40 32.8984V34.8984C40 35.1637 39.8946 35.418 39.7071 35.6055C39.5196 35.7931 39.2652 35.8984 39 35.8984H32C31.7348 35.8984 31.4804 35.7931 31.2929 35.6055C31.1054 35.418 31 35.1637 31 34.8984V32.8984" stroke="white" stroke-linecap="round" stroke-linejoin="round"/>
<path d="M33 30.3984L35.5 32.8984L38 30.3984" stroke="white" stroke-linecap="round" stroke-linejoin="round"/>
<path d="M35.5 32.8984V26.8984" stroke="white" stroke-linecap="round" stroke-linejoin="round"/>
<path d="M50.9592 27.932V34.6632C50.9592 34.82 50.8808 34.8984 50.724 34.8984H49.772C49.6152 34.8984 49.5368 34.82 49.5368 34.6632V27.932C49.5368 27.7752 49.6152 27.6968 49.772 27.6968H50.724C50.8808 27.6968 50.9592 27.7752 50.9592 27.932ZM55.1995 34.8984H54.2699C54.1131 34.8984 54.0347 34.82 54.0347 34.6632V27.932C54.0347 27.7752 54.1131 27.6968 54.2699 27.6968H55.1099C55.2667 27.6968 55.3713 27.7491 55.4235 27.8536L57.6859 32.0984H57.7307V27.932C57.7307 27.7752 57.8091 27.6968 57.9659 27.6968H58.8955C59.0523 27.6968 59.1307 27.7752 59.1307 27.932V34.6632C59.1307 34.82 59.0523 34.8984 58.8955 34.8984H58.0779C57.9137 34.8984 57.7942 34.8238 57.7195 34.6744L55.4795 30.508H55.4347V34.6632C55.4347 34.82 55.3563 34.8984 55.1995 34.8984ZM61.9751 33.0616V32.8376C61.9751 32.6808 62.0535 32.6024 62.2103 32.6024H63.1623C63.3191 32.6024 63.3975 32.6808 63.3975 32.8376V32.9272C63.3975 33.211 63.4535 33.4051 63.5655 33.5096C63.6775 33.6142 63.8828 33.6664 64.1815 33.6664H64.7079C64.9991 33.6664 65.2007 33.6104 65.3127 33.4984C65.4322 33.3864 65.4919 33.1774 65.4919 32.8712V32.7368C65.4919 32.5203 65.4023 32.356 65.2231 32.244C65.0514 32.1246 64.8348 32.0536 64.5735 32.0312C64.3122 32.0088 64.0284 31.9678 63.7223 31.908C63.4236 31.8408 63.1436 31.7587 62.8823 31.6616C62.621 31.5571 62.4007 31.3592 62.2215 31.068C62.0498 30.7694 61.9639 30.3886 61.9639 29.9256V29.5336C61.9639 28.9512 62.1282 28.4995 62.4567 28.1784C62.7852 27.8574 63.2407 27.6968 63.8231 27.6968H64.9431C65.533 27.6968 65.9922 27.8574 66.3207 28.1784C66.6492 28.4995 66.8135 28.9512 66.8135 29.5336V29.7464C66.8135 29.9032 66.7351 29.9816 66.5783 29.9816H65.6263C65.4695 29.9816 65.3911 29.9032 65.3911 29.7464V29.6792C65.3911 29.388 65.3351 29.1902 65.2231 29.0856C65.1111 28.9811 64.9058 28.9288 64.6071 28.9288H64.1703C63.8642 28.9288 63.6551 28.9886 63.5431 29.108C63.4386 29.22 63.3863 29.444 63.3863 29.78V29.9928C63.3863 30.3438 63.6924 30.5454 64.3047 30.5976C64.9394 30.6499 65.5031 30.7768 65.9959 30.9784C66.2572 31.0904 66.4738 31.292 66.6455 31.5832C66.8247 31.867 66.9143 32.2328 66.9143 32.6808V33.0616C66.9143 33.644 66.75 34.0958 66.4215 34.4168C66.093 34.7379 65.6375 34.8984 65.0551 34.8984H63.8343C63.2519 34.8984 62.7964 34.7379 62.4679 34.4168C62.1394 34.0958 61.9751 33.644 61.9751 33.0616ZM71.9886 34.8984H71.0478C70.8835 34.8984 70.8014 34.82 70.8014 34.6632V29.052C70.8014 28.9699 70.7603 28.9288 70.6782 28.9288H69.4014C69.2446 28.9288 69.1662 28.8504 69.1662 28.6936V27.932C69.1662 27.7752 69.2446 27.6968 69.4014 27.6968H73.635C73.7918 27.6968 73.8702 27.7752 73.8702 27.932V28.6936C73.8702 28.8504 73.7918 28.9288 73.635 28.9288H72.3582C72.2686 28.9288 72.2238 28.9699 72.2238 29.052V34.6632C72.2238 34.82 72.1454 34.8984 71.9886 34.8984ZM77.0438 34.8984H75.9686C75.8342 34.8984 75.7894 34.82 75.8342 34.6632L77.6038 27.932C77.6561 27.7752 77.7681 27.6968 77.9398 27.6968H79.4294C79.6161 27.6968 79.7281 27.7752 79.7654 27.932L81.535 34.6632C81.5798 34.82 81.535 34.8984 81.4006 34.8984H80.3254C80.2433 34.8984 80.1873 34.8835 80.1574 34.8536C80.1275 34.8163 80.1051 34.7528 80.0902 34.6632L79.7766 33.4312H77.5926L77.279 34.6632C77.2641 34.7528 77.2379 34.8163 77.2006 34.8536C77.1707 34.8835 77.1185 34.8984 77.0438 34.8984ZM78.6678 29.052L77.8614 32.2888H79.519L78.7126 29.052H78.6678ZM88.0158 34.8984H84.331C84.1742 34.8984 84.0958 34.82 84.0958 34.6632V27.932C84.0958 27.7752 84.1742 27.6968 84.331 27.6968H85.283C85.4398 27.6968 85.5182 27.7752 85.5182 27.932V33.532C85.5182 33.6142 85.563 33.6552 85.6526 33.6552H88.0158C88.1651 33.6552 88.2398 33.7374 88.2398 33.9016V34.6632C88.2398 34.82 88.1651 34.8984 88.0158 34.8984ZM94.615 34.8984H90.9302C90.7734 34.8984 90.695 34.82 90.695 34.6632V27.932C90.695 27.7752 90.7734 27.6968 90.9302 27.6968H91.8822C92.039 27.6968 92.1174 27.7752 92.1174 27.932V33.532C92.1174 33.6142 92.1622 33.6552 92.2518 33.6552H94.615C94.7644 33.6552 94.839 33.7374 94.839 33.9016V34.6632C94.839 34.82 94.7644 34.8984 94.615 34.8984ZM101.192 34.8984H97.5295C97.3727 34.8984 97.2943 34.82 97.2943 34.6632V27.932C97.2943 27.7752 97.3727 27.6968 97.5295 27.6968H101.192C101.341 27.6968 101.416 27.7752 101.416 27.932V28.6936C101.416 28.8504 101.341 28.9288 101.192 28.9288H98.8511C98.7615 28.9288 98.7167 28.9699 98.7167 29.052V30.508C98.7167 30.5902 98.7615 30.6312 98.8511 30.6312H100.766C100.923 30.6312 101.001 30.7096 101.001 30.8664V31.628C101.001 31.7848 100.923 31.8632 100.766 31.8632H98.8511C98.7615 31.8632 98.7167 31.9043 98.7167 31.9864V33.5432C98.7167 33.6254 98.7615 33.6664 98.8511 33.6664H101.192C101.341 33.6664 101.416 33.7448 101.416 33.9016V34.6632C101.416 34.82 101.341 34.8984 101.192 34.8984ZM105.409 34.8984H104.457C104.3 34.8984 104.222 34.82 104.222 34.6632V27.932C104.222 27.7752 104.3 27.6968 104.457 27.6968H107.122C107.705 27.6968 108.16 27.8574 108.489 28.1784C108.817 28.4995 108.982 28.9512 108.982 29.5336V30.4072C108.982 31.251 108.649 31.811 107.985 32.0872V32.132L109.183 34.6296C109.25 34.8088 109.187 34.8984 108.993 34.8984H108.086C107.951 34.8984 107.854 34.8835 107.794 34.8536C107.735 34.8238 107.686 34.7603 107.649 34.6632L106.529 32.244H105.778C105.689 32.244 105.644 32.2851 105.644 32.3672V34.6632C105.644 34.82 105.566 34.8984 105.409 34.8984ZM105.767 31.1016H106.865C107.104 31.1016 107.279 31.0531 107.391 30.956C107.503 30.8515 107.559 30.6872 107.559 30.4632V29.5896C107.559 29.3582 107.503 29.1902 107.391 29.0856C107.279 28.9811 107.104 28.9288 106.865 28.9288H105.767C105.685 28.9288 105.644 28.9699 105.644 29.052V30.9784C105.644 31.0606 105.685 31.1016 105.767 31.1016ZM119.864 34.8984H116.179C116.022 34.8984 115.944 34.82 115.944 34.6632V27.932C115.944 27.7752 116.022 27.6968 116.179 27.6968H117.131C117.288 27.6968 117.366 27.7752 117.366 27.932V33.532C117.366 33.6142 117.411 33.6552 117.5 33.6552H119.864C120.013 33.6552 120.088 33.7374 120.088 33.9016V34.6632C120.088 34.82 120.013 34.8984 119.864 34.8984ZM122.957 29.8696H122.767C122.625 29.8696 122.543 29.7987 122.52 29.6568L122.252 28.2568C122.229 28.1374 122.296 28.0776 122.453 28.0776H123.282C123.439 28.0776 123.502 28.1374 123.472 28.2568L123.215 29.6792C123.178 29.8062 123.092 29.8696 122.957 29.8696ZM126.972 34.8984H125.897C125.763 34.8984 125.718 34.82 125.763 34.6632L127.532 27.932C127.584 27.7752 127.696 27.6968 127.868 27.6968H129.358C129.544 27.6968 129.656 27.7752 129.694 27.932L131.463 34.6632C131.508 34.82 131.463 34.8984 131.329 34.8984H130.254C130.172 34.8984 130.116 34.8835 130.086 34.8536C130.056 34.8163 130.034 34.7528 130.019 34.6632L129.705 33.4312H127.521L127.207 34.6632C127.192 34.7528 127.166 34.8163 127.129 34.8536C127.099 34.8835 127.047 34.8984 126.972 34.8984ZM128.596 29.052L127.79 32.2888H129.447L128.641 29.052H128.596ZM135.211 34.8984H134.259C134.103 34.8984 134.024 34.82 134.024 34.6632V27.932C134.024 27.7752 134.103 27.6968 134.259 27.6968H136.992C137.575 27.6968 138.026 27.8574 138.347 28.1784C138.668 28.492 138.829 28.94 138.829 29.5224V30.5976C138.829 31.18 138.668 31.6318 138.347 31.9528C138.026 32.2664 137.575 32.4232 136.992 32.4232H135.581C135.491 32.4232 135.447 32.4643 135.447 32.5464V34.6632C135.447 34.82 135.368 34.8984 135.211 34.8984ZM135.57 31.18H136.757C136.996 31.18 137.164 31.1315 137.261 31.0344C137.358 30.9299 137.407 30.7619 137.407 30.5304V29.5896C137.407 29.3507 137.358 29.1827 137.261 29.0856C137.164 28.9811 136.996 28.9288 136.757 28.9288H135.57C135.488 28.9288 135.447 28.9699 135.447 29.052V31.0568C135.447 31.139 135.488 31.18 135.57 31.18ZM142.718 34.8984H141.766C141.61 34.8984 141.531 34.82 141.531 34.6632V27.932C141.531 27.7752 141.61 27.6968 141.766 27.6968H144.499C145.082 27.6968 145.533 27.8574 145.854 28.1784C146.175 28.492 146.336 28.94 146.336 29.5224V30.5976C146.336 31.18 146.175 31.6318 145.854 31.9528C145.533 32.2664 145.082 32.4232 144.499 32.4232H143.088C142.998 32.4232 142.954 32.4643 142.954 32.5464V34.6632C142.954 34.82 142.875 34.8984 142.718 34.8984ZM143.077 31.18H144.264C144.503 31.18 144.671 31.1315 144.768 31.0344C144.865 30.9299 144.914 30.7619 144.914 30.5304V29.5896C144.914 29.3507 144.865 29.1827 144.768 29.0856C144.671 28.9811 144.503 28.9288 144.264 28.9288H143.077C142.995 28.9288 142.954 28.9699 142.954 29.052V31.0568C142.954 31.139 142.995 31.18 143.077 31.18ZM152.958 34.8984H149.273C149.117 34.8984 149.038 34.82 149.038 34.6632V27.932C149.038 27.7752 149.117 27.6968 149.273 27.6968H150.225C150.382 27.6968 150.461 27.7752 150.461 27.932V33.532C150.461 33.6142 150.505 33.6552 150.595 33.6552H152.958C153.108 33.6552 153.182 33.7374 153.182 33.9016V34.6632C153.182 34.82 153.108 34.8984 152.958 34.8984ZM157.116 27.932V34.6632C157.116 34.82 157.038 34.8984 156.881 34.8984H155.929C155.772 34.8984 155.694 34.82 155.694 34.6632V27.932C155.694 27.7752 155.772 27.6968 155.929 27.6968H156.881C157.038 27.6968 157.116 27.7752 157.116 27.932ZM163.148 34.8984H161.927C161.338 34.8984 160.882 34.7416 160.561 34.428C160.24 34.1144 160.079 33.6627 160.079 33.0728V29.5224C160.079 28.9326 160.24 28.4808 160.561 28.1672C160.882 27.8536 161.338 27.6968 161.927 27.6968H163.148C163.731 27.6968 164.182 27.8574 164.503 28.1784C164.832 28.492 164.996 28.94 164.996 29.5224V30.0488C164.996 30.2131 164.914 30.2952 164.75 30.2952H163.809C163.652 30.2952 163.574 30.2131 163.574 30.0488V29.5896C163.574 29.3507 163.522 29.1827 163.417 29.0856C163.32 28.9811 163.152 28.9288 162.913 28.9288H162.151C161.92 28.9288 161.752 28.9811 161.647 29.0856C161.55 29.1827 161.502 29.3507 161.502 29.5896V33.0056C161.502 33.2446 161.55 33.4163 161.647 33.5208C161.752 33.6179 161.92 33.6664 162.151 33.6664H162.913C163.152 33.6664 163.32 33.6179 163.417 33.5208C163.522 33.4163 163.574 33.2446 163.574 33.0056V32.5464C163.574 32.3822 163.652 32.3 163.809 32.3H164.75C164.914 32.3 164.996 32.3822 164.996 32.5464V33.0728C164.996 33.6552 164.832 34.107 164.503 34.428C164.182 34.7416 163.731 34.8984 163.148 34.8984ZM168.536 34.8984H167.461C167.327 34.8984 167.282 34.82 167.327 34.6632L169.096 27.932C169.149 27.7752 169.261 27.6968 169.432 27.6968H170.922C171.109 27.6968 171.221 27.7752 171.258 27.932L173.028 34.6632C173.072 34.82 173.028 34.8984 172.893 34.8984H171.818C171.736 34.8984 171.68 34.8835 171.65 34.8536C171.62 34.8163 171.598 34.7528 171.583 34.6632L171.269 33.4312H169.085L168.772 34.6632C168.757 34.7528 168.731 34.8163 168.693 34.8536C168.663 34.8835 168.611 34.8984 168.536 34.8984ZM170.16 29.052L169.354 32.2888H171.012L170.205 29.052H170.16ZM177.817 34.8984H176.876C176.712 34.8984 176.63 34.82 176.63 34.6632V29.052C176.63 28.9699 176.589 28.9288 176.507 28.9288H175.23C175.073 28.9288 174.995 28.8504 174.995 28.6936V27.932C174.995 27.7752 175.073 27.6968 175.23 27.6968H179.464C179.62 27.6968 179.699 27.7752 179.699 27.932V28.6936C179.699 28.8504 179.62 28.9288 179.464 28.9288H178.187C178.097 28.9288 178.052 28.9699 178.052 29.052V34.6632C178.052 34.82 177.974 34.8984 177.817 34.8984ZM183.6 27.932V34.6632C183.6 34.82 183.522 34.8984 183.365 34.8984H182.413C182.256 34.8984 182.178 34.82 182.178 34.6632V27.932C182.178 27.7752 182.256 27.6968 182.413 27.6968H183.365C183.522 27.6968 183.6 27.7752 183.6 27.932ZM188.636 33.6664H189.431C189.67 33.6664 189.838 33.6179 189.935 33.5208C190.04 33.4163 190.092 33.2446 190.092 33.0056V29.5896C190.092 29.3507 190.04 29.1827 189.935 29.0856C189.838 28.9811 189.67 28.9288 189.431 28.9288H188.636C188.397 28.9288 188.229 28.9811 188.132 29.0856C188.035 29.1827 187.986 29.3507 187.986 29.5896V33.0056C187.986 33.2446 188.035 33.4163 188.132 33.5208C188.229 33.6179 188.397 33.6664 188.636 33.6664ZM189.666 34.8984H188.412C187.822 34.8984 187.367 34.7416 187.046 34.428C186.725 34.1144 186.564 33.6627 186.564 33.0728V29.5224C186.564 28.9326 186.725 28.4808 187.046 28.1672C187.367 27.8536 187.822 27.6968 188.412 27.6968H189.666C190.256 27.6968 190.712 27.8536 191.033 28.1672C191.354 28.4808 191.514 28.9326 191.514 29.5224V33.0728C191.514 33.6627 191.354 34.1144 191.033 34.428C190.712 34.7416 190.256 34.8984 189.666 34.8984ZM195.588 34.8984H194.659C194.502 34.8984 194.424 34.82 194.424 34.6632V27.932C194.424 27.7752 194.502 27.6968 194.659 27.6968H195.499C195.656 27.6968 195.76 27.7491 195.812 27.8536L198.075 32.0984H198.12V27.932C198.12 27.7752 198.198 27.6968 198.355 27.6968H199.284C199.441 27.6968 199.52 27.7752 199.52 27.932V34.6632C199.52 34.82 199.441 34.8984 199.284 34.8984H198.467C198.303 34.8984 198.183 34.8238 198.108 34.6744L195.868 30.508H195.824V34.6632C195.824 34.82 195.745 34.8984 195.588 34.8984Z" fill="white"/>
</g>
<defs>
<filter id="filter0_d_1_109" x="0" y="0" width="230" height="62.7969" filterUnits="userSpaceOnUse" color-interpolation-filters="sRGB">
<feFlood flood-opacity="0" result="BackgroundImageFix"/>
<feColorMatrix in="SourceAlpha" type="matrix" values="0 0 0 0 0 0 0 0 0 0 0 0 0 0 0 0 0 0 127 0" result="hardAlpha"/>
<feOffset/>
<feGaussianBlur stdDeviation="7"/>
<feComposite in2="hardAlpha" operator="out"/>
<feColorMatrix type="matrix" values="0 0 0 0 1 0 0 0 0 0.658824 0 0 0 0 0 0 0 0 0.32 0"/>
<feBlend mode="normal" in2="BackgroundImageFix" result="effect1_dropShadow_1_109"/>
<feBlend mode="normal" in="SourceGraphic" in2="effect1_dropShadow_1_109" result="shape"/>
</filter>
</defs>
</svg>
