<svg width="35" height="34" viewBox="0 0 35 34" fill="none" xmlns="http://www.w3.org/2000/svg">
<g filter="url(#filter0_d_1_142)">
<path d="M6.90002 5.70001L14.2 13" stroke="#C084FC" stroke-width="1.4" stroke-linecap="round"/>
<path opacity="0.7" d="M6.90002 5.70001L13.6 12.4" stroke="#E9D5FF" stroke-width="0.45" stroke-linecap="round"/>
<path d="M11.2 16.4L17.6 10" stroke="#C084FC" stroke-width="3.2" stroke-linecap="round"/>
<path d="M16.2 15L25.2 24" stroke="#C084FC" stroke-width="2" stroke-linecap="round"/>
<path d="M27.2 28.6C28.6359 28.6 29.8 27.436 29.8 26C29.8 24.5641 28.6359 23.4 27.2 23.4C25.764 23.4 24.6 24.5641 24.6 26C24.6 27.436 25.764 28.6 27.2 28.6Z" fill="#C084FC"/>
<path opacity="0.55" d="M26.5 26.3C27.0523 26.3 27.5 25.8523 27.5 25.3C27.5 24.7477 27.0523 24.3 26.5 24.3C25.9477 24.3 25.5 24.7477 25.5 25.3C25.5 25.8523 25.9477 26.3 26.5 26.3Z" fill="#F3E8FF"/>
<path d="M27.9 5.70001L20.6 13" stroke="#C084FC" stroke-width="1.4" stroke-linecap="round"/>
<path opacity="0.7" d="M27.9 5.70001L21.2 12.4" stroke="#E9D5FF" stroke-width="0.45" stroke-linecap="round"/>
<path d="M17.2 10L23.6 16.4" stroke="#C084FC" stroke-width="3.2" stroke-linecap="round"/>
<path d="M18.6 15L9.59998 24" stroke="#C084FC" stroke-width="2" stroke-linecap="round"/>
<path d="M7.6 28.6C9.03594 28.6 10.2 27.436 10.2 26C10.2 24.5641 9.03594 23.4 7.6 23.4C6.16406 23.4 5 24.5641 5 26C5 27.436 6.16406 28.6 7.6 28.6Z" fill="#C084FC"/>
<path opacity="0.55" d="M6.90002 26.3C7.45231 26.3 7.90002 25.8523 7.90002 25.3C7.90002 24.7477 7.45231 24.3 6.90002 24.3C6.34774 24.3 5.90002 24.7477 5.90002 25.3C5.90002 25.8523 6.34774 26.3 6.90002 26.3Z" fill="#F3E8FF"/>
</g>
<defs>
<filter id="filter0_d_1_142" x="-1.59998" y="-2.79999" width="38" height="38" filterUnits="userSpaceOnUse" color-interpolation-filters="sRGB">
<feFlood flood-opacity="0" result="BackgroundImageFix"/>
<feColorMatrix in="SourceAlpha" type="matrix" values="0 0 0 0 0 0 0 0 0 0 0 0 0 0 0 0 0 0 127 0" result="hardAlpha"/>
<feOffset/>
<feGaussianBlur stdDeviation="2.5"/>
<feColorMatrix type="matrix" values="0 0 0 0 0.752941 0 0 0 0 0.517647 0 0 0 0 0.988235 0 0 0 0.85 0"/>
<feBlend mode="normal" in2="BackgroundImageFix" result="effect1_dropShadow_1_142"/>
<feBlend mode="normal" in="SourceGraphic" in2="effect1_dropShadow_1_142" result="shape"/>
</filter>
</defs>
</svg>
