<svg width="347" height="40" viewBox="0 0 347 40" fill="none" xmlns="http://www.w3.org/2000/svg">
<path d="M7.41813 11.04V0.799978H8.65813V9.93998H13.4181V11.04H7.41813ZM17.4381 11.22C16.9515 11.22 16.5098 11.1283 16.1131 10.945C15.7165 10.7583 15.4015 10.49 15.1681 10.14C14.9348 9.78664 14.8181 9.35998 14.8181 8.85998C14.8181 8.41998 14.9048 8.06331 15.0781 7.78998C15.2515 7.51331 15.4831 7.29664 15.7731 7.13998C16.0631 6.98331 16.3831 6.86664 16.7331 6.78998C17.0865 6.70998 17.4415 6.64664 17.7981 6.59998C18.2648 6.53998 18.6431 6.49498 18.9331 6.46498C19.2265 6.43164 19.4398 6.37664 19.5731 6.29998C19.7098 6.22331 19.7781 6.08998 19.7781 5.89998V5.85998C19.7781 5.36664 19.6431 4.98331 19.3731 4.70998C19.1065 4.43664 18.7015 4.29998 18.1581 4.29998C17.5948 4.29998 17.1531 4.42331 16.8331 4.66998C16.5131 4.91664 16.2881 5.17998 16.1581 5.45998L15.0381 5.05998C15.2381 4.59331 15.5048 4.22998 15.8381 3.96998C16.1748 3.70664 16.5415 3.52331 16.9381 3.41998C17.3381 3.31331 17.7315 3.25998 18.1181 3.25998C18.3648 3.25998 18.6481 3.28998 18.9681 3.34998C19.2915 3.40664 19.6031 3.52498 19.9031 3.70498C20.2065 3.88498 20.4581 4.15664 20.6581 4.51998C20.8581 4.88331 20.9581 5.36998 20.9581 5.97998V11.04H19.7781V9.99998H19.7181C19.6381 10.1666 19.5048 10.345 19.3181 10.535C19.1315 10.725 18.8831 10.8866 18.5731 11.02C18.2631 11.1533 17.8848 11.22 17.4381 11.22ZM17.6181 10.16C18.0848 10.16 18.4781 10.0683 18.7981 9.88498C19.1215 9.70164 19.3648 9.46498 19.5281 9.17498C19.6948 8.88498 19.7781 8.57998 19.7781 8.25998V7.17998C19.7281 7.23998 19.6181 7.29498 19.4481 7.34498C19.2815 7.39164 19.0881 7.43331 18.8681 7.46998C18.6515 7.50331 18.4398 7.53331 18.2331 7.55998C18.0298 7.58331 17.8648 7.60331 17.7381 7.61998C17.4315 7.65998 17.1448 7.72498 16.8781 7.81498C16.6148 7.90164 16.4015 8.03331 16.2381 8.20998C16.0781 8.38331 15.9981 8.61998 15.9981 8.91998C15.9981 9.32998 16.1498 9.63998 16.4531 9.84998C16.7598 10.0566 17.1481 10.16 17.6181 10.16ZM27.0719 13.92V3.35998H28.2119V4.57998H28.3519C28.4385 4.44664 28.5585 4.27664 28.7119 4.06998C28.8685 3.85998 29.0919 3.67331 29.3819 3.50998C29.6752 3.34331 30.0719 3.25998 30.5719 3.25998C31.2185 3.25998 31.7885 3.42164 32.2819 3.74498C32.7752 4.06831 33.1602 4.52664 33.4369 5.11998C33.7135 5.71331 33.8519 6.41331 33.8519 7.21998C33.8519 8.03331 33.7135 8.73831 33.4369 9.33498C33.1602 9.92831 32.7769 10.3883 32.2869 10.715C31.7969 11.0383 31.2319 11.2 30.5919 11.2C30.0985 11.2 29.7035 11.1183 29.4069 10.955C29.1102 10.7883 28.8819 10.6 28.7219 10.39C28.5619 10.1766 28.4385 9.99998 28.3519 9.85998H28.2519V13.92H27.0719ZM28.2319 7.19998C28.2319 7.77998 28.3169 8.29164 28.4869 8.73498C28.6569 9.17498 28.9052 9.51998 29.2319 9.76998C29.5585 10.0166 29.9585 10.14 30.4319 10.14C30.9252 10.14 31.3369 10.01 31.6669 9.74998C32.0002 9.48664 32.2502 9.13331 32.4169 8.68998C32.5869 8.24331 32.6719 7.74664 32.6719 7.19998C32.6719 6.65998 32.5885 6.17331 32.4219 5.73998C32.2585 5.30331 32.0102 4.95831 31.6769 4.70498C31.3469 4.44831 30.9319 4.31998 30.4319 4.31998C29.9519 4.31998 29.5485 4.44164 29.2219 4.68498C28.8952 4.92498 28.6485 5.26164 28.4819 5.69498C28.3152 6.12498 28.2319 6.62664 28.2319 7.19998ZM36.8319 0.799978V11.04H35.6519V0.799978H36.8319ZM41.2531 11.22C40.7665 11.22 40.3248 11.1283 39.9281 10.945C39.5315 10.7583 39.2165 10.49 38.9831 10.14C38.7498 9.78664 38.6331 9.35998 38.6331 8.85998C38.6331 8.41998 38.7198 8.06331 38.8931 7.78998C39.0665 7.51331 39.2981 7.29664 39.5881 7.13998C39.8781 6.98331 40.1981 6.86664 40.5481 6.78998C40.9015 6.70998 41.2565 6.64664 41.6131 6.59998C42.0798 6.53998 42.4581 6.49498 42.7481 6.46498C43.0415 6.43164 43.2548 6.37664 43.3881 6.29998C43.5248 6.22331 43.5931 6.08998 43.5931 5.89998V5.85998C43.5931 5.36664 43.4581 4.98331 43.1881 4.70998C42.9215 4.43664 42.5165 4.29998 41.9731 4.29998C41.4098 4.29998 40.9681 4.42331 40.6481 4.66998C40.3281 4.91664 40.1031 5.17998 39.9731 5.45998L38.8531 5.05998C39.0531 4.59331 39.3198 4.22998 39.6531 3.96998C39.9898 3.70664 40.3565 3.52331 40.7531 3.41998C41.1531 3.31331 41.5465 3.25998 41.9331 3.25998C42.1798 3.25998 42.4631 3.28998 42.7831 3.34998C43.1065 3.40664 43.4181 3.52498 43.7181 3.70498C44.0215 3.88498 44.2731 4.15664 44.4731 4.51998C44.6731 4.88331 44.7731 5.36998 44.7731 5.97998V11.04H43.5931V9.99998H43.5331C43.4531 10.1666 43.3198 10.345 43.1331 10.535C42.9465 10.725 42.6981 10.8866 42.3881 11.02C42.0781 11.1533 41.6998 11.22 41.2531 11.22ZM41.4331 10.16C41.8998 10.16 42.2931 10.0683 42.6131 9.88498C42.9365 9.70164 43.1798 9.46498 43.3431 9.17498C43.5098 8.88498 43.5931 8.57998 43.5931 8.25998V7.17998C43.5431 7.23998 43.4331 7.29498 43.2631 7.34498C43.0965 7.39164 42.9031 7.43331 42.6831 7.46998C42.4665 7.50331 42.2548 7.53331 42.0481 7.55998C41.8448 7.58331 41.6798 7.60331 41.5531 7.61998C41.2465 7.65998 40.9598 7.72498 40.6931 7.81498C40.4298 7.90164 40.2165 8.03331 40.0531 8.20998C39.8931 8.38331 39.8131 8.61998 39.8131 8.91998C39.8131 9.32998 39.9648 9.63998 40.2681 9.84998C40.5748 10.0566 40.9631 10.16 41.4331 10.16ZM50.2669 3.35998V4.35998H46.2869V3.35998H50.2669ZM47.4469 1.51998H48.6269V8.83998C48.6269 9.17331 48.6752 9.42331 48.7719 9.58998C48.8719 9.75331 48.9985 9.86331 49.1519 9.91998C49.3085 9.97331 49.4735 9.99998 49.6469 9.99998C49.7769 9.99998 49.8835 9.99331 49.9669 9.97998C50.0502 9.96331 50.1169 9.94998 50.1669 9.93998L50.4069 11C50.3269 11.03 50.2152 11.06 50.0719 11.09C49.9285 11.1233 49.7469 11.14 49.5269 11.14C49.1935 11.14 48.8669 11.0683 48.5469 10.925C48.2302 10.7816 47.9669 10.5633 47.7569 10.27C47.5502 9.97664 47.4469 9.60664 47.4469 9.15998V1.51998ZM55.1794 11.2C54.4394 11.2 53.801 11.0366 53.2644 10.71C52.731 10.38 52.3194 9.91998 52.0294 9.32998C51.7427 8.73664 51.5994 8.04664 51.5994 7.25998C51.5994 6.47331 51.7427 5.77998 52.0294 5.17998C52.3194 4.57664 52.7227 4.10664 53.2394 3.76998C53.7594 3.42998 54.366 3.25998 55.0594 3.25998C55.4594 3.25998 55.8544 3.32664 56.2444 3.45998C56.6344 3.59331 56.9894 3.80998 57.3094 4.10998C57.6294 4.40664 57.8844 4.79998 58.0744 5.28998C58.2644 5.77998 58.3594 6.38331 58.3594 7.09998V7.59998H52.4394V6.57998H57.1594C57.1594 6.14664 57.0727 5.75998 56.8994 5.41998C56.7294 5.07998 56.486 4.81164 56.1694 4.61498C55.856 4.41831 55.486 4.31998 55.0594 4.31998C54.5894 4.31998 54.1827 4.43664 53.8394 4.66998C53.4994 4.89998 53.2377 5.19998 53.0544 5.56998C52.871 5.93998 52.7794 6.33664 52.7794 6.75998V7.43998C52.7794 8.01998 52.8794 8.51164 53.0794 8.91498C53.2827 9.31498 53.5644 9.61998 53.9244 9.82998C54.2844 10.0366 54.7027 10.14 55.1794 10.14C55.4894 10.14 55.7694 10.0966 56.0194 10.01C56.2727 9.91998 56.491 9.78664 56.6744 9.60998C56.8577 9.42998 56.9994 9.20664 57.0994 8.93998L58.2394 9.25998C58.1194 9.64664 57.9177 9.98664 57.6344 10.28C57.351 10.57 57.001 10.7966 56.5844 10.96C56.1677 11.12 55.6994 11.2 55.1794 11.2ZM63.5744 3.35998V4.35998H59.4344V3.35998H63.5744ZM60.6744 11.04V2.29998C60.6744 1.85998 60.7777 1.49331 60.9844 1.19998C61.191 0.906644 61.4594 0.686644 61.7894 0.539977C62.1194 0.393311 62.4677 0.319977 62.8344 0.319977C63.1244 0.319977 63.361 0.343311 63.5444 0.389978C63.7277 0.436644 63.8644 0.479978 63.9544 0.519978L63.6144 1.53998C63.5544 1.51998 63.471 1.49498 63.3644 1.46498C63.261 1.43498 63.1244 1.41998 62.9544 1.41998C62.5644 1.41998 62.2827 1.51831 62.1094 1.71498C61.9394 1.91164 61.8544 2.19998 61.8544 2.57998V11.04H60.6744ZM68.0319 11.2C67.3385 11.2 66.7302 11.035 66.2069 10.705C65.6869 10.375 65.2802 9.91331 64.9869 9.31998C64.6969 8.72664 64.5519 8.03331 64.5519 7.23998C64.5519 6.43998 64.6969 5.74164 64.9869 5.14498C65.2802 4.54831 65.6869 4.08498 66.2069 3.75498C66.7302 3.42498 67.3385 3.25998 68.0319 3.25998C68.7252 3.25998 69.3319 3.42498 69.8519 3.75498C70.3752 4.08498 70.7819 4.54831 71.0719 5.14498C71.3652 5.74164 71.5119 6.43998 71.5119 7.23998C71.5119 8.03331 71.3652 8.72664 71.0719 9.31998C70.7819 9.91331 70.3752 10.375 69.8519 10.705C69.3319 11.035 68.7252 11.2 68.0319 11.2ZM68.0319 10.14C68.5585 10.14 68.9919 10.005 69.3319 9.73498C69.6719 9.46498 69.9235 9.10998 70.0869 8.66998C70.2502 8.22998 70.3319 7.75331 70.3319 7.23998C70.3319 6.72664 70.2502 6.24831 70.0869 5.80498C69.9235 5.36164 69.6719 5.00331 69.3319 4.72998C68.9919 4.45664 68.5585 4.31998 68.0319 4.31998C67.5052 4.31998 67.0719 4.45664 66.7319 4.72998C66.3919 5.00331 66.1402 5.36164 65.9769 5.80498C65.8135 6.24831 65.7319 6.72664 65.7319 7.23998C65.7319 7.75331 65.8135 8.22998 65.9769 8.66998C66.1402 9.10998 66.3919 9.46498 66.7319 9.73498C67.0719 10.005 67.5052 10.14 68.0319 10.14ZM73.3131 11.04V3.35998H74.4531V4.51998H74.5331C74.6731 4.13998 74.9265 3.83164 75.2931 3.59498C75.6598 3.35831 76.0731 3.23998 76.5331 3.23998C76.6198 3.23998 76.7281 3.24164 76.8581 3.24498C76.9881 3.24831 77.0865 3.25331 77.1531 3.25998V4.45998C77.1131 4.44998 77.0215 4.43498 76.8781 4.41498C76.7381 4.39164 76.5898 4.37998 76.4331 4.37998C76.0598 4.37998 75.7265 4.45831 75.4331 4.61498C75.1431 4.76831 74.9131 4.98164 74.7431 5.25498C74.5765 5.52498 74.4931 5.83331 74.4931 6.17998V11.04H73.3131ZM78.5519 11.04V3.35998H79.6919V4.55998H79.7919C79.9519 4.14998 80.2102 3.83164 80.5669 3.60498C80.9235 3.37498 81.3519 3.25998 81.8519 3.25998C82.3585 3.25998 82.7802 3.37498 83.1169 3.60498C83.4569 3.83164 83.7219 4.14998 83.9119 4.55998H83.9919C84.1885 4.16331 84.4835 3.84831 84.8769 3.61498C85.2702 3.37831 85.7419 3.25998 86.2919 3.25998C86.9785 3.25998 87.5402 3.47498 87.9769 3.90498C88.4135 4.33164 88.6319 4.99664 88.6319 5.89998V11.04H87.4519V5.89998C87.4519 5.33331 87.2969 4.92831 86.9869 4.68498C86.6769 4.44164 86.3119 4.31998 85.8919 4.31998C85.3519 4.31998 84.9335 4.48331 84.6369 4.80998C84.3402 5.13331 84.1919 5.54331 84.1919 6.03998V11.04H82.9919V5.77998C82.9919 5.34331 82.8502 4.99164 82.5669 4.72498C82.2835 4.45498 81.9185 4.31998 81.4719 4.31998C81.1652 4.31998 80.8785 4.40164 80.6119 4.56498C80.3485 4.72831 80.1352 4.95498 79.9719 5.24498C79.8119 5.53164 79.7319 5.86331 79.7319 6.23998V11.04H78.5519ZM94.0094 11.2C93.2694 11.2 92.631 11.0366 92.0944 10.71C91.561 10.38 91.1494 9.91998 90.8594 9.32998C90.5727 8.73664 90.4294 8.04664 90.4294 7.25998C90.4294 6.47331 90.5727 5.77998 90.8594 5.17998C91.1494 4.57664 91.5527 4.10664 92.0694 3.76998C92.5894 3.42998 93.196 3.25998 93.8894 3.25998C94.2894 3.25998 94.6844 3.32664 95.0744 3.45998C95.4644 3.59331 95.8194 3.80998 96.1394 4.10998C96.4594 4.40664 96.7144 4.79998 96.9044 5.28998C97.0944 5.77998 97.1894 6.38331 97.1894 7.09998V7.59998H91.2694V6.57998H95.9894C95.9894 6.14664 95.9027 5.75998 95.7294 5.41998C95.5594 5.07998 95.316 4.81164 94.9994 4.61498C94.686 4.41831 94.316 4.31998 93.8894 4.31998C93.4194 4.31998 93.0127 4.43664 92.6694 4.66998C92.3294 4.89998 92.0677 5.19998 91.8844 5.56998C91.701 5.93998 91.6094 6.33664 91.6094 6.75998V7.43998C91.6094 8.01998 91.7094 8.51164 91.9094 8.91498C92.1127 9.31498 92.3944 9.61998 92.7544 9.82998C93.1144 10.0366 93.5327 10.14 94.0094 10.14C94.3194 10.14 94.5994 10.0966 94.8494 10.01C95.1027 9.91998 95.321 9.78664 95.5044 9.60998C95.6877 9.42998 95.8294 9.20664 95.9294 8.93998L97.0694 9.25998C96.9494 9.64664 96.7477 9.98664 96.4644 10.28C96.181 10.57 95.831 10.7966 95.4144 10.96C94.9977 11.12 94.5294 11.2 94.0094 11.2ZM105.844 11.2C105.204 11.2 104.639 11.0383 104.149 10.715C103.659 10.3883 103.276 9.92831 102.999 9.33498C102.723 8.73831 102.584 8.03331 102.584 7.21998C102.584 6.41331 102.723 5.71331 102.999 5.11998C103.276 4.52664 103.661 4.06831 104.154 3.74498C104.648 3.42164 105.218 3.25998 105.864 3.25998C106.364 3.25998 106.759 3.34331 107.049 3.50998C107.343 3.67331 107.566 3.85998 107.719 4.06998C107.876 4.27664 107.998 4.44664 108.084 4.57998H108.184V0.799978H109.364V11.04H108.224V9.85998H108.084C107.998 9.99998 107.874 10.1766 107.714 10.39C107.554 10.6 107.326 10.7883 107.029 10.955C106.733 11.1183 106.338 11.2 105.844 11.2ZM106.004 10.14C106.478 10.14 106.878 10.0166 107.204 9.76998C107.531 9.51998 107.779 9.17498 107.949 8.73498C108.119 8.29164 108.204 7.77998 108.204 7.19998C108.204 6.62664 108.121 6.12498 107.954 5.69498C107.788 5.26164 107.541 4.92498 107.214 4.68498C106.888 4.44164 106.484 4.31998 106.004 4.31998C105.504 4.31998 105.088 4.44831 104.754 4.70498C104.424 4.95831 104.176 5.30331 104.009 5.73998C103.846 6.17331 103.764 6.65998 103.764 7.19998C103.764 7.74664 103.848 8.24331 104.014 8.68998C104.184 9.13331 104.434 9.48664 104.764 9.74998C105.098 10.01 105.511 10.14 106.004 10.14ZM114.909 11.2C114.169 11.2 113.531 11.0366 112.994 10.71C112.461 10.38 112.049 9.91998 111.759 9.32998C111.473 8.73664 111.329 8.04664 111.329 7.25998C111.329 6.47331 111.473 5.77998 111.759 5.17998C112.049 4.57664 112.453 4.10664 112.969 3.76998C113.489 3.42998 114.096 3.25998 114.789 3.25998C115.189 3.25998 115.584 3.32664 115.974 3.45998C116.364 3.59331 116.719 3.80998 117.039 4.10998C117.359 4.40664 117.614 4.79998 117.804 5.28998C117.994 5.77998 118.089 6.38331 118.089 7.09998V7.59998H112.169V6.57998H116.889C116.889 6.14664 116.803 5.75998 116.629 5.41998C116.459 5.07998 116.216 4.81164 115.899 4.61498C115.586 4.41831 115.216 4.31998 114.789 4.31998C114.319 4.31998 113.913 4.43664 113.569 4.66998C113.229 4.89998 112.968 5.19998 112.784 5.56998C112.601 5.93998 112.509 6.33664 112.509 6.75998V7.43998C112.509 8.01998 112.609 8.51164 112.809 8.91498C113.013 9.31498 113.294 9.61998 113.654 9.82998C114.014 10.0366 114.433 10.14 114.909 10.14C115.219 10.14 115.499 10.0966 115.749 10.01C116.003 9.91998 116.221 9.78664 116.404 9.60998C116.588 9.42998 116.729 9.20664 116.829 8.93998L117.969 9.25998C117.849 9.64664 117.648 9.98664 117.364 10.28C117.081 10.57 116.731 10.7966 116.314 10.96C115.898 11.12 115.429 11.2 114.909 11.2ZM126.964 11.2C126.244 11.2 125.624 11.03 125.104 10.69C124.584 10.35 124.184 9.88164 123.904 9.28498C123.624 8.68831 123.484 8.00664 123.484 7.23998C123.484 6.45998 123.628 5.77164 123.914 5.17498C124.204 4.57498 124.608 4.10664 125.124 3.76998C125.644 3.42998 126.251 3.25998 126.944 3.25998C127.484 3.25998 127.971 3.35998 128.404 3.55998C128.838 3.75998 129.193 4.03998 129.469 4.39998C129.746 4.75998 129.918 5.17998 129.984 5.65998H128.804C128.714 5.30998 128.514 4.99998 128.204 4.72998C127.898 4.45664 127.484 4.31998 126.964 4.31998C126.504 4.31998 126.101 4.43998 125.754 4.67998C125.411 4.91664 125.143 5.25164 124.949 5.68498C124.759 6.11498 124.664 6.61998 124.664 7.19998C124.664 7.79331 124.758 8.30998 124.944 8.74998C125.134 9.18998 125.401 9.53164 125.744 9.77498C126.091 10.0183 126.498 10.14 126.964 10.14C127.271 10.14 127.549 10.0866 127.799 9.97998C128.049 9.87331 128.261 9.71998 128.434 9.51998C128.608 9.31998 128.731 9.07998 128.804 8.79998H129.984C129.918 9.25331 129.753 9.66164 129.489 10.025C129.229 10.385 128.884 10.6716 128.454 10.885C128.028 11.095 127.531 11.2 126.964 11.2ZM134.829 11.2C134.136 11.2 133.528 11.035 133.004 10.705C132.484 10.375 132.078 9.91331 131.784 9.31998C131.494 8.72664 131.349 8.03331 131.349 7.23998C131.349 6.43998 131.494 5.74164 131.784 5.14498C132.078 4.54831 132.484 4.08498 133.004 3.75498C133.528 3.42498 134.136 3.25998 134.829 3.25998C135.523 3.25998 136.129 3.42498 136.649 3.75498C137.173 4.08498 137.579 4.54831 137.869 5.14498C138.163 5.74164 138.309 6.43998 138.309 7.23998C138.309 8.03331 138.163 8.72664 137.869 9.31998C137.579 9.91331 137.173 10.375 136.649 10.705C136.129 11.035 135.523 11.2 134.829 11.2ZM134.829 10.14C135.356 10.14 135.789 10.005 136.129 9.73498C136.469 9.46498 136.721 9.10998 136.884 8.66998C137.048 8.22998 137.129 7.75331 137.129 7.23998C137.129 6.72664 137.048 6.24831 136.884 5.80498C136.721 5.36164 136.469 5.00331 136.129 4.72998C135.789 4.45664 135.356 4.31998 134.829 4.31998C134.303 4.31998 133.869 4.45664 133.529 4.72998C133.189 5.00331 132.938 5.36164 132.774 5.80498C132.611 6.24831 132.529 6.72664 132.529 7.23998C132.529 7.75331 132.611 8.22998 132.774 8.66998C132.938 9.10998 133.189 9.46498 133.529 9.73498C133.869 10.005 134.303 10.14 134.829 10.14ZM140.111 11.04V3.35998H141.251V4.55998H141.351C141.511 4.14998 141.769 3.83164 142.126 3.60498C142.482 3.37498 142.911 3.25998 143.411 3.25998C143.917 3.25998 144.339 3.37498 144.676 3.60498C145.016 3.83164 145.281 4.14998 145.471 4.55998H145.551C145.747 4.16331 146.042 3.84831 146.436 3.61498C146.829 3.37831 147.301 3.25998 147.851 3.25998C148.537 3.25998 149.099 3.47498 149.536 3.90498C149.972 4.33164 150.191 4.99664 150.191 5.89998V11.04H149.011V5.89998C149.011 5.33331 148.856 4.92831 148.546 4.68498C148.236 4.44164 147.871 4.31998 147.451 4.31998C146.911 4.31998 146.492 4.48331 146.196 4.80998C145.899 5.13331 145.751 5.54331 145.751 6.03998V11.04H144.551V5.77998C144.551 5.34331 144.409 4.99164 144.126 4.72498C143.842 4.45498 143.477 4.31998 143.031 4.31998C142.724 4.31998 142.437 4.40164 142.171 4.56498C141.907 4.72831 141.694 4.95498 141.531 5.24498C141.371 5.53164 141.291 5.86331 141.291 6.23998V11.04H140.111ZM152.348 13.92V3.35998H153.488V4.57998H153.628C153.715 4.44664 153.835 4.27664 153.988 4.06998C154.145 3.85998 154.368 3.67331 154.658 3.50998C154.951 3.34331 155.348 3.25998 155.848 3.25998C156.495 3.25998 157.065 3.42164 157.558 3.74498C158.051 4.06831 158.436 4.52664 158.713 5.11998C158.99 5.71331 159.128 6.41331 159.128 7.21998C159.128 8.03331 158.99 8.73831 158.713 9.33498C158.436 9.92831 158.053 10.3883 157.563 10.715C157.073 11.0383 156.508 11.2 155.868 11.2C155.375 11.2 154.98 11.1183 154.683 10.955C154.386 10.7883 154.158 10.6 153.998 10.39C153.838 10.1766 153.715 9.99998 153.628 9.85998H153.528V13.92H152.348ZM153.508 7.19998C153.508 7.77998 153.593 8.29164 153.763 8.73498C153.933 9.17498 154.181 9.51998 154.508 9.76998C154.835 10.0166 155.235 10.14 155.708 10.14C156.201 10.14 156.613 10.01 156.943 9.74998C157.276 9.48664 157.526 9.13331 157.693 8.68998C157.863 8.24331 157.948 7.74664 157.948 7.19998C157.948 6.65998 157.865 6.17331 157.698 5.73998C157.535 5.30331 157.286 4.95831 156.953 4.70498C156.623 4.44831 156.208 4.31998 155.708 4.31998C155.228 4.31998 154.825 4.44164 154.498 4.68498C154.171 4.92498 153.925 5.26164 153.758 5.69498C153.591 6.12498 153.508 6.62664 153.508 7.19998ZM164.148 11.2C163.408 11.2 162.77 11.0366 162.233 10.71C161.7 10.38 161.288 9.91998 160.998 9.32998C160.711 8.73664 160.568 8.04664 160.568 7.25998C160.568 6.47331 160.711 5.77998 160.998 5.17998C161.288 4.57664 161.691 4.10664 162.208 3.76998C162.728 3.42998 163.335 3.25998 164.028 3.25998C164.428 3.25998 164.823 3.32664 165.213 3.45998C165.603 3.59331 165.958 3.80998 166.278 4.10998C166.598 4.40664 166.853 4.79998 167.043 5.28998C167.233 5.77998 167.328 6.38331 167.328 7.09998V7.59998H161.408V6.57998H166.128C166.128 6.14664 166.041 5.75998 165.868 5.41998C165.698 5.07998 165.455 4.81164 165.138 4.61498C164.825 4.41831 164.455 4.31998 164.028 4.31998C163.558 4.31998 163.151 4.43664 162.808 4.66998C162.468 4.89998 162.206 5.19998 162.023 5.56998C161.84 5.93998 161.748 6.33664 161.748 6.75998V7.43998C161.748 8.01998 161.848 8.51164 162.048 8.91498C162.251 9.31498 162.533 9.61998 162.893 9.82998C163.253 10.0366 163.671 10.14 164.148 10.14C164.458 10.14 164.738 10.0966 164.988 10.01C165.241 9.91998 165.46 9.78664 165.643 9.60998C165.826 9.42998 165.968 9.20664 166.068 8.93998L167.208 9.25998C167.088 9.64664 166.886 9.98664 166.603 10.28C166.32 10.57 165.97 10.7966 165.553 10.96C165.136 11.12 164.668 11.2 164.148 11.2ZM163.428 2.31998L164.648 -2.22943e-05H166.028L164.468 2.31998H163.428ZM172.463 3.35998V4.35998H168.483V3.35998H172.463ZM169.643 1.51998H170.823V8.83998C170.823 9.17331 170.871 9.42331 170.968 9.58998C171.068 9.75331 171.195 9.86331 171.348 9.91998C171.505 9.97331 171.67 9.99998 171.843 9.99998C171.973 9.99998 172.08 9.99331 172.163 9.97998C172.246 9.96331 172.313 9.94998 172.363 9.93998L172.603 11C172.523 11.03 172.411 11.06 172.268 11.09C172.125 11.1233 171.943 11.14 171.723 11.14C171.39 11.14 171.063 11.0683 170.743 10.925C170.426 10.7816 170.163 10.5633 169.953 10.27C169.746 9.97664 169.643 9.60664 169.643 9.15998V1.51998ZM174.238 11.04V3.35998H175.418V11.04H174.238ZM174.838 2.07998C174.608 2.07998 174.41 2.00164 174.243 1.84498C174.08 1.68831 173.998 1.49998 173.998 1.27998C173.998 1.05998 174.08 0.871645 174.243 0.714978C174.41 0.558311 174.608 0.479978 174.838 0.479978C175.068 0.479978 175.265 0.558311 175.428 0.714978C175.595 0.871645 175.678 1.05998 175.678 1.27998C175.678 1.49998 175.595 1.68831 175.428 1.84498C175.265 2.00164 175.068 2.07998 174.838 2.07998ZM180.919 3.35998V4.35998H176.939V3.35998H180.919ZM178.099 1.51998H179.279V8.83998C179.279 9.17331 179.328 9.42331 179.424 9.58998C179.524 9.75331 179.651 9.86331 179.804 9.91998C179.961 9.97331 180.126 9.99998 180.299 9.99998C180.429 9.99998 180.536 9.99331 180.619 9.97998C180.703 9.96331 180.769 9.94998 180.819 9.93998L181.059 11C180.979 11.03 180.868 11.06 180.724 11.09C180.581 11.1233 180.399 11.14 180.179 11.14C179.846 11.14 179.519 11.0683 179.199 10.925C178.883 10.7816 178.619 10.5633 178.409 10.27C178.203 9.97664 178.099 9.60664 178.099 9.15998V1.51998ZM182.694 11.04V3.35998H183.874V11.04H182.694ZM183.294 2.07998C183.064 2.07998 182.866 2.00164 182.699 1.84498C182.536 1.68831 182.454 1.49998 182.454 1.27998C182.454 1.05998 182.536 0.871645 182.699 0.714978C182.866 0.558311 183.064 0.479978 183.294 0.479978C183.524 0.479978 183.721 0.558311 183.884 0.714978C184.051 0.871645 184.134 1.05998 184.134 1.27998C184.134 1.49998 184.051 1.68831 183.884 1.84498C183.721 2.00164 183.524 2.07998 183.294 2.07998ZM189.156 11.2C188.462 11.2 187.854 11.035 187.331 10.705C186.811 10.375 186.404 9.91331 186.111 9.31998C185.821 8.72664 185.676 8.03331 185.676 7.23998C185.676 6.43998 185.821 5.74164 186.111 5.14498C186.404 4.54831 186.811 4.08498 187.331 3.75498C187.854 3.42498 188.462 3.25998 189.156 3.25998C189.849 3.25998 190.456 3.42498 190.976 3.75498C191.499 4.08498 191.906 4.54831 192.196 5.14498C192.489 5.74164 192.636 6.43998 192.636 7.23998C192.636 8.03331 192.489 8.72664 192.196 9.31998C191.906 9.91331 191.499 10.375 190.976 10.705C190.456 11.035 189.849 11.2 189.156 11.2ZM189.156 10.14C189.682 10.14 190.116 10.005 190.456 9.73498C190.796 9.46498 191.047 9.10998 191.211 8.66998C191.374 8.22998 191.456 7.75331 191.456 7.23998C191.456 6.72664 191.374 6.24831 191.211 5.80498C191.047 5.36164 190.796 5.00331 190.456 4.72998C190.116 4.45664 189.682 4.31998 189.156 4.31998C188.629 4.31998 188.196 4.45664 187.856 4.72998C187.516 5.00331 187.264 5.36164 187.101 5.80498C186.937 6.24831 186.856 6.72664 186.856 7.23998C186.856 7.75331 186.937 8.22998 187.101 8.66998C187.264 9.10998 187.516 9.46498 187.856 9.73498C188.196 10.005 188.629 10.14 189.156 10.14ZM195.617 6.41998V11.04H194.437V3.35998H195.577V4.55998H195.677C195.857 4.16998 196.13 3.85664 196.497 3.61998C196.864 3.37998 197.337 3.25998 197.917 3.25998C198.437 3.25998 198.892 3.36664 199.282 3.57998C199.672 3.78998 199.975 4.10998 200.192 4.53998C200.409 4.96664 200.517 5.50664 200.517 6.15998V11.04H199.337V6.23998C199.337 5.63664 199.18 5.16664 198.867 4.82998C198.554 4.48998 198.124 4.31998 197.577 4.31998C197.2 4.31998 196.864 4.40164 196.567 4.56498C196.274 4.72831 196.042 4.96664 195.872 5.27998C195.702 5.59331 195.617 5.97331 195.617 6.41998ZM207.813 6.41998V11.04H206.633V3.35998H207.773V4.55998H207.873C208.053 4.16998 208.326 3.85664 208.693 3.61998C209.06 3.37998 209.533 3.25998 210.113 3.25998C210.633 3.25998 211.088 3.36664 211.478 3.57998C211.868 3.78998 212.171 4.10998 212.388 4.53998C212.605 4.96664 212.713 5.50664 212.713 6.15998V11.04H211.533V6.23998C211.533 5.63664 211.376 5.16664 211.063 4.82998C210.75 4.48998 210.32 4.31998 209.773 4.31998C209.396 4.31998 209.06 4.40164 208.763 4.56498C208.47 4.72831 208.238 4.96664 208.068 5.27998C207.898 5.59331 207.813 5.97331 207.813 6.41998ZM217.989 11.2C217.296 11.2 216.688 11.035 216.164 10.705C215.644 10.375 215.238 9.91331 214.944 9.31998C214.654 8.72664 214.509 8.03331 214.509 7.23998C214.509 6.43998 214.654 5.74164 214.944 5.14498C215.238 4.54831 215.644 4.08498 216.164 3.75498C216.688 3.42498 217.296 3.25998 217.989 3.25998C218.683 3.25998 219.289 3.42498 219.809 3.75498C220.333 4.08498 220.739 4.54831 221.029 5.14498C221.323 5.74164 221.469 6.43998 221.469 7.23998C221.469 8.03331 221.323 8.72664 221.029 9.31998C220.739 9.91331 220.333 10.375 219.809 10.705C219.289 11.035 218.683 11.2 217.989 11.2ZM217.989 10.14C218.516 10.14 218.949 10.005 219.289 9.73498C219.629 9.46498 219.881 9.10998 220.044 8.66998C220.208 8.22998 220.289 7.75331 220.289 7.23998C220.289 6.72664 220.208 6.24831 220.044 5.80498C219.881 5.36164 219.629 5.00331 219.289 4.72998C218.949 4.45664 218.516 4.31998 217.989 4.31998C217.463 4.31998 217.029 4.45664 216.689 4.72998C216.349 5.00331 216.098 5.36164 215.934 5.80498C215.771 6.24831 215.689 6.72664 215.689 7.23998C215.689 7.75331 215.771 8.22998 215.934 8.66998C216.098 9.10998 216.349 9.46498 216.689 9.73498C217.029 10.005 217.463 10.14 217.989 10.14ZM228.111 7.89998V3.35998H229.291V11.04H228.111V9.73998H228.031C227.851 10.13 227.571 10.4616 227.191 10.735C226.811 11.005 226.331 11.14 225.751 11.14C225.271 11.14 224.844 11.035 224.471 10.825C224.097 10.6116 223.804 10.2916 223.591 9.86498C223.377 9.43498 223.271 8.89331 223.271 8.23998V3.35998H224.451V8.15998C224.451 8.71998 224.607 9.16664 224.921 9.49998C225.237 9.83331 225.641 9.99998 226.131 9.99998C226.424 9.99998 226.722 9.92498 227.026 9.77498C227.332 9.62498 227.589 9.39498 227.796 9.08498C228.006 8.77498 228.111 8.37998 228.111 7.89998ZM237.732 3.35998L234.892 11.04H233.692L230.852 3.35998H232.132L234.252 9.47998H234.332L236.452 3.35998H237.732ZM242.234 11.2C241.494 11.2 240.856 11.0366 240.319 10.71C239.786 10.38 239.374 9.91998 239.084 9.32998C238.798 8.73664 238.654 8.04664 238.654 7.25998C238.654 6.47331 238.798 5.77998 239.084 5.17998C239.374 4.57664 239.778 4.10664 240.294 3.76998C240.814 3.42998 241.421 3.25998 242.114 3.25998C242.514 3.25998 242.909 3.32664 243.299 3.45998C243.689 3.59331 244.044 3.80998 244.364 4.10998C244.684 4.40664 244.939 4.79998 245.129 5.28998C245.319 5.77998 245.414 6.38331 245.414 7.09998V7.59998H239.494V6.57998H244.214C244.214 6.14664 244.128 5.75998 243.954 5.41998C243.784 5.07998 243.541 4.81164 243.224 4.61498C242.911 4.41831 242.541 4.31998 242.114 4.31998C241.644 4.31998 241.238 4.43664 240.894 4.66998C240.554 4.89998 240.293 5.19998 240.109 5.56998C239.926 5.93998 239.834 6.33664 239.834 6.75998V7.43998C239.834 8.01998 239.934 8.51164 240.134 8.91498C240.338 9.31498 240.619 9.61998 240.979 9.82998C241.339 10.0366 241.758 10.14 242.234 10.14C242.544 10.14 242.824 10.0966 243.074 10.01C243.328 9.91998 243.546 9.78664 243.729 9.60998C243.913 9.42998 244.054 9.20664 244.154 8.93998L245.294 9.25998C245.174 9.64664 244.973 9.98664 244.689 10.28C244.406 10.57 244.056 10.7966 243.639 10.96C243.223 11.12 242.754 11.2 242.234 11.2ZM248.389 0.799978V11.04H247.209V0.799978H248.389ZM251.731 0.799978V11.04H250.551V0.799978H251.731ZM257.112 11.2C256.372 11.2 255.734 11.0366 255.197 10.71C254.664 10.38 254.252 9.91998 253.962 9.32998C253.675 8.73664 253.532 8.04664 253.532 7.25998C253.532 6.47331 253.675 5.77998 253.962 5.17998C254.252 4.57664 254.655 4.10664 255.172 3.76998C255.692 3.42998 256.299 3.25998 256.992 3.25998C257.392 3.25998 257.787 3.32664 258.177 3.45998C258.567 3.59331 258.922 3.80998 259.242 4.10998C259.562 4.40664 259.817 4.79998 260.007 5.28998C260.197 5.77998 260.292 6.38331 260.292 7.09998V7.59998H254.372V6.57998H259.092C259.092 6.14664 259.005 5.75998 258.832 5.41998C258.662 5.07998 258.419 4.81164 258.102 4.61498C257.789 4.41831 257.419 4.31998 256.992 4.31998C256.522 4.31998 256.115 4.43664 255.772 4.66998C255.432 4.89998 255.17 5.19998 254.987 5.56998C254.804 5.93998 254.712 6.33664 254.712 6.75998V7.43998C254.712 8.01998 254.812 8.51164 255.012 8.91498C255.215 9.31498 255.497 9.61998 255.857 9.82998C256.217 10.0366 256.635 10.14 257.112 10.14C257.422 10.14 257.702 10.0966 257.952 10.01C258.205 9.91998 258.424 9.78664 258.607 9.60998C258.79 9.42998 258.932 9.20664 259.032 8.93998L260.172 9.25998C260.052 9.64664 259.85 9.98664 259.567 10.28C259.284 10.57 258.934 10.7966 258.517 10.96C258.1 11.12 257.632 11.2 257.112 11.2ZM269.147 14.08C268.577 14.08 268.087 14.0066 267.677 13.86C267.267 13.7166 266.925 13.5266 266.652 13.29C266.382 13.0566 266.167 12.8066 266.007 12.54L266.947 11.88C267.054 12.02 267.189 12.18 267.352 12.36C267.515 12.5433 267.739 12.7016 268.022 12.835C268.309 12.9716 268.684 13.04 269.147 13.04C269.767 13.04 270.279 12.89 270.682 12.59C271.085 12.29 271.287 11.82 271.287 11.18V9.61998H271.187C271.1 9.75998 270.977 9.93331 270.817 10.14C270.66 10.3433 270.434 10.525 270.137 10.685C269.844 10.8416 269.447 10.92 268.947 10.92C268.327 10.92 267.77 10.7733 267.277 10.48C266.787 10.1866 266.399 9.75998 266.112 9.19998C265.829 8.63998 265.687 7.95998 265.687 7.15998C265.687 6.37331 265.825 5.68831 266.102 5.10498C266.379 4.51831 266.764 4.06498 267.257 3.74498C267.75 3.42164 268.32 3.25998 268.967 3.25998C269.467 3.25998 269.864 3.34331 270.157 3.50998C270.454 3.67331 270.68 3.85998 270.837 4.06998C270.997 4.27664 271.12 4.44664 271.207 4.57998H271.327V3.35998H272.467V11.26C272.467 11.92 272.317 12.4566 272.017 12.87C271.72 13.2866 271.32 13.5916 270.817 13.785C270.317 13.9816 269.76 14.08 269.147 14.08ZM269.107 9.85998C269.58 9.85998 269.98 9.75164 270.307 9.53498C270.634 9.31831 270.882 9.00664 271.052 8.59998C271.222 8.19331 271.307 7.70664 271.307 7.13998C271.307 6.58664 271.224 6.09831 271.057 5.67498C270.89 5.25164 270.644 4.91998 270.317 4.67998C269.99 4.43998 269.587 4.31998 269.107 4.31998C268.607 4.31998 268.19 4.44664 267.857 4.69998C267.527 4.95331 267.279 5.29331 267.112 5.71998C266.949 6.14664 266.867 6.61998 266.867 7.13998C266.867 7.67331 266.95 8.14498 267.117 8.55498C267.287 8.96164 267.537 9.28164 267.867 9.51498C268.2 9.74498 268.614 9.85998 269.107 9.85998ZM277.847 11.2C277.107 11.2 276.469 11.0366 275.932 10.71C275.399 10.38 274.987 9.91998 274.697 9.32998C274.41 8.73664 274.267 8.04664 274.267 7.25998C274.267 6.47331 274.41 5.77998 274.697 5.17998C274.987 4.57664 275.39 4.10664 275.907 3.76998C276.427 3.42998 277.034 3.25998 277.727 3.25998C278.127 3.25998 278.522 3.32664 278.912 3.45998C279.302 3.59331 279.657 3.80998 279.977 4.10998C280.297 4.40664 280.552 4.79998 280.742 5.28998C280.932 5.77998 281.027 6.38331 281.027 7.09998V7.59998H275.107V6.57998H279.827C279.827 6.14664 279.74 5.75998 279.567 5.41998C279.397 5.07998 279.154 4.81164 278.837 4.61498C278.524 4.41831 278.154 4.31998 277.727 4.31998C277.257 4.31998 276.85 4.43664 276.507 4.66998C276.167 4.89998 275.905 5.19998 275.722 5.56998C275.539 5.93998 275.447 6.33664 275.447 6.75998V7.43998C275.447 8.01998 275.547 8.51164 275.747 8.91498C275.95 9.31498 276.232 9.61998 276.592 9.82998C276.952 10.0366 277.37 10.14 277.847 10.14C278.157 10.14 278.437 10.0966 278.687 10.01C278.94 9.91998 279.159 9.78664 279.342 9.60998C279.525 9.42998 279.667 9.20664 279.767 8.93998L280.907 9.25998C280.787 9.64664 280.585 9.98664 280.302 10.28C280.019 10.57 279.669 10.7966 279.252 10.96C278.835 11.12 278.367 11.2 277.847 11.2ZM277.127 2.31998L278.347 -2.22943e-05H279.727L278.167 2.31998H277.127ZM284.002 6.41998V11.04H282.822V3.35998H283.962V4.55998H284.062C284.242 4.16998 284.515 3.85664 284.882 3.61998C285.249 3.37998 285.722 3.25998 286.302 3.25998C286.822 3.25998 287.277 3.36664 287.667 3.57998C288.057 3.78998 288.36 4.10998 288.577 4.53998C288.794 4.96664 288.902 5.50664 288.902 6.15998V11.04H287.722V6.23998C287.722 5.63664 287.565 5.16664 287.252 4.82998C286.939 4.48998 286.509 4.31998 285.962 4.31998C285.585 4.31998 285.249 4.40164 284.952 4.56498C284.659 4.72831 284.427 4.96664 284.257 5.27998C284.087 5.59331 284.002 5.97331 284.002 6.41998ZM294.278 11.2C293.538 11.2 292.9 11.0366 292.363 10.71C291.83 10.38 291.418 9.91998 291.128 9.32998C290.841 8.73664 290.698 8.04664 290.698 7.25998C290.698 6.47331 290.841 5.77998 291.128 5.17998C291.418 4.57664 291.821 4.10664 292.338 3.76998C292.858 3.42998 293.465 3.25998 294.158 3.25998C294.558 3.25998 294.953 3.32664 295.343 3.45998C295.733 3.59331 296.088 3.80998 296.408 4.10998C296.728 4.40664 296.983 4.79998 297.173 5.28998C297.363 5.77998 297.458 6.38331 297.458 7.09998V7.59998H291.538V6.57998H296.258C296.258 6.14664 296.171 5.75998 295.998 5.41998C295.828 5.07998 295.585 4.81164 295.268 4.61498C294.955 4.41831 294.585 4.31998 294.158 4.31998C293.688 4.31998 293.281 4.43664 292.938 4.66998C292.598 4.89998 292.336 5.19998 292.153 5.56998C291.97 5.93998 291.878 6.33664 291.878 6.75998V7.43998C291.878 8.01998 291.978 8.51164 292.178 8.91498C292.381 9.31498 292.663 9.61998 293.023 9.82998C293.383 10.0366 293.801 10.14 294.278 10.14C294.588 10.14 294.868 10.0966 295.118 10.01C295.371 9.91998 295.59 9.78664 295.773 9.60998C295.956 9.42998 296.098 9.20664 296.198 8.93998L297.338 9.25998C297.218 9.64664 297.016 9.98664 296.733 10.28C296.45 10.57 296.1 10.7966 295.683 10.96C295.266 11.12 294.798 11.2 294.278 11.2ZM293.558 2.31998L294.778 -2.22943e-05H296.158L294.598 2.31998H293.558ZM299.253 11.04V3.35998H300.393V4.51998H300.473C300.613 4.13998 300.866 3.83164 301.233 3.59498C301.6 3.35831 302.013 3.23998 302.473 3.23998C302.56 3.23998 302.668 3.24164 302.798 3.24498C302.928 3.24831 303.026 3.25331 303.093 3.25998V4.45998C303.053 4.44998 302.961 4.43498 302.818 4.41498C302.678 4.39164 302.53 4.37998 302.373 4.37998C302 4.37998 301.666 4.45831 301.373 4.61498C301.083 4.76831 300.853 4.98164 300.683 5.25498C300.516 5.52498 300.433 5.83331 300.433 6.17998V11.04H299.253ZM306.752 11.22C306.265 11.22 305.824 11.1283 305.427 10.945C305.03 10.7583 304.715 10.49 304.482 10.14C304.249 9.78664 304.132 9.35998 304.132 8.85998C304.132 8.41998 304.219 8.06331 304.392 7.78998C304.565 7.51331 304.797 7.29664 305.087 7.13998C305.377 6.98331 305.697 6.86664 306.047 6.78998C306.4 6.70998 306.755 6.64664 307.112 6.59998C307.579 6.53998 307.957 6.49498 308.247 6.46498C308.54 6.43164 308.754 6.37664 308.887 6.29998C309.024 6.22331 309.092 6.08998 309.092 5.89998V5.85998C309.092 5.36664 308.957 4.98331 308.687 4.70998C308.42 4.43664 308.015 4.29998 307.472 4.29998C306.909 4.29998 306.467 4.42331 306.147 4.66998C305.827 4.91664 305.602 5.17998 305.472 5.45998L304.352 5.05998C304.552 4.59331 304.819 4.22998 305.152 3.96998C305.489 3.70664 305.855 3.52331 306.252 3.41998C306.652 3.31331 307.045 3.25998 307.432 3.25998C307.679 3.25998 307.962 3.28998 308.282 3.34998C308.605 3.40664 308.917 3.52498 309.217 3.70498C309.52 3.88498 309.772 4.15664 309.972 4.51998C310.172 4.88331 310.272 5.36998 310.272 5.97998V11.04H309.092V9.99998H309.032C308.952 10.1666 308.819 10.345 308.632 10.535C308.445 10.725 308.197 10.8866 307.887 11.02C307.577 11.1533 307.199 11.22 306.752 11.22ZM306.932 10.16C307.399 10.16 307.792 10.0683 308.112 9.88498C308.435 9.70164 308.679 9.46498 308.842 9.17498C309.009 8.88498 309.092 8.57998 309.092 8.25998V7.17998C309.042 7.23998 308.932 7.29498 308.762 7.34498C308.595 7.39164 308.402 7.43331 308.182 7.46998C307.965 7.50331 307.754 7.53331 307.547 7.55998C307.344 7.58331 307.179 7.60331 307.052 7.61998C306.745 7.65998 306.459 7.72498 306.192 7.81498C305.929 7.90164 305.715 8.03331 305.552 8.20998C305.392 8.38331 305.312 8.61998 305.312 8.91998C305.312 9.32998 305.464 9.63998 305.767 9.84998C306.074 10.0566 306.462 10.16 306.932 10.16ZM315.766 3.35998V4.35998H311.786V3.35998H315.766ZM312.946 1.51998H314.126V8.83998C314.126 9.17331 314.174 9.42331 314.271 9.58998C314.371 9.75331 314.497 9.86331 314.651 9.91998C314.807 9.97331 314.972 9.99998 315.146 9.99998C315.276 9.99998 315.382 9.99331 315.466 9.97998C315.549 9.96331 315.616 9.94998 315.666 9.93998L315.906 11C315.826 11.03 315.714 11.06 315.571 11.09C315.427 11.1233 315.246 11.14 315.026 11.14C314.692 11.14 314.366 11.0683 314.046 10.925C313.729 10.7816 313.466 10.5633 313.256 10.27C313.049 9.97664 312.946 9.60664 312.946 9.15998V1.51998ZM317.541 11.04V3.35998H318.721V11.04H317.541ZM318.141 2.07998C317.911 2.07998 317.712 2.00164 317.546 1.84498C317.382 1.68831 317.301 1.49998 317.301 1.27998C317.301 1.05998 317.382 0.871645 317.546 0.714978C317.712 0.558311 317.911 0.479978 318.141 0.479978C318.371 0.479978 318.567 0.558311 318.731 0.714978C318.897 0.871645 318.981 1.05998 318.981 1.27998C318.981 1.49998 318.897 1.68831 318.731 1.84498C318.567 2.00164 318.371 2.07998 318.141 2.07998ZM324.002 11.2C323.309 11.2 322.7 11.035 322.177 10.705C321.657 10.375 321.25 9.91331 320.957 9.31998C320.667 8.72664 320.522 8.03331 320.522 7.23998C320.522 6.43998 320.667 5.74164 320.957 5.14498C321.25 4.54831 321.657 4.08498 322.177 3.75498C322.7 3.42498 323.309 3.25998 324.002 3.25998C324.695 3.25998 325.302 3.42498 325.822 3.75498C326.345 4.08498 326.752 4.54831 327.042 5.14498C327.335 5.74164 327.482 6.43998 327.482 7.23998C327.482 8.03331 327.335 8.72664 327.042 9.31998C326.752 9.91331 326.345 10.375 325.822 10.705C325.302 11.035 324.695 11.2 324.002 11.2ZM324.002 10.14C324.529 10.14 324.962 10.005 325.302 9.73498C325.642 9.46498 325.894 9.10998 326.057 8.66998C326.22 8.22998 326.302 7.75331 326.302 7.23998C326.302 6.72664 326.22 6.24831 326.057 5.80498C325.894 5.36164 325.642 5.00331 325.302 4.72998C324.962 4.45664 324.529 4.31998 324.002 4.31998C323.475 4.31998 323.042 4.45664 322.702 4.72998C322.362 5.00331 322.11 5.36164 321.947 5.80498C321.784 6.24831 321.702 6.72664 321.702 7.23998C321.702 7.75331 321.784 8.22998 321.947 8.66998C322.11 9.10998 322.362 9.46498 322.702 9.73498C323.042 10.005 323.475 10.14 324.002 10.14ZM330.463 6.41998V11.04H329.283V3.35998H330.423V4.55998H330.523C330.703 4.16998 330.976 3.85664 331.343 3.61998C331.71 3.37998 332.183 3.25998 332.763 3.25998C333.283 3.25998 333.738 3.36664 334.128 3.57998C334.518 3.78998 334.821 4.10998 335.038 4.53998C335.255 4.96664 335.363 5.50664 335.363 6.15998V11.04H334.183V6.23998C334.183 5.63664 334.026 5.16664 333.713 4.82998C333.4 4.48998 332.97 4.31998 332.423 4.31998C332.046 4.31998 331.71 4.40164 331.413 4.56498C331.12 4.72831 330.888 4.96664 330.718 5.27998C330.548 5.59331 330.463 5.97331 330.463 6.41998ZM338.379 11.12C338.133 11.12 337.921 11.0316 337.744 10.855C337.568 10.6783 337.479 10.4666 337.479 10.22C337.479 9.97331 337.568 9.76164 337.744 9.58498C337.921 9.40831 338.133 9.31998 338.379 9.31998C338.626 9.31998 338.838 9.40831 339.014 9.58498C339.191 9.76164 339.279 9.97331 339.279 10.22C339.279 10.3833 339.238 10.5333 339.154 10.67C339.074 10.8066 338.966 10.9166 338.829 11C338.696 11.08 338.546 11.12 338.379 11.12ZM-5.42359e-06 25.8H1.47999L4.95999 34.3H5.07999L8.55999 25.8H10.04V36.04H8.87999V28.26H8.77999L5.57999 36.04H4.45999L1.25999 28.26H1.15999V36.04H-5.42359e-06V25.8ZM14.6262 36.22C14.1396 36.22 13.6979 36.1283 13.3012 35.945C12.9046 35.7583 12.5896 35.49 12.3562 35.14C12.1229 34.7866 12.0062 34.36 12.0062 33.86C12.0062 33.42 12.0929 33.0633 12.2662 32.79C12.4396 32.5133 12.6712 32.2966 12.9612 32.14C13.2512 31.9833 13.5712 31.8666 13.9212 31.79C14.2746 31.71 14.6296 31.6466 14.9862 31.6C15.4529 31.54 15.8312 31.495 16.1212 31.465C16.4146 31.4316 16.6279 31.3766 16.7612 31.3C16.8979 31.2233 16.9662 31.09 16.9662 30.9V30.86C16.9662 30.3666 16.8312 29.9833 16.5612 29.71C16.2946 29.4366 15.8896 29.3 15.3462 29.3C14.7829 29.3 14.3412 29.4233 14.0212 29.67C13.7012 29.9166 13.4762 30.18 13.3462 30.46L12.2262 30.06C12.4262 29.5933 12.6929 29.23 13.0262 28.97C13.3629 28.7066 13.7296 28.5233 14.1262 28.42C14.5262 28.3133 14.9196 28.26 15.3062 28.26C15.5529 28.26 15.8362 28.29 16.1562 28.35C16.4796 28.4066 16.7912 28.525 17.0912 28.705C17.3946 28.885 17.6462 29.1566 17.8462 29.52C18.0462 29.8833 18.1462 30.37 18.1462 30.98V36.04H16.9662V35H16.9062C16.8262 35.1666 16.6929 35.345 16.5062 35.535C16.3196 35.725 16.0712 35.8866 15.7612 36.02C15.4512 36.1533 15.0729 36.22 14.6262 36.22ZM14.8062 35.16C15.2729 35.16 15.6662 35.0683 15.9862 34.885C16.3096 34.7016 16.5529 34.465 16.7162 34.175C16.8829 33.885 16.9662 33.58 16.9662 33.26V32.18C16.9162 32.24 16.8062 32.295 16.6362 32.345C16.4696 32.3916 16.2762 32.4333 16.0562 32.47C15.8396 32.5033 15.6279 32.5333 15.4212 32.56C15.2179 32.5833 15.0529 32.6033 14.9262 32.62C14.6196 32.66 14.3329 32.725 14.0662 32.815C13.8029 32.9016 13.5896 33.0333 13.4262 33.21C13.2662 33.3833 13.1862 33.62 13.1862 33.92C13.1862 34.33 13.3379 34.64 13.6412 34.85C13.9479 35.0566 14.3362 35.16 14.8062 35.16ZM23.64 28.36V29.36H19.66V28.36H23.64ZM20.82 26.52H22V33.84C22 34.1733 22.0483 34.4233 22.145 34.59C22.245 34.7533 22.3717 34.8633 22.525 34.92C22.6817 34.9733 22.8467 35 23.02 35C23.15 35 23.2567 34.9933 23.34 34.98C23.4233 34.9633 23.49 34.95 23.54 34.94L23.78 36C23.7 36.03 23.5883 36.06 23.445 36.09C23.3017 36.1233 23.12 36.14 22.9 36.14C22.5667 36.14 22.24 36.0683 21.92 35.925C21.6033 35.7816 21.34 35.5633 21.13 35.27C20.9233 34.9766 20.82 34.6066 20.82 34.16V26.52ZM28.4525 36.2C27.7325 36.2 27.1125 36.03 26.5925 35.69C26.0725 35.35 25.6725 34.8816 25.3925 34.285C25.1125 33.6883 24.9725 33.0066 24.9725 32.24C24.9725 31.46 25.1158 30.7716 25.4025 30.175C25.6925 29.575 26.0958 29.1066 26.6125 28.77C27.1325 28.43 27.7392 28.26 28.4325 28.26C28.9725 28.26 29.4592 28.36 29.8925 28.56C30.3258 28.76 30.6808 29.04 30.9575 29.4C31.2342 29.76 31.4058 30.18 31.4725 30.66H30.2925C30.2025 30.31 30.0025 30 29.6925 29.73C29.3858 29.4566 28.9725 29.32 28.4525 29.32C27.9925 29.32 27.5892 29.44 27.2425 29.68C26.8992 29.9166 26.6308 30.2516 26.4375 30.685C26.2475 31.115 26.1525 31.62 26.1525 32.2C26.1525 32.7933 26.2458 33.31 26.4325 33.75C26.6225 34.19 26.8892 34.5316 27.2325 34.775C27.5792 35.0183 27.9858 35.14 28.4525 35.14C28.7592 35.14 29.0375 35.0866 29.2875 34.98C29.5375 34.8733 29.7492 34.72 29.9225 34.52C30.0958 34.32 30.2192 34.08 30.2925 33.8H31.4725C31.4058 34.2533 31.2408 34.6616 30.9775 35.025C30.7175 35.385 30.3725 35.6716 29.9425 35.885C29.5158 36.095 29.0192 36.2 28.4525 36.2ZM34.3775 31.42V36.04H33.1975V25.8H34.3775V29.56H34.4775C34.6575 29.1633 34.9275 28.8483 35.2875 28.615C35.6508 28.3783 36.1342 28.26 36.7375 28.26C37.2608 28.26 37.7192 28.365 38.1125 28.575C38.5058 28.7816 38.8108 29.1 39.0275 29.53C39.2475 29.9566 39.3575 30.5 39.3575 31.16V36.04H38.1775V31.24C38.1775 30.63 38.0192 30.1583 37.7025 29.825C37.3892 29.4883 36.9542 29.32 36.3975 29.32C36.0108 29.32 35.6642 29.4016 35.3575 29.565C35.0542 29.7283 34.8142 29.9666 34.6375 30.28C34.4642 30.5933 34.3775 30.9733 34.3775 31.42ZM41.5162 36.04V28.36H42.6562V29.56H42.7562C42.9162 29.15 43.1746 28.8316 43.5312 28.605C43.8879 28.375 44.3162 28.26 44.8162 28.26C45.3229 28.26 45.7446 28.375 46.0812 28.605C46.4212 28.8316 46.6862 29.15 46.8762 29.56H46.9562C47.1529 29.1633 47.4479 28.8483 47.8412 28.615C48.2346 28.3783 48.7062 28.26 49.2562 28.26C49.9429 28.26 50.5046 28.475 50.9412 28.905C51.3779 29.3316 51.5962 29.9966 51.5962 30.9V36.04H50.4162V30.9C50.4162 30.3333 50.2612 29.9283 49.9512 29.685C49.6412 29.4416 49.2762 29.32 48.8562 29.32C48.3162 29.32 47.8979 29.4833 47.6012 29.81C47.3046 30.1333 47.1562 30.5433 47.1562 31.04V36.04H45.9562V30.78C45.9562 30.3433 45.8146 29.9916 45.5312 29.725C45.2479 29.455 44.8829 29.32 44.4362 29.32C44.1296 29.32 43.8429 29.4016 43.5762 29.565C43.3129 29.7283 43.0996 29.955 42.9362 30.245C42.7762 30.5316 42.6962 30.8633 42.6962 31.24V36.04H41.5162ZM56.0137 36.22C55.5271 36.22 55.0854 36.1283 54.6887 35.945C54.2921 35.7583 53.9771 35.49 53.7437 35.14C53.5104 34.7866 53.3937 34.36 53.3937 33.86C53.3937 33.42 53.4804 33.0633 53.6537 32.79C53.8271 32.5133 54.0587 32.2966 54.3487 32.14C54.6387 31.9833 54.9587 31.8666 55.3087 31.79C55.6621 31.71 56.0171 31.6466 56.3737 31.6C56.8404 31.54 57.2187 31.495 57.5087 31.465C57.8021 31.4316 58.0154 31.3766 58.1487 31.3C58.2854 31.2233 58.3537 31.09 58.3537 30.9V30.86C58.3537 30.3666 58.2187 29.9833 57.9487 29.71C57.6821 29.4366 57.2771 29.3 56.7337 29.3C56.1704 29.3 55.7287 29.4233 55.4087 29.67C55.0887 29.9166 54.8637 30.18 54.7337 30.46L53.6137 30.06C53.8137 29.5933 54.0804 29.23 54.4137 28.97C54.7504 28.7066 55.1171 28.5233 55.5137 28.42C55.9137 28.3133 56.3071 28.26 56.6937 28.26C56.9404 28.26 57.2237 28.29 57.5437 28.35C57.8671 28.4066 58.1787 28.525 58.4787 28.705C58.7821 28.885 59.0337 29.1566 59.2337 29.52C59.4337 29.8833 59.5337 30.37 59.5337 30.98V36.04H58.3537V35H58.2937C58.2137 35.1666 58.0804 35.345 57.8937 35.535C57.7071 35.725 57.4587 35.8866 57.1487 36.02C56.8387 36.1533 56.4604 36.22 56.0137 36.22ZM56.1937 35.16C56.6604 35.16 57.0537 35.0683 57.3737 34.885C57.6971 34.7016 57.9404 34.465 58.1037 34.175C58.2704 33.885 58.3537 33.58 58.3537 33.26V32.18C58.3037 32.24 58.1937 32.295 58.0237 32.345C57.8571 32.3916 57.6637 32.4333 57.4437 32.47C57.2271 32.5033 57.0154 32.5333 56.8087 32.56C56.6054 32.5833 56.4404 32.6033 56.3137 32.62C56.0071 32.66 55.7204 32.725 55.4537 32.815C55.1904 32.9016 54.9771 33.0333 54.8137 33.21C54.6537 33.3833 54.5737 33.62 54.5737 33.92C54.5737 34.33 54.7254 34.64 55.0287 34.85C55.3354 35.0566 55.7237 35.16 56.1937 35.16ZM62.7875 33.24L62.7675 31.78H63.0075L66.3675 28.36H67.8275L64.2475 31.98H64.1475L62.7875 33.24ZM61.6875 36.04V25.8H62.8675V36.04H61.6875ZM66.5675 36.04L63.5675 32.24L64.4075 31.42L68.0675 36.04H66.5675ZM69.3462 36.04V28.36H70.5262V36.04H69.3462ZM69.9462 27.08C69.7162 27.08 69.5179 27.0016 69.3512 26.845C69.1879 26.6883 69.1062 26.5 69.1062 26.28C69.1062 26.06 69.1879 25.8716 69.3512 25.715C69.5179 25.5583 69.7162 25.48 69.9462 25.48C70.1762 25.48 70.3729 25.5583 70.5362 25.715C70.7029 25.8716 70.7862 26.06 70.7862 26.28C70.7862 26.5 70.7029 26.6883 70.5362 26.845C70.3729 27.0016 70.1762 27.08 69.9462 27.08ZM73.8675 31.42V36.04H72.6875V28.36H73.8275V29.56H73.9275C74.1075 29.17 74.3808 28.8566 74.7475 28.62C75.1142 28.38 75.5875 28.26 76.1675 28.26C76.6875 28.26 77.1425 28.3666 77.5325 28.58C77.9225 28.79 78.2258 29.11 78.4425 29.54C78.6592 29.9666 78.7675 30.5066 78.7675 31.16V36.04H77.5875V31.24C77.5875 30.6366 77.4308 30.1666 77.1175 29.83C76.8042 29.49 76.3742 29.32 75.8275 29.32C75.4508 29.32 75.1142 29.4016 74.8175 29.565C74.5242 29.7283 74.2925 29.9666 74.1225 30.28C73.9525 30.5933 73.8675 30.9733 73.8675 31.42ZM84.0237 39.08C83.4537 39.08 82.9637 39.0066 82.5537 38.86C82.1437 38.7166 81.8021 38.5266 81.5287 38.29C81.2587 38.0566 81.0437 37.8066 80.8837 37.54L81.8237 36.88C81.9304 37.02 82.0654 37.18 82.2287 37.36C82.3921 37.5433 82.6154 37.7016 82.8987 37.835C83.1854 37.9716 83.5604 38.04 84.0237 38.04C84.6437 38.04 85.1554 37.89 85.5587 37.59C85.9621 37.29 86.1637 36.82 86.1637 36.18V34.62H86.0637C85.9771 34.76 85.8537 34.9333 85.6937 35.14C85.5371 35.3433 85.3104 35.525 85.0137 35.685C84.7204 35.8416 84.3237 35.92 83.8237 35.92C83.2037 35.92 82.6471 35.7733 82.1537 35.48C81.6637 35.1866 81.2754 34.76 80.9887 34.2C80.7054 33.64 80.5637 32.96 80.5637 32.16C80.5637 31.3733 80.7021 30.6883 80.9787 30.105C81.2554 29.5183 81.6404 29.065 82.1337 28.745C82.6271 28.4216 83.1971 28.26 83.8437 28.26C84.3437 28.26 84.7404 28.3433 85.0337 28.51C85.3304 28.6733 85.5571 28.86 85.7137 29.07C85.8737 29.2766 85.9971 29.4466 86.0837 29.58H86.2037V28.36H87.3437V36.26C87.3437 36.92 87.1937 37.4566 86.8937 37.87C86.5971 38.2866 86.1971 38.5916 85.6937 38.785C85.1937 38.9816 84.6371 39.08 84.0237 39.08ZM83.9837 34.86C84.4571 34.86 84.8571 34.7516 85.1837 34.535C85.5104 34.3183 85.7587 34.0066 85.9287 33.6C86.0987 33.1933 86.1837 32.7066 86.1837 32.14C86.1837 31.5866 86.1004 31.0983 85.9337 30.675C85.7671 30.2516 85.5204 29.92 85.1937 29.68C84.8671 29.44 84.4637 29.32 83.9837 29.32C83.4837 29.32 83.0671 29.4466 82.7337 29.7C82.4037 29.9533 82.1554 30.2933 81.9887 30.72C81.8254 31.1466 81.7437 31.62 81.7437 32.14C81.7437 32.6733 81.8271 33.145 81.9937 33.555C82.1637 33.9616 82.4137 34.2816 82.7437 34.515C83.0771 34.745 83.4904 34.86 83.9837 34.86ZM96.6837 36.2C95.9437 36.2 95.3054 36.0366 94.7687 35.71C94.2354 35.38 93.8237 34.92 93.5337 34.33C93.2471 33.7366 93.1037 33.0466 93.1037 32.26C93.1037 31.4733 93.2471 30.78 93.5337 30.18C93.8237 29.5766 94.2271 29.1066 94.7437 28.77C95.2637 28.43 95.8704 28.26 96.5637 28.26C96.9637 28.26 97.3587 28.3266 97.7487 28.46C98.1387 28.5933 98.4937 28.81 98.8137 29.11C99.1337 29.4066 99.3887 29.8 99.5787 30.29C99.7687 30.78 99.8637 31.3833 99.8637 32.1V32.6H93.9437V31.58H98.6637C98.6637 31.1466 98.5771 30.76 98.4037 30.42C98.2337 30.08 97.9904 29.8116 97.6737 29.615C97.3604 29.4183 96.9904 29.32 96.5637 29.32C96.0937 29.32 95.6871 29.4366 95.3437 29.67C95.0037 29.9 94.7421 30.2 94.5587 30.57C94.3754 30.94 94.2837 31.3366 94.2837 31.76V32.44C94.2837 33.02 94.3837 33.5116 94.5837 33.915C94.7871 34.315 95.0687 34.62 95.4287 34.83C95.7887 35.0366 96.2071 35.14 96.6837 35.14C96.9937 35.14 97.2737 35.0966 97.5237 35.01C97.7771 34.92 97.9954 34.7866 98.1787 34.61C98.3621 34.43 98.5037 34.2066 98.6037 33.94L99.7437 34.26C99.6237 34.6466 99.4221 34.9866 99.1387 35.28C98.8554 35.57 98.5054 35.7966 98.0887 35.96C97.6721 36.12 97.2037 36.2 96.6837 36.2ZM102.839 31.42V36.04H101.659V28.36H102.799V29.56H102.899C103.079 29.17 103.352 28.8566 103.719 28.62C104.085 28.38 104.559 28.26 105.139 28.26C105.659 28.26 106.114 28.3666 106.504 28.58C106.894 28.79 107.197 29.11 107.414 29.54C107.63 29.9666 107.739 30.5066 107.739 31.16V36.04H106.559V31.24C106.559 30.6366 106.402 30.1666 106.089 29.83C105.775 29.49 105.345 29.32 104.799 29.32C104.422 29.32 104.085 29.4016 103.789 29.565C103.495 29.7283 103.264 29.9666 103.094 30.28C102.924 30.5933 102.839 30.9733 102.839 31.42ZM117.195 28.36V29.36H113.215V28.36H117.195ZM114.375 26.52H115.555V33.84C115.555 34.1733 115.603 34.4233 115.7 34.59C115.8 34.7533 115.927 34.8633 116.08 34.92C116.237 34.9733 116.402 35 116.575 35C116.705 35 116.812 34.9933 116.895 34.98C116.978 34.9633 117.045 34.95 117.095 34.94L117.335 36C117.255 36.03 117.143 36.06 117 36.09C116.857 36.1233 116.675 36.14 116.455 36.14C116.122 36.14 115.795 36.0683 115.475 35.925C115.158 35.7816 114.895 35.5633 114.685 35.27C114.478 34.9766 114.375 34.6066 114.375 34.16V26.52ZM122.107 36.2C121.367 36.2 120.729 36.0366 120.192 35.71C119.659 35.38 119.247 34.92 118.957 34.33C118.671 33.7366 118.527 33.0466 118.527 32.26C118.527 31.4733 118.671 30.78 118.957 30.18C119.247 29.5766 119.651 29.1066 120.167 28.77C120.687 28.43 121.294 28.26 121.987 28.26C122.387 28.26 122.782 28.3266 123.172 28.46C123.562 28.5933 123.917 28.81 124.237 29.11C124.557 29.4066 124.812 29.8 125.002 30.29C125.192 30.78 125.287 31.3833 125.287 32.1V32.6H119.367V31.58H124.087C124.087 31.1466 124.001 30.76 123.827 30.42C123.657 30.08 123.414 29.8116 123.097 29.615C122.784 29.4183 122.414 29.32 121.987 29.32C121.517 29.32 121.111 29.4366 120.767 29.67C120.427 29.9 120.166 30.2 119.982 30.57C119.799 30.94 119.707 31.3366 119.707 31.76V32.44C119.707 33.02 119.807 33.5116 120.007 33.915C120.211 34.315 120.492 34.62 120.852 34.83C121.212 35.0366 121.631 35.14 122.107 35.14C122.417 35.14 122.697 35.0966 122.947 35.01C123.201 34.92 123.419 34.7866 123.602 34.61C123.786 34.43 123.927 34.2066 124.027 33.94L125.167 34.26C125.047 34.6466 124.846 34.9866 124.562 35.28C124.279 35.57 123.929 35.7966 123.512 35.96C123.096 36.12 122.627 36.2 122.107 36.2ZM127.082 36.04V28.36H128.222V29.56H128.322C128.482 29.15 128.741 28.8316 129.097 28.605C129.454 28.375 129.882 28.26 130.382 28.26C130.889 28.26 131.311 28.375 131.647 28.605C131.987 28.8316 132.252 29.15 132.442 29.56H132.522C132.719 29.1633 133.014 28.8483 133.407 28.615C133.801 28.3783 134.272 28.26 134.822 28.26C135.509 28.26 136.071 28.475 136.507 28.905C136.944 29.3316 137.162 29.9966 137.162 30.9V36.04H135.982V30.9C135.982 30.3333 135.827 29.9283 135.517 29.685C135.207 29.4416 134.842 29.32 134.422 29.32C133.882 29.32 133.464 29.4833 133.167 29.81C132.871 30.1333 132.722 30.5433 132.722 31.04V36.04H131.522V30.78C131.522 30.3433 131.381 29.9916 131.097 29.725C130.814 29.455 130.449 29.32 130.002 29.32C129.696 29.32 129.409 29.4016 129.142 29.565C128.879 29.7283 128.666 29.955 128.502 30.245C128.342 30.5316 128.262 30.8633 128.262 31.24V36.04H127.082ZM139.32 38.92V28.36H140.46V29.58H140.6C140.687 29.4466 140.807 29.2766 140.96 29.07C141.117 28.86 141.34 28.6733 141.63 28.51C141.923 28.3433 142.32 28.26 142.82 28.26C143.467 28.26 144.037 28.4216 144.53 28.745C145.023 29.0683 145.408 29.5266 145.685 30.12C145.962 30.7133 146.1 31.4133 146.1 32.22C146.1 33.0333 145.962 33.7383 145.685 34.335C145.408 34.9283 145.025 35.3883 144.535 35.715C144.045 36.0383 143.48 36.2 142.84 36.2C142.347 36.2 141.952 36.1183 141.655 35.955C141.358 35.7883 141.13 35.6 140.97 35.39C140.81 35.1766 140.687 35 140.6 34.86H140.5V38.92H139.32ZM140.48 32.2C140.48 32.78 140.565 33.2916 140.735 33.735C140.905 34.175 141.153 34.52 141.48 34.77C141.807 35.0166 142.207 35.14 142.68 35.14C143.173 35.14 143.585 35.01 143.915 34.75C144.248 34.4866 144.498 34.1333 144.665 33.69C144.835 33.2433 144.92 32.7466 144.92 32.2C144.92 31.66 144.837 31.1733 144.67 30.74C144.507 30.3033 144.258 29.9583 143.925 29.705C143.595 29.4483 143.18 29.32 142.68 29.32C142.2 29.32 141.797 29.4416 141.47 29.685C141.143 29.925 140.897 30.2616 140.73 30.695C140.563 31.125 140.48 31.6266 140.48 32.2ZM153.34 30.08L152.28 30.38C152.213 30.2033 152.115 30.0316 151.985 29.865C151.858 29.695 151.685 29.555 151.465 29.445C151.245 29.335 150.963 29.28 150.62 29.28C150.15 29.28 149.758 29.3883 149.445 29.605C149.135 29.8183 148.98 30.09 148.98 30.42C148.98 30.7133 149.087 30.945 149.3 31.115C149.513 31.285 149.847 31.4266 150.3 31.54L151.44 31.82C152.127 31.9866 152.638 32.2416 152.975 32.585C153.312 32.925 153.48 33.3633 153.48 33.9C153.48 34.34 153.353 34.7333 153.1 35.08C152.85 35.4266 152.5 35.7 152.05 35.9C151.6 36.1 151.077 36.2 150.48 36.2C149.697 36.2 149.048 36.03 148.535 35.69C148.022 35.35 147.697 34.8533 147.56 34.2L148.68 33.92C148.787 34.3333 148.988 34.6433 149.285 34.85C149.585 35.0566 149.977 35.16 150.46 35.16C151.01 35.16 151.447 35.0433 151.77 34.81C152.097 34.5733 152.26 34.29 152.26 33.96C152.26 33.6933 152.167 33.47 151.98 33.29C151.793 33.1066 151.507 32.97 151.12 32.88L149.84 32.58C149.137 32.4133 148.62 32.155 148.29 31.805C147.963 31.4516 147.8 31.01 147.8 30.48C147.8 30.0466 147.922 29.6633 148.165 29.33C148.412 28.9966 148.747 28.735 149.17 28.545C149.597 28.355 150.08 28.26 150.62 28.26C151.38 28.26 151.977 28.4266 152.41 28.76C152.847 29.0933 153.157 29.5333 153.34 30.08ZM159.216 36.04V28.36H160.356V29.52H160.436C160.576 29.14 160.83 28.8316 161.196 28.595C161.563 28.3583 161.976 28.24 162.436 28.24C162.523 28.24 162.631 28.2416 162.761 28.245C162.891 28.2483 162.99 28.2533 163.056 28.26V29.46C163.016 29.45 162.925 29.435 162.781 29.415C162.641 29.3916 162.493 29.38 162.336 29.38C161.963 29.38 161.63 29.4583 161.336 29.615C161.046 29.7683 160.816 29.9816 160.646 30.255C160.48 30.525 160.396 30.8333 160.396 31.18V36.04H159.216ZM167.441 36.2C166.701 36.2 166.063 36.0366 165.526 35.71C164.993 35.38 164.581 34.92 164.291 34.33C164.005 33.7366 163.861 33.0466 163.861 32.26C163.861 31.4733 164.005 30.78 164.291 30.18C164.581 29.5766 164.985 29.1066 165.501 28.77C166.021 28.43 166.628 28.26 167.321 28.26C167.721 28.26 168.116 28.3266 168.506 28.46C168.896 28.5933 169.251 28.81 169.571 29.11C169.891 29.4066 170.146 29.8 170.336 30.29C170.526 30.78 170.621 31.3833 170.621 32.1V32.6H164.701V31.58H169.421C169.421 31.1466 169.335 30.76 169.161 30.42C168.991 30.08 168.748 29.8116 168.431 29.615C168.118 29.4183 167.748 29.32 167.321 29.32C166.851 29.32 166.445 29.4366 166.101 29.67C165.761 29.9 165.5 30.2 165.316 30.57C165.133 30.94 165.041 31.3366 165.041 31.76V32.44C165.041 33.02 165.141 33.5116 165.341 33.915C165.545 34.315 165.826 34.62 166.186 34.83C166.546 35.0366 166.965 35.14 167.441 35.14C167.751 35.14 168.031 35.0966 168.281 35.01C168.535 34.92 168.753 34.7866 168.936 34.61C169.12 34.43 169.261 34.2066 169.361 33.94L170.501 34.26C170.381 34.6466 170.18 34.9866 169.896 35.28C169.613 35.57 169.263 35.7966 168.846 35.96C168.43 36.12 167.961 36.2 167.441 36.2ZM166.721 27.32L167.941 25H169.321L167.761 27.32H166.721ZM175.636 36.2C174.896 36.2 174.258 36.0366 173.721 35.71C173.188 35.38 172.776 34.92 172.486 34.33C172.2 33.7366 172.056 33.0466 172.056 32.26C172.056 31.4733 172.2 30.78 172.486 30.18C172.776 29.5766 173.18 29.1066 173.696 28.77C174.216 28.43 174.823 28.26 175.516 28.26C175.916 28.26 176.311 28.3266 176.701 28.46C177.091 28.5933 177.446 28.81 177.766 29.11C178.086 29.4066 178.341 29.8 178.531 30.29C178.721 30.78 178.816 31.3833 178.816 32.1V32.6H172.896V31.58H177.616C177.616 31.1466 177.53 30.76 177.356 30.42C177.186 30.08 176.943 29.8116 176.626 29.615C176.313 29.4183 175.943 29.32 175.516 29.32C175.046 29.32 174.64 29.4366 174.296 29.67C173.956 29.9 173.695 30.2 173.511 30.57C173.328 30.94 173.236 31.3366 173.236 31.76V32.44C173.236 33.02 173.336 33.5116 173.536 33.915C173.74 34.315 174.021 34.62 174.381 34.83C174.741 35.0366 175.16 35.14 175.636 35.14C175.946 35.14 176.226 35.0966 176.476 35.01C176.73 34.92 176.948 34.7866 177.131 34.61C177.315 34.43 177.456 34.2066 177.556 33.94L178.696 34.26C178.576 34.6466 178.375 34.9866 178.091 35.28C177.808 35.57 177.458 35.7966 177.041 35.96C176.625 36.12 176.156 36.2 175.636 36.2ZM181.791 25.8V36.04H180.611V25.8H181.791ZM185.712 34.64L185.632 35.18C185.576 35.56 185.489 35.9666 185.372 36.4C185.259 36.8333 185.141 37.2416 185.017 37.625C184.894 38.0083 184.792 38.3133 184.712 38.54H183.812C183.856 38.3266 183.912 38.045 183.982 37.695C184.052 37.345 184.122 36.9533 184.192 36.52C184.266 36.09 184.326 35.65 184.372 35.2L184.432 34.64H185.712ZM194.979 36.2C194.259 36.2 193.639 36.03 193.119 35.69C192.599 35.35 192.199 34.8816 191.919 34.285C191.639 33.6883 191.499 33.0066 191.499 32.24C191.499 31.46 191.642 30.7716 191.929 30.175C192.219 29.575 192.622 29.1066 193.139 28.77C193.659 28.43 194.265 28.26 194.959 28.26C195.499 28.26 195.985 28.36 196.419 28.56C196.852 28.76 197.207 29.04 197.484 29.4C197.76 29.76 197.932 30.18 197.999 30.66H196.819C196.729 30.31 196.529 30 196.219 29.73C195.912 29.4566 195.499 29.32 194.979 29.32C194.519 29.32 194.115 29.44 193.769 29.68C193.425 29.9166 193.157 30.2516 192.964 30.685C192.774 31.115 192.679 31.62 192.679 32.2C192.679 32.7933 192.772 33.31 192.959 33.75C193.149 34.19 193.415 34.5316 193.759 34.775C194.105 35.0183 194.512 35.14 194.979 35.14C195.285 35.14 195.564 35.0866 195.814 34.98C196.064 34.8733 196.275 34.72 196.449 34.52C196.622 34.32 196.745 34.08 196.819 33.8H197.999C197.932 34.2533 197.767 34.6616 197.504 35.025C197.244 35.385 196.899 35.6716 196.469 35.885C196.042 36.095 195.545 36.2 194.979 36.2ZM200.904 25.8V36.04H199.724V25.8H200.904ZM205.325 36.22C204.838 36.22 204.397 36.1283 204 35.945C203.603 35.7583 203.288 35.49 203.055 35.14C202.822 34.7866 202.705 34.36 202.705 33.86C202.705 33.42 202.792 33.0633 202.965 32.79C203.138 32.5133 203.37 32.2966 203.66 32.14C203.95 31.9833 204.27 31.8666 204.62 31.79C204.973 31.71 205.328 31.6466 205.685 31.6C206.152 31.54 206.53 31.495 206.82 31.465C207.113 31.4316 207.327 31.3766 207.46 31.3C207.597 31.2233 207.665 31.09 207.665 30.9V30.86C207.665 30.3666 207.53 29.9833 207.26 29.71C206.993 29.4366 206.588 29.3 206.045 29.3C205.482 29.3 205.04 29.4233 204.72 29.67C204.4 29.9166 204.175 30.18 204.045 30.46L202.925 30.06C203.125 29.5933 203.392 29.23 203.725 28.97C204.062 28.7066 204.428 28.5233 204.825 28.42C205.225 28.3133 205.618 28.26 206.005 28.26C206.252 28.26 206.535 28.29 206.855 28.35C207.178 28.4066 207.49 28.525 207.79 28.705C208.093 28.885 208.345 29.1566 208.545 29.52C208.745 29.8833 208.845 30.37 208.845 30.98V36.04H207.665V35H207.605C207.525 35.1666 207.392 35.345 207.205 35.535C207.018 35.725 206.77 35.8866 206.46 36.02C206.15 36.1533 205.772 36.22 205.325 36.22ZM205.505 35.16C205.972 35.16 206.365 35.0683 206.685 34.885C207.008 34.7016 207.252 34.465 207.415 34.175C207.582 33.885 207.665 33.58 207.665 33.26V32.18C207.615 32.24 207.505 32.295 207.335 32.345C207.168 32.3916 206.975 32.4333 206.755 32.47C206.538 32.5033 206.327 32.5333 206.12 32.56C205.917 32.5833 205.752 32.6033 205.625 32.62C205.318 32.66 205.032 32.725 204.765 32.815C204.502 32.9016 204.288 33.0333 204.125 33.21C203.965 33.3833 203.885 33.62 203.885 33.92C203.885 34.33 204.037 34.64 204.34 34.85C204.647 35.0566 205.035 35.16 205.505 35.16ZM216.439 30.08L215.379 30.38C215.312 30.2033 215.214 30.0316 215.084 29.865C214.957 29.695 214.784 29.555 214.564 29.445C214.344 29.335 214.062 29.28 213.719 29.28C213.249 29.28 212.857 29.3883 212.544 29.605C212.234 29.8183 212.079 30.09 212.079 30.42C212.079 30.7133 212.185 30.945 212.399 31.115C212.612 31.285 212.945 31.4266 213.399 31.54L214.539 31.82C215.225 31.9866 215.737 32.2416 216.074 32.585C216.41 32.925 216.579 33.3633 216.579 33.9C216.579 34.34 216.452 34.7333 216.199 35.08C215.949 35.4266 215.599 35.7 215.149 35.9C214.699 36.1 214.175 36.2 213.579 36.2C212.795 36.2 212.147 36.03 211.634 35.69C211.12 35.35 210.795 34.8533 210.659 34.2L211.779 33.92C211.885 34.3333 212.087 34.6433 212.384 34.85C212.684 35.0566 213.075 35.16 213.559 35.16C214.109 35.16 214.545 35.0433 214.869 34.81C215.195 34.5733 215.359 34.29 215.359 33.96C215.359 33.6933 215.265 33.47 215.079 33.29C214.892 33.1066 214.605 32.97 214.219 32.88L212.939 32.58C212.235 32.4133 211.719 32.155 211.389 31.805C211.062 31.4516 210.899 31.01 210.899 30.48C210.899 30.0466 211.02 29.6633 211.264 29.33C211.51 28.9966 211.845 28.735 212.269 28.545C212.695 28.355 213.179 28.26 213.719 28.26C214.479 28.26 215.075 28.4266 215.509 28.76C215.945 29.0933 216.255 29.5333 216.439 30.08ZM223.795 30.08L222.735 30.38C222.668 30.2033 222.57 30.0316 222.44 29.865C222.313 29.695 222.14 29.555 221.92 29.445C221.7 29.335 221.418 29.28 221.075 29.28C220.605 29.28 220.213 29.3883 219.9 29.605C219.59 29.8183 219.435 30.09 219.435 30.42C219.435 30.7133 219.542 30.945 219.755 31.115C219.968 31.285 220.302 31.4266 220.755 31.54L221.895 31.82C222.582 31.9866 223.093 32.2416 223.43 32.585C223.767 32.925 223.935 33.3633 223.935 33.9C223.935 34.34 223.808 34.7333 223.555 35.08C223.305 35.4266 222.955 35.7 222.505 35.9C222.055 36.1 221.532 36.2 220.935 36.2C220.152 36.2 219.503 36.03 218.99 35.69C218.477 35.35 218.152 34.8533 218.015 34.2L219.135 33.92C219.242 34.3333 219.443 34.6433 219.74 34.85C220.04 35.0566 220.432 35.16 220.915 35.16C221.465 35.16 221.902 35.0433 222.225 34.81C222.552 34.5733 222.715 34.29 222.715 33.96C222.715 33.6933 222.622 33.47 222.435 33.29C222.248 33.1066 221.962 32.97 221.575 32.88L220.295 32.58C219.592 32.4133 219.075 32.155 218.745 31.805C218.418 31.4516 218.255 31.01 218.255 30.48C218.255 30.0466 218.377 29.6633 218.62 29.33C218.867 28.9966 219.202 28.735 219.625 28.545C220.052 28.355 220.535 28.26 221.075 28.26C221.835 28.26 222.432 28.4266 222.865 28.76C223.302 29.0933 223.612 29.5333 223.795 30.08ZM228.931 36.2C228.191 36.2 227.553 36.0366 227.016 35.71C226.483 35.38 226.071 34.92 225.781 34.33C225.495 33.7366 225.351 33.0466 225.351 32.26C225.351 31.4733 225.495 30.78 225.781 30.18C226.071 29.5766 226.475 29.1066 226.991 28.77C227.511 28.43 228.118 28.26 228.811 28.26C229.211 28.26 229.606 28.3266 229.996 28.46C230.386 28.5933 230.741 28.81 231.061 29.11C231.381 29.4066 231.636 29.8 231.826 30.29C232.016 30.78 232.111 31.3833 232.111 32.1V32.6H226.191V31.58H230.911C230.911 31.1466 230.825 30.76 230.651 30.42C230.481 30.08 230.238 29.8116 229.921 29.615C229.608 29.4183 229.238 29.32 228.811 29.32C228.341 29.32 227.935 29.4366 227.591 29.67C227.251 29.9 226.99 30.2 226.806 30.57C226.623 30.94 226.531 31.3366 226.531 31.76V32.44C226.531 33.02 226.631 33.5116 226.831 33.915C227.035 34.315 227.316 34.62 227.676 34.83C228.036 35.0366 228.455 35.14 228.931 35.14C229.241 35.14 229.521 35.0966 229.771 35.01C230.025 34.92 230.243 34.7866 230.426 34.61C230.61 34.43 230.751 34.2066 230.851 33.94L231.991 34.26C231.871 34.6466 231.67 34.9866 231.386 35.28C231.103 35.57 230.753 35.7966 230.336 35.96C229.92 36.12 229.451 36.2 228.931 36.2ZM233.906 36.04V28.36H235.046V29.56H235.146C235.306 29.15 235.565 28.8316 235.921 28.605C236.278 28.375 236.706 28.26 237.206 28.26C237.713 28.26 238.135 28.375 238.471 28.605C238.811 28.8316 239.076 29.15 239.266 29.56H239.346C239.543 29.1633 239.838 28.8483 240.231 28.615C240.625 28.3783 241.096 28.26 241.646 28.26C242.333 28.26 242.895 28.475 243.331 28.905C243.768 29.3316 243.986 29.9966 243.986 30.9V36.04H242.806V30.9C242.806 30.3333 242.651 29.9283 242.341 29.685C242.031 29.4416 241.666 29.32 241.246 29.32C240.706 29.32 240.288 29.4833 239.991 29.81C239.695 30.1333 239.546 30.5433 239.546 31.04V36.04H238.346V30.78C238.346 30.3433 238.205 29.9916 237.921 29.725C237.638 29.455 237.273 29.32 236.826 29.32C236.52 29.32 236.233 29.4016 235.966 29.565C235.703 29.7283 235.49 29.955 235.326 30.245C235.166 30.5316 235.086 30.8633 235.086 31.24V36.04H233.906ZM249.364 36.2C248.624 36.2 247.985 36.0366 247.449 35.71C246.915 35.38 246.504 34.92 246.214 34.33C245.927 33.7366 245.784 33.0466 245.784 32.26C245.784 31.4733 245.927 30.78 246.214 30.18C246.504 29.5766 246.907 29.1066 247.424 28.77C247.944 28.43 248.55 28.26 249.244 28.26C249.644 28.26 250.039 28.3266 250.429 28.46C250.819 28.5933 251.174 28.81 251.494 29.11C251.814 29.4066 252.069 29.8 252.259 30.29C252.449 30.78 252.544 31.3833 252.544 32.1V32.6H246.624V31.58H251.344C251.344 31.1466 251.257 30.76 251.084 30.42C250.914 30.08 250.67 29.8116 250.354 29.615C250.04 29.4183 249.67 29.32 249.244 29.32C248.774 29.32 248.367 29.4366 248.024 29.67C247.684 29.9 247.422 30.2 247.239 30.57C247.055 30.94 246.964 31.3366 246.964 31.76V32.44C246.964 33.02 247.064 33.5116 247.264 33.915C247.467 34.315 247.749 34.62 248.109 34.83C248.469 35.0366 248.887 35.14 249.364 35.14C249.674 35.14 249.954 35.0966 250.204 35.01C250.457 34.92 250.675 34.7866 250.859 34.61C251.042 34.43 251.184 34.2066 251.284 33.94L252.424 34.26C252.304 34.6466 252.102 34.9866 251.819 35.28C251.535 35.57 251.185 35.7966 250.769 35.96C250.352 36.12 249.884 36.2 249.364 36.2ZM255.519 31.42V36.04H254.339V28.36H255.479V29.56H255.579C255.759 29.17 256.032 28.8566 256.399 28.62C256.765 28.38 257.239 28.26 257.819 28.26C258.339 28.26 258.794 28.3666 259.184 28.58C259.574 28.79 259.877 29.11 260.094 29.54C260.31 29.9666 260.419 30.5066 260.419 31.16V36.04H259.239V31.24C259.239 30.6366 259.082 30.1666 258.769 29.83C258.455 29.49 258.025 29.32 257.479 29.32C257.102 29.32 256.765 29.4016 256.469 29.565C256.175 29.7283 255.944 29.9666 255.774 30.28C255.604 30.5933 255.519 30.9733 255.519 31.42ZM265.915 28.36V29.36H261.935V28.36H265.915ZM263.095 26.52H264.275V33.84C264.275 34.1733 264.323 34.4233 264.42 34.59C264.52 34.7533 264.647 34.8633 264.8 34.92C264.957 34.9733 265.122 35 265.295 35C265.425 35 265.532 34.9933 265.615 34.98C265.698 34.9633 265.765 34.95 265.815 34.94L266.055 36C265.975 36.03 265.863 36.06 265.72 36.09C265.577 36.1233 265.395 36.14 265.175 36.14C264.842 36.14 264.515 36.0683 264.195 35.925C263.878 35.7816 263.615 35.5633 263.405 35.27C263.198 34.9766 263.095 34.6066 263.095 34.16V26.52ZM274.55 36.2C273.91 36.2 273.345 36.0383 272.855 35.715C272.365 35.3883 271.982 34.9283 271.705 34.335C271.428 33.7383 271.29 33.0333 271.29 32.22C271.29 31.4133 271.428 30.7133 271.705 30.12C271.982 29.5266 272.367 29.0683 272.86 28.745C273.353 28.4216 273.923 28.26 274.57 28.26C275.07 28.26 275.465 28.3433 275.755 28.51C276.048 28.6733 276.272 28.86 276.425 29.07C276.582 29.2766 276.703 29.4466 276.79 29.58H276.89V25.8H278.07V36.04H276.93V34.86H276.79C276.703 35 276.58 35.1766 276.42 35.39C276.26 35.6 276.032 35.7883 275.735 35.955C275.438 36.1183 275.043 36.2 274.55 36.2ZM274.71 35.14C275.183 35.14 275.583 35.0166 275.91 34.77C276.237 34.52 276.485 34.175 276.655 33.735C276.825 33.2916 276.91 32.78 276.91 32.2C276.91 31.6266 276.827 31.125 276.66 30.695C276.493 30.2616 276.247 29.925 275.92 29.685C275.593 29.4416 275.19 29.32 274.71 29.32C274.21 29.32 273.793 29.4483 273.46 29.705C273.13 29.9583 272.882 30.3033 272.715 30.74C272.552 31.1733 272.47 31.66 272.47 32.2C272.47 32.7466 272.553 33.2433 272.72 33.69C272.89 34.1333 273.14 34.4866 273.47 34.75C273.803 35.01 274.217 35.14 274.71 35.14ZM281.155 38.92C280.955 38.92 280.777 38.9033 280.62 38.87C280.463 38.84 280.355 38.81 280.295 38.78L280.595 37.74C280.882 37.8133 281.135 37.84 281.355 37.82C281.575 37.8 281.77 37.7016 281.94 37.525C282.113 37.3516 282.272 37.07 282.415 36.68L282.635 36.08L279.795 28.36H281.075L283.195 34.48H283.275L285.395 28.36H286.675L283.415 37.16C283.268 37.5566 283.087 37.885 282.87 38.145C282.653 38.4083 282.402 38.6033 282.115 38.73C281.832 38.8566 281.512 38.92 281.155 38.92ZM289.412 31.42V36.04H288.232V28.36H289.372V29.56H289.472C289.652 29.17 289.926 28.8566 290.292 28.62C290.659 28.38 291.132 28.26 291.712 28.26C292.232 28.26 292.687 28.3666 293.077 28.58C293.467 28.79 293.771 29.11 293.987 29.54C294.204 29.9666 294.312 30.5066 294.312 31.16V36.04H293.132V31.24C293.132 30.6366 292.976 30.1666 292.662 29.83C292.349 29.49 291.919 29.32 291.372 29.32C290.996 29.32 290.659 29.4016 290.362 29.565C290.069 29.7283 289.837 29.9666 289.667 30.28C289.497 30.5933 289.412 30.9733 289.412 31.42ZM298.729 36.22C298.242 36.22 297.8 36.1283 297.404 35.945C297.007 35.7583 296.692 35.49 296.459 35.14C296.225 34.7866 296.109 34.36 296.109 33.86C296.109 33.42 296.195 33.0633 296.369 32.79C296.542 32.5133 296.774 32.2966 297.064 32.14C297.354 31.9833 297.674 31.8666 298.024 31.79C298.377 31.71 298.732 31.6466 299.089 31.6C299.555 31.54 299.934 31.495 300.224 31.465C300.517 31.4316 300.73 31.3766 300.864 31.3C301 31.2233 301.069 31.09 301.069 30.9V30.86C301.069 30.3666 300.934 29.9833 300.664 29.71C300.397 29.4366 299.992 29.3 299.449 29.3C298.885 29.3 298.444 29.4233 298.124 29.67C297.804 29.9166 297.579 30.18 297.449 30.46L296.329 30.06C296.529 29.5933 296.795 29.23 297.129 28.97C297.465 28.7066 297.832 28.5233 298.229 28.42C298.629 28.3133 299.022 28.26 299.409 28.26C299.655 28.26 299.939 28.29 300.259 28.35C300.582 28.4066 300.894 28.525 301.194 28.705C301.497 28.885 301.749 29.1566 301.949 29.52C302.149 29.8833 302.249 30.37 302.249 30.98V36.04H301.069V35H301.009C300.929 35.1666 300.795 35.345 300.609 35.535C300.422 35.725 300.174 35.8866 299.864 36.02C299.554 36.1533 299.175 36.22 298.729 36.22ZM298.909 35.16C299.375 35.16 299.769 35.0683 300.089 34.885C300.412 34.7016 300.655 34.465 300.819 34.175C300.985 33.885 301.069 33.58 301.069 33.26V32.18C301.019 32.24 300.909 32.295 300.739 32.345C300.572 32.3916 300.379 32.4333 300.159 32.47C299.942 32.5033 299.73 32.5333 299.524 32.56C299.32 32.5833 299.155 32.6033 299.029 32.62C298.722 32.66 298.435 32.725 298.169 32.815C297.905 32.9016 297.692 33.0333 297.529 33.21C297.369 33.3833 297.289 33.62 297.289 33.92C297.289 34.33 297.44 34.64 297.744 34.85C298.05 35.0566 298.439 35.16 298.909 35.16ZM304.403 36.04V28.36H305.543V29.56H305.643C305.803 29.15 306.061 28.8316 306.418 28.605C306.774 28.375 307.203 28.26 307.703 28.26C308.209 28.26 308.631 28.375 308.968 28.605C309.308 28.8316 309.573 29.15 309.763 29.56H309.843C310.039 29.1633 310.334 28.8483 310.728 28.615C311.121 28.3783 311.593 28.26 312.143 28.26C312.829 28.26 313.391 28.475 313.828 28.905C314.264 29.3316 314.483 29.9966 314.483 30.9V36.04H313.303V30.9C313.303 30.3333 313.148 29.9283 312.838 29.685C312.528 29.4416 312.163 29.32 311.743 29.32C311.203 29.32 310.784 29.4833 310.488 29.81C310.191 30.1333 310.043 30.5433 310.043 31.04V36.04H308.843V30.78C308.843 30.3433 308.701 29.9916 308.418 29.725C308.134 29.455 307.769 29.32 307.323 29.32C307.016 29.32 306.729 29.4016 306.463 29.565C306.199 29.7283 305.986 29.955 305.823 30.245C305.663 30.5316 305.583 30.8633 305.583 31.24V36.04H304.403ZM316.64 36.04V28.36H317.82V36.04H316.64ZM317.24 27.08C317.01 27.08 316.812 27.0016 316.645 26.845C316.482 26.6883 316.4 26.5 316.4 26.28C316.4 26.06 316.482 25.8716 316.645 25.715C316.812 25.5583 317.01 25.48 317.24 25.48C317.47 25.48 317.667 25.5583 317.83 25.715C317.997 25.8716 318.08 26.06 318.08 26.28C318.08 26.5 317.997 26.6883 317.83 26.845C317.667 27.0016 317.47 27.08 317.24 27.08ZM325.221 38.92V34.86H325.121C325.035 35 324.911 35.1766 324.751 35.39C324.591 35.6 324.363 35.7883 324.066 35.955C323.77 36.1183 323.375 36.2 322.881 36.2C322.241 36.2 321.676 36.0383 321.186 35.715C320.696 35.3883 320.313 34.9283 320.036 34.335C319.76 33.7383 319.621 33.0333 319.621 32.22C319.621 31.4133 319.76 30.7133 320.036 30.12C320.313 29.5266 320.698 29.0683 321.191 28.745C321.685 28.4216 322.255 28.26 322.901 28.26C323.401 28.26 323.796 28.3433 324.086 28.51C324.38 28.6733 324.603 28.86 324.756 29.07C324.913 29.2766 325.035 29.4466 325.121 29.58H325.261V28.36H326.401V38.92H325.221ZM323.041 35.14C323.515 35.14 323.915 35.0166 324.241 34.77C324.568 34.52 324.816 34.175 324.986 33.735C325.156 33.2916 325.241 32.78 325.241 32.2C325.241 31.6266 325.158 31.125 324.991 30.695C324.825 30.2616 324.578 29.925 324.251 29.685C323.925 29.4416 323.521 29.32 323.041 29.32C322.541 29.32 322.125 29.4483 321.791 29.705C321.461 29.9583 321.213 30.3033 321.046 30.74C320.883 31.1733 320.801 31.66 320.801 32.2C320.801 32.7466 320.885 33.2433 321.051 33.69C321.221 34.1333 321.471 34.4866 321.801 34.75C322.135 35.01 322.548 35.14 323.041 35.14ZM333.401 32.9V28.36H334.581V36.04H333.401V34.74H333.321C333.141 35.13 332.861 35.4616 332.481 35.735C332.101 36.005 331.621 36.14 331.041 36.14C330.561 36.14 330.135 36.035 329.761 35.825C329.388 35.6116 329.095 35.2916 328.881 34.865C328.668 34.435 328.561 33.8933 328.561 33.24V28.36H329.741V33.16C329.741 33.72 329.898 34.1666 330.211 34.5C330.528 34.8333 330.931 35 331.421 35C331.715 35 332.013 34.925 332.316 34.775C332.623 34.625 332.88 34.395 333.086 34.085C333.296 33.775 333.401 33.38 333.401 32.9ZM339.962 36.2C339.222 36.2 338.584 36.0366 338.047 35.71C337.514 35.38 337.102 34.92 336.812 34.33C336.526 33.7366 336.382 33.0466 336.382 32.26C336.382 31.4733 336.526 30.78 336.812 30.18C337.102 29.5766 337.506 29.1066 338.022 28.77C338.542 28.43 339.149 28.26 339.842 28.26C340.242 28.26 340.637 28.3266 341.027 28.46C341.417 28.5933 341.772 28.81 342.092 29.11C342.412 29.4066 342.667 29.8 342.857 30.29C343.047 30.78 343.142 31.3833 343.142 32.1V32.6H337.222V31.58H341.942C341.942 31.1466 341.856 30.76 341.682 30.42C341.512 30.08 341.269 29.8116 340.952 29.615C340.639 29.4183 340.269 29.32 339.842 29.32C339.372 29.32 338.966 29.4366 338.622 29.67C338.282 29.9 338.021 30.2 337.837 30.57C337.654 30.94 337.562 31.3366 337.562 31.76V32.44C337.562 33.02 337.662 33.5116 337.862 33.915C338.066 34.315 338.347 34.62 338.707 34.83C339.067 35.0366 339.486 35.14 339.962 35.14C340.272 35.14 340.552 35.0966 340.802 35.01C341.056 34.92 341.274 34.7866 341.457 34.61C341.641 34.43 341.782 34.2066 341.882 33.94L343.022 34.26C342.902 34.6466 342.701 34.9866 342.417 35.28C342.134 35.57 341.784 35.7966 341.367 35.96C340.951 36.12 340.482 36.2 339.962 36.2ZM345.797 36.12C345.551 36.12 345.339 36.0316 345.162 35.855C344.986 35.6783 344.897 35.4666 344.897 35.22C344.897 34.9733 344.986 34.7616 345.162 34.585C345.339 34.4083 345.551 34.32 345.797 34.32C346.044 34.32 346.256 34.4083 346.432 34.585C346.609 34.7616 346.697 34.9733 346.697 35.22C346.697 35.3833 346.656 35.5333 346.572 35.67C346.492 35.8066 346.384 35.9166 346.247 36C346.114 36.08 345.964 36.12 345.797 36.12Z" fill="#AFAFC8" fill-opacity="0.6"/>
</svg>
