<svg width="11" height="11" viewBox="0 0 11 11" fill="none" xmlns="http://www.w3.org/2000/svg">
<g clip-path="url(#clip0_1_143)">
<path d="M1.83331 6.41666C1.74658 6.41696 1.66154 6.39264 1.58808 6.34653C1.51462 6.30041 1.45575 6.23441 1.41831 6.15617C1.38087 6.07793 1.3664 5.99068 1.37658 5.90455C1.38676 5.81841 1.42117 5.73693 1.47581 5.66958L6.01331 0.994577C6.04735 0.955289 6.09373 0.92874 6.14484 0.919288C6.19596 0.909835 6.24877 0.918041 6.2946 0.942558C6.34044 0.967075 6.37658 1.00645 6.39709 1.05421C6.4176 1.10197 6.42126 1.15529 6.40748 1.20541L5.52748 3.96458C5.50153 4.03403 5.49281 4.10873 5.50208 4.18229C5.51135 4.25584 5.53832 4.32606 5.58068 4.3869C5.62305 4.44774 5.67954 4.4974 5.74531 4.53161C5.81108 4.56582 5.88417 4.58357 5.95831 4.58333H9.16664C9.25338 4.58303 9.33841 4.60735 9.41187 4.65346C9.48533 4.69957 9.5442 4.76558 9.58164 4.84382C9.61908 4.92205 9.63355 5.00931 9.62337 5.09544C9.61319 5.18158 9.57879 5.26305 9.52414 5.33041L4.98664 10.0054C4.95261 10.0447 4.90622 10.0712 4.85511 10.0807C4.804 10.0902 4.75119 10.0819 4.70535 10.0574C4.65951 10.0329 4.62337 9.99354 4.60286 9.94578C4.58235 9.89801 4.57869 9.8447 4.59248 9.79458L5.47248 7.03541C5.49842 6.96596 5.50714 6.89126 5.49787 6.8177C5.4886 6.74414 5.46163 6.67393 5.41927 6.61309C5.3769 6.55225 5.32041 6.50259 5.25464 6.46838C5.18887 6.43417 5.11578 6.41642 5.04164 6.41666H1.83331Z" stroke="#F59E0B" stroke-width="0.916667" stroke-linecap="round" stroke-linejoin="round"/>
</g>
<defs>
<clipPath id="clip0_1_143">
<rect width="11" height="11" fill="white"/>
</clipPath>
</defs>
</svg>
