<svg width="28" height="28" viewBox="0 0 28 28" fill="none" xmlns="http://www.w3.org/2000/svg">
<path d="M9.91665 16.9167C10.6902 16.9167 11.4321 16.6094 11.979 16.0624C12.526 15.5154 12.8333 14.7735 12.8333 14C12.8333 12.39 12.25 11.6667 11.6666 10.5C10.416 7.99983 11.4053 5.77033 14 3.5C14.5833 6.41667 16.3333 9.21667 18.6666 11.0833C21 12.95 22.1666 15.1667 22.1666 17.5C22.1666 18.5725 21.9554 19.6344 21.545 20.6252C21.1346 21.6161 20.533 22.5164 19.7747 23.2747C19.0163 24.033 18.1161 24.6346 17.1252 25.045C16.1344 25.4554 15.0724 25.6667 14 25.6667C12.9275 25.6667 11.8656 25.4554 10.8747 25.045C9.88391 24.6346 8.98362 24.033 8.22527 23.2747C7.46693 22.5164 6.86538 21.6161 6.45496 20.6252C6.04455 19.6344 5.83331 18.5725 5.83331 17.5C5.83331 16.1548 6.33848 14.8237 6.99998 14C6.99998 14.7735 7.30727 15.5154 7.85425 16.0624C8.40123 16.6094 9.1431 16.9167 9.91665 16.9167Z" fill="#F97316" stroke="#F97316" stroke-width="2.33333" stroke-linecap="round" stroke-linejoin="round"/>
</svg>
