<svg width="13" height="13" viewBox="0 0 13 13" fill="none" xmlns="http://www.w3.org/2000/svg">
<path d="M7.87372 11.7466C7.8943 11.7979 7.93008 11.8416 7.97625 11.872C8.02242 11.9024 8.07677 11.9179 8.13201 11.9165C8.18726 11.915 8.24074 11.8968 8.2853 11.8641C8.32985 11.8314 8.36334 11.7858 8.38127 11.7336L11.9021 1.44191C11.9194 1.39391 11.9227 1.34197 11.9116 1.29217C11.9005 1.24236 11.8755 1.19674 11.8394 1.16066C11.8033 1.12458 11.7577 1.09952 11.7079 1.08841C11.6581 1.0773 11.6061 1.08061 11.5581 1.09795L1.26647 4.61878C1.2142 4.63671 1.16866 4.6702 1.13597 4.71475C1.10328 4.7593 1.085 4.81279 1.08358 4.86803C1.08217 4.92328 1.09769 4.97763 1.12806 5.0238C1.15842 5.06997 1.20219 5.10574 1.25347 5.12632L5.54889 6.84882C5.68468 6.90319 5.80805 6.98449 5.91157 7.08782C6.01509 7.19116 6.09661 7.31438 6.15122 7.45007L7.87372 11.7466Z" stroke="#FFA040" stroke-width="1.08333" stroke-linecap="round" stroke-linejoin="round"/>
<path d="M11.8376 1.16296L5.91174 7.08826" stroke="#FFA040" stroke-width="1.08333" stroke-linecap="round" stroke-linejoin="round"/>
</svg>
