<svg width="26" height="26" viewBox="0 0 26 26" fill="none" xmlns="http://www.w3.org/2000/svg">
<path d="M6.49996 9.74992H4.87496C4.15666 9.74992 3.46779 9.46458 2.95988 8.95667C2.45197 8.44876 2.16663 7.75988 2.16663 7.04159C2.16663 6.32329 2.45197 5.63442 2.95988 5.1265C3.46779 4.61859 4.15666 4.33325 4.87496 4.33325H6.49996" stroke="#3A4D65" stroke-width="2.16667" stroke-linecap="round" stroke-linejoin="round"/>
<path d="M19.5 9.74992H21.125C21.8433 9.74992 22.5322 9.46458 23.0401 8.95667C23.548 8.44876 23.8333 7.75988 23.8333 7.04159C23.8333 6.32329 23.548 5.63442 23.0401 5.1265C22.5322 4.61859 21.8433 4.33325 21.125 4.33325H19.5" stroke="#3A4D65" stroke-width="2.16667" stroke-linecap="round" stroke-linejoin="round"/>
<path d="M4.33337 23.8333H21.6667" stroke="#3A4D65" stroke-width="2.16667" stroke-linecap="round" stroke-linejoin="round"/>
<path d="M10.8334 15.8816V18.4166C10.8334 19.0124 10.3242 19.4783 9.78254 19.7274C8.50421 20.3124 7.58337 21.9266 7.58337 23.8333" stroke="#3A4D65" stroke-width="2.16667" stroke-linecap="round" stroke-linejoin="round"/>
<path d="M15.1666 15.8816V18.4166C15.1666 19.0124 15.6758 19.4783 16.2175 19.7274C17.4958 20.3124 18.4166 21.9266 18.4166 23.8333" stroke="#3A4D65" stroke-width="2.16667" stroke-linecap="round" stroke-linejoin="round"/>
<path d="M19.5 2.16675H6.5V9.75008C6.5 11.474 7.18482 13.1273 8.40381 14.3463C9.62279 15.5653 11.2761 16.2501 13 16.2501C14.7239 16.2501 16.3772 15.5653 17.5962 14.3463C18.8152 13.1273 19.5 11.474 19.5 9.75008V2.16675Z" stroke="#3A4D65" stroke-width="2.16667" stroke-linecap="round" stroke-linejoin="round"/>
</svg>
