<svg width="22" height="22" viewBox="0 0 22 22" fill="none" xmlns="http://www.w3.org/2000/svg">
<g clip-path="url(#clip0_1_237)">
<path d="M5.49998 8.25002H4.12498C3.51719 8.25002 2.9343 8.00858 2.50453 7.57881C2.07476 7.14904 1.83331 6.56614 1.83331 5.95835C1.83331 5.35057 2.07476 4.76767 2.50453 4.3379C2.9343 3.90813 3.51719 3.66669 4.12498 3.66669H5.49998" stroke="white" stroke-width="1.83333" stroke-linecap="round" stroke-linejoin="round"/>
<path d="M16.5 8.25002H17.875C18.4828 8.25002 19.0657 8.00858 19.4955 7.57881C19.9252 7.14904 20.1667 6.56614 20.1667 5.95835C20.1667 5.35057 19.9252 4.76767 19.4955 4.3379C19.0657 3.90813 18.4828 3.66669 17.875 3.66669H16.5" stroke="white" stroke-width="1.83333" stroke-linecap="round" stroke-linejoin="round"/>
<path d="M3.66669 20.1667H18.3334" stroke="white" stroke-width="1.83333" stroke-linecap="round" stroke-linejoin="round"/>
<path d="M9.16669 13.4384V15.5834C9.16669 16.0875 8.73585 16.4817 8.27752 16.6925C7.19585 17.1875 6.41669 18.5534 6.41669 20.1667" stroke="white" stroke-width="1.83333" stroke-linecap="round" stroke-linejoin="round"/>
<path d="M12.8333 13.4384V15.5834C12.8333 16.0875 13.2641 16.4817 13.7225 16.6925C14.8041 17.1875 15.5833 18.5534 15.5833 20.1667" stroke="white" stroke-width="1.83333" stroke-linecap="round" stroke-linejoin="round"/>
<path d="M16.5 1.83331H5.5V8.24998C5.5 9.70867 6.07946 11.1076 7.11091 12.1391C8.14236 13.1705 9.54131 13.75 11 13.75C12.4587 13.75 13.8576 13.1705 14.8891 12.1391C15.9205 11.1076 16.5 9.70867 16.5 8.24998V1.83331Z" stroke="white" stroke-width="1.83333" stroke-linecap="round" stroke-linejoin="round"/>
</g>
<defs>
<clipPath id="clip0_1_237">
<rect width="22" height="22" fill="white"/>
</clipPath>
</defs>
</svg>
