<svg width="13" height="13" viewBox="0 0 13 13" fill="none" xmlns="http://www.w3.org/2000/svg">
<path d="M8.66665 11.375V10.2917C8.66665 9.71703 8.43837 9.16593 8.03204 8.7596C7.62572 8.35327 7.07462 8.125 6.49998 8.125H3.24998C2.67534 8.125 2.12424 8.35327 1.71792 8.7596C1.31159 9.16593 1.08331 9.71703 1.08331 10.2917V11.375" stroke="#3A8CFF" stroke-width="1.08333" stroke-linecap="round" stroke-linejoin="round"/>
<path d="M4.87498 5.95833C6.0716 5.95833 7.04165 4.98828 7.04165 3.79167C7.04165 2.59505 6.0716 1.625 4.87498 1.625C3.67836 1.625 2.70831 2.59505 2.70831 3.79167C2.70831 4.98828 3.67836 5.95833 4.87498 5.95833Z" stroke="#3A8CFF" stroke-width="1.08333" stroke-linecap="round" stroke-linejoin="round"/>
<path d="M11.9167 11.375V10.2917C11.9163 9.81162 11.7565 9.34527 11.4624 8.96586C11.1683 8.58644 10.7565 8.31545 10.2917 8.19543" stroke="#3A8CFF" stroke-width="1.08333" stroke-linecap="round" stroke-linejoin="round"/>
<path d="M8.66669 1.69543C9.13275 1.81476 9.54583 2.08581 9.84082 2.46585C10.1358 2.84589 10.2959 3.3133 10.2959 3.79439C10.2959 4.27549 10.1358 4.74289 9.84082 5.12293C9.54583 5.50297 9.13275 5.77402 8.66669 5.89335" stroke="#3A8CFF" stroke-width="1.08333" stroke-linecap="round" stroke-linejoin="round"/>
</svg>
