<svg width="18" height="18" viewBox="0 0 18 18" fill="none" xmlns="http://www.w3.org/2000/svg">
<path d="M8.64376 1.72129C8.67662 1.65489 8.7274 1.59899 8.79035 1.55991C8.85329 1.52083 8.92591 1.50012 9.00001 1.50012C9.0741 1.50012 9.14672 1.52083 9.20967 1.55991C9.27262 1.59899 9.32339 1.65489 9.35626 1.72129L11.0888 5.23054C11.2029 5.46152 11.3714 5.66135 11.5797 5.81288C11.7881 5.96442 12.0301 6.06313 12.285 6.10054L16.1595 6.66754C16.2329 6.67818 16.3019 6.70915 16.3586 6.75694C16.4154 6.80474 16.4576 6.86745 16.4805 6.938C16.5035 7.00854 16.5062 7.0841 16.4884 7.15612C16.4707 7.22814 16.4331 7.29376 16.38 7.34554L13.578 10.074C13.3932 10.2541 13.255 10.4764 13.1751 10.7218C13.0953 10.9671 13.0763 11.2282 13.1198 11.4825L13.7813 15.3375C13.7942 15.4109 13.7863 15.4865 13.7584 15.5556C13.7305 15.6246 13.6837 15.6845 13.6234 15.7283C13.5631 15.7721 13.4917 15.798 13.4174 15.8032C13.3431 15.8084 13.2688 15.7926 13.203 15.7575L9.73951 13.9365C9.51129 13.8167 9.25739 13.7541 8.99963 13.7541C8.74187 13.7541 8.48797 13.8167 8.25976 13.9365L4.79701 15.7575C4.73126 15.7924 4.65705 15.808 4.58285 15.8027C4.50864 15.7975 4.4374 15.7715 4.37723 15.7277C4.31706 15.6839 4.27038 15.6242 4.2425 15.5552C4.21462 15.4862 4.20665 15.4108 4.21951 15.3375L4.88026 11.4833C4.9239 11.2288 4.90499 10.9676 4.82516 10.7221C4.74533 10.4766 4.60696 10.2542 4.42201 10.074L1.62001 7.34629C1.56645 7.29457 1.5285 7.22884 1.51048 7.1566C1.49246 7.08436 1.49508 7.00851 1.51807 6.93769C1.54105 6.86687 1.58346 6.80392 1.64046 6.75603C1.69747 6.70814 1.76678 6.67722 1.84051 6.66679L5.71426 6.10054C5.96945 6.06342 6.2118 5.96484 6.42044 5.81328C6.62909 5.66173 6.79778 5.46175 6.91201 5.23054L8.64376 1.72129Z" stroke="#C084FC" stroke-width="1.5" stroke-linecap="round" stroke-linejoin="round"/>
</svg>
