<svg width="13" height="13" viewBox="0 0 13 13" fill="none" xmlns="http://www.w3.org/2000/svg">
<path d="M10.8333 7.04165C10.8333 9.74998 8.93746 11.1041 6.68413 11.8896C6.56613 11.9295 6.43796 11.9276 6.32121 11.8841C4.06246 11.1041 2.16663 9.74998 2.16663 7.04165V3.24998C2.16663 3.10632 2.22369 2.96855 2.32528 2.86696C2.42686 2.76538 2.56463 2.70831 2.70829 2.70831C3.79163 2.70831 5.14579 2.05831 6.08829 1.23498C6.20305 1.13694 6.34903 1.08307 6.49996 1.08307C6.65089 1.08307 6.79687 1.13694 6.91163 1.23498C7.85954 2.06373 9.20829 2.70831 10.2916 2.70831C10.4353 2.70831 10.5731 2.76538 10.6746 2.86696C10.7762 2.96855 10.8333 3.10632 10.8333 3.24998V7.04165Z" stroke="#4A90D9" stroke-width="1.08333" stroke-linecap="round" stroke-linejoin="round"/>
</svg>
