<svg width="12" height="12" viewBox="0 0 12 12" fill="none" xmlns="http://www.w3.org/2000/svg">
<path d="M5.76255 1.14751C5.78446 1.10324 5.81831 1.06597 5.86027 1.03992C5.90224 1.01387 5.95065 1.00006 6.00005 1.00006C6.04944 1.00006 6.09785 1.01387 6.13982 1.03992C6.18178 1.06597 6.21563 1.10324 6.23755 1.14751L7.39255 3.48701C7.46863 3.64099 7.58095 3.77421 7.71986 3.87523C7.85876 3.97626 8.02011 4.04206 8.19004 4.06701L10.773 4.44501C10.822 4.4521 10.868 4.47274 10.9058 4.50461C10.9436 4.53647 10.9718 4.57828 10.9871 4.62531C11.0023 4.67234 11.0042 4.72271 10.9923 4.77073C10.9805 4.81874 10.9555 4.86248 10.92 4.89701L9.05205 6.71601C8.92885 6.83606 8.83668 6.98425 8.78346 7.14782C8.73024 7.3114 8.71758 7.48545 8.74655 7.65501L9.18755 10.225C9.19619 10.2739 9.1909 10.3243 9.17229 10.3703C9.15369 10.4164 9.12251 10.4563 9.08232 10.4855C9.04212 10.5147 8.99453 10.532 8.94498 10.5355C8.89542 10.5389 8.84589 10.5284 8.80205 10.505L6.49305 9.29101C6.3409 9.21112 6.17164 9.16938 5.9998 9.16938C5.82796 9.16938 5.65869 9.21112 5.50655 9.29101L3.19805 10.505C3.15421 10.5282 3.10474 10.5387 3.05527 10.5351C3.0058 10.5316 2.9583 10.5143 2.91819 10.4851C2.87808 10.4559 2.84696 10.4161 2.82837 10.3701C2.80979 10.3241 2.80447 10.2739 2.81305 10.225L3.25355 7.65551C3.28264 7.48587 3.27004 7.31171 3.21681 7.14803C3.16359 6.98436 3.07135 6.83609 2.94805 6.71601L1.08005 4.89751C1.04434 4.86302 1.01904 4.81921 1.00703 4.77104C0.995011 4.72288 0.996764 4.67232 1.01208 4.6251C1.02741 4.57789 1.05568 4.53593 1.09368 4.504C1.13169 4.47207 1.1779 4.45146 1.22705 4.44451L3.80955 4.06701C3.97967 4.04226 4.14124 3.97654 4.28034 3.8755C4.41943 3.77447 4.5319 3.64114 4.60805 3.48701L5.76255 1.14751Z" stroke="#22C55E" stroke-linecap="round" stroke-linejoin="round"/>
</svg>
