<svg width="11" height="11" viewBox="0 0 11 11" fill="none" xmlns="http://www.w3.org/2000/svg">
<g clip-path="url(#clip0_1_230)">
<path d="M9.16671 5.95835C9.16671 8.25001 7.56254 9.39585 5.65587 10.0604C5.55603 10.0943 5.44758 10.0926 5.34879 10.0558C3.43754 9.39585 1.83337 8.25001 1.83337 5.95835V2.75001C1.83337 2.62846 1.88166 2.51188 1.96762 2.42592C2.05357 2.33997 2.17015 2.29168 2.29171 2.29168C3.20837 2.29168 4.35421 1.74168 5.15171 1.04501C5.24881 0.962054 5.37233 0.916473 5.50004 0.916473C5.62775 0.916473 5.75127 0.962054 5.84837 1.04501C6.65046 1.74626 7.79171 2.29168 8.70837 2.29168C8.82993 2.29168 8.94651 2.33997 9.03247 2.42592C9.11842 2.51188 9.16671 2.62846 9.16671 2.75001V5.95835Z" stroke="#FFA040" stroke-width="0.916667" stroke-linecap="round" stroke-linejoin="round"/>
</g>
<defs>
<clipPath id="clip0_1_230">
<rect width="11" height="11" fill="white"/>
</clipPath>
</defs>
</svg>
