<svg width="11" height="11" viewBox="0 0 11 11" fill="none" xmlns="http://www.w3.org/2000/svg">
<g clip-path="url(#clip0_1_151)">
<path d="M5.28234 1.05188C5.30243 1.0113 5.33346 0.977138 5.37193 0.953255C5.41039 0.929373 5.45477 0.916718 5.50005 0.916718C5.54533 0.916718 5.58971 0.929373 5.62818 0.953255C5.66665 0.977138 5.69767 1.0113 5.71776 1.05188L6.77651 3.19642C6.84626 3.33757 6.94922 3.45969 7.07655 3.55229C7.20388 3.6449 7.35178 3.70522 7.50755 3.72809L9.8753 4.07459C9.92017 4.08109 9.96232 4.10001 9.99698 4.12922C10.0317 4.15843 10.0575 4.19675 10.0715 4.23986C10.0855 4.28297 10.0872 4.32915 10.0763 4.37316C10.0655 4.41717 10.0425 4.45727 10.0101 4.48892L8.29772 6.15634C8.18479 6.26638 8.1003 6.40222 8.05152 6.55217C8.00273 6.70211 7.99112 6.86166 8.01768 7.01709L8.42193 9.37292C8.42985 9.41776 8.425 9.46393 8.40795 9.50615C8.39089 9.54837 8.36231 9.58495 8.32547 9.61171C8.28862 9.63847 8.245 9.65434 8.19957 9.6575C8.15415 9.66066 8.10875 9.65099 8.06855 9.62959L5.95197 8.51675C5.81251 8.44352 5.65734 8.40526 5.49982 8.40526C5.3423 8.40526 5.18714 8.44352 5.04768 8.51675L2.93155 9.62959C2.89137 9.65086 2.84603 9.66043 2.80068 9.6572C2.75532 9.65398 2.71179 9.63809 2.67502 9.61135C2.63825 9.58461 2.60973 9.54809 2.59269 9.50594C2.57565 9.46379 2.57078 9.4177 2.57864 9.37292L2.98243 7.01754C3.0091 6.86205 2.99754 6.70239 2.94876 6.55236C2.89997 6.40232 2.81541 6.26641 2.70239 6.15634L0.990052 4.48938C0.957324 4.45777 0.934132 4.4176 0.923118 4.37345C0.912104 4.32931 0.91371 4.28295 0.927755 4.23967C0.941799 4.19639 0.967716 4.15793 1.00255 4.12866C1.03739 4.09939 1.07975 4.0805 1.1248 4.07413L3.49209 3.72809C3.64804 3.7054 3.79615 3.64515 3.92365 3.55254C4.05116 3.45992 4.15425 3.33771 4.22405 3.19642L5.28234 1.05188Z" stroke="#818CF8" stroke-width="0.916667" stroke-linecap="round" stroke-linejoin="round"/>
</g>
<defs>
<clipPath id="clip0_1_151">
<rect width="11" height="11" fill="white"/>
</clipPath>
</defs>
</svg>
