<svg width="729" height="112" viewBox="0 0 729 112" fill="none" xmlns="http://www.w3.org/2000/svg">
<path d="M22.8471 99C19.8605 99 17.0978 98.2533 14.5591 96.76C12.0205 95.2667 10.0045 93.2507 8.51112 90.712C7.01779 88.1733 6.27112 85.4107 6.27112 82.424V74.92H23.6311V81.528H69.3271V67.416H22.8471C19.8605 67.416 17.0978 66.6693 14.5591 65.176C12.0205 63.6827 10.0045 61.704 8.51112 59.24C7.01779 56.7013 6.27112 53.9013 6.27112 50.84V34.936C6.27112 31.8747 7.01779 29.112 8.51112 26.648C10.0045 24.1093 12.0205 22.0933 14.5591 20.6C17.0978 19.1067 19.8605 18.36 22.8471 18.36H70.3351C73.3218 18.36 76.0471 19.1067 78.5111 20.6C81.0498 22.0933 83.0658 24.1093 84.5591 26.648C86.1271 29.112 86.9111 31.8747 86.9111 34.936V42.44H69.3271V35.832H23.6311V49.944H70.3351C73.3218 49.944 76.0471 50.6907 78.5111 52.184C81.0498 53.6773 83.0658 55.6933 84.5591 58.232C86.1271 60.696 86.9111 63.4587 86.9111 66.52V82.424C86.9111 85.4107 86.1271 88.1733 84.5591 90.712C83.0658 93.2507 81.0498 95.2667 78.5111 96.76C76.0471 98.2533 73.3218 99 70.3351 99H22.8471ZM100.925 99V18.36H118.061V99H100.925ZM131.038 99V93.064L159.822 58.68L131.038 24.296V18.36H149.07L171.47 44.904L193.646 18.36H211.678V24.296L182.782 58.68L211.678 92.952V99H193.646L171.246 72.568L149.07 99H131.038Z" fill="url(#paint0_linear_1_230)"/>
<path d="M279.82 99C276.834 99 274.071 98.2533 271.532 96.76C268.994 95.2667 266.978 93.2507 265.484 90.712C263.991 88.1733 263.244 85.4107 263.244 82.424V74.92H280.604V81.528H326.3V67.416H279.82C276.834 67.416 274.071 66.6693 271.532 65.176C268.994 63.6827 266.978 61.704 265.484 59.24C263.991 56.7013 263.244 53.9013 263.244 50.84V34.936C263.244 31.8747 263.991 29.112 265.484 26.648C266.978 24.1093 268.994 22.0933 271.532 20.6C274.071 19.1067 276.834 18.36 279.82 18.36H327.308C330.295 18.36 333.02 19.1067 335.484 20.6C338.023 22.0933 340.039 24.1093 341.532 26.648C343.1 29.112 343.884 31.8747 343.884 34.936V42.44H326.3V35.832H280.604V49.944H327.308C330.295 49.944 333.02 50.6907 335.484 52.184C338.023 53.6773 340.039 55.6933 341.532 58.232C343.1 60.696 343.884 63.4587 343.884 66.52V82.424C343.884 85.4107 343.1 88.1733 341.532 90.712C340.039 93.2507 338.023 95.2667 335.484 96.76C333.02 98.2533 330.295 99 327.308 99H279.82ZM360.922 99V18.36H435.402V35.832H378.506V49.944H424.314V67.416H378.506V81.528H435.402V99H360.922ZM450.928 99V18.36H468.848L513.984 72.12V18.36H531.568V99H513.648L468.288 45.016V99H450.928ZM565.172 99C562.11 99 559.31 98.2533 556.772 96.76C554.308 95.2667 552.329 93.288 550.836 90.824C549.342 88.2853 548.596 85.4853 548.596 82.424V34.936C548.596 31.8747 549.342 29.112 550.836 26.648C552.329 24.1093 554.308 22.0933 556.772 20.6C559.31 19.1067 562.11 18.36 565.172 18.36H629.012V35.832H569.652C568.457 35.832 567.524 36.1307 566.852 36.728C566.254 37.3253 565.956 38.2587 565.956 39.528V77.832C565.956 79.0267 566.254 79.96 566.852 80.632C567.524 81.2293 568.457 81.528 569.652 81.528H629.012V99H565.172ZM645.394 99V18.36H719.874V35.832H662.978V49.944H708.786V67.416H662.978V81.528H719.874V99H645.394Z" fill="url(#paint1_linear_1_230)"/>
<defs>
<linearGradient id="paint0_linear_1_230" x1="108.5" y1="0" x2="108.5" y2="112" gradientUnits="userSpaceOnUse">
<stop stop-color="white"/>
<stop offset="0.1" stop-color="#FFFBE8"/>
<stop offset="0.28" stop-color="#FFE090"/>
<stop offset="0.55" stop-color="#F0BC28"/>
<stop offset="0.8" stop-color="#C88010"/>
<stop offset="1" stop-color="#9A6008"/>
</linearGradient>
<linearGradient id="paint1_linear_1_230" x1="490.922" y1="0" x2="490.922" y2="112" gradientUnits="userSpaceOnUse">
<stop stop-color="white"/>
<stop offset="0.1" stop-color="#FFFBE8"/>
<stop offset="0.28" stop-color="#FFE090"/>
<stop offset="0.55" stop-color="#F0BC28"/>
<stop offset="0.8" stop-color="#C88010"/>
<stop offset="1" stop-color="#9A6008"/>
</linearGradient>
</defs>
</svg>
