<svg width="457" height="81" viewBox="0 0 457 81" fill="none" xmlns="http://www.w3.org/2000/svg">
<path d="M16.576 80.64C13.5893 80.64 10.8266 79.8933 8.28798 78.4C5.74931 76.9067 3.73331 74.8907 2.23998 72.352C0.746647 69.8133 -1.92523e-05 67.0507 -1.92523e-05 64.064V56.56H17.36V63.168H63.056V49.056H16.576C13.5893 49.056 10.8266 48.3093 8.28798 46.816C5.74931 45.3227 3.73331 43.344 2.23998 40.88C0.746647 38.3413 -1.92523e-05 35.5413 -1.92523e-05 32.48V16.576C-1.92523e-05 13.5147 0.746647 10.752 2.23998 8.28801C3.73331 5.74935 5.74931 3.73335 8.28798 2.24001C10.8266 0.746677 13.5893 1.14441e-05 16.576 1.14441e-05H64.064C67.0506 1.14441e-05 69.776 0.746677 72.24 2.24001C74.7787 3.73335 76.7947 5.74935 78.288 8.28801C79.856 10.752 80.64 13.5147 80.64 16.576V24.08H63.056V17.472H17.36V31.584H64.064C67.0506 31.584 69.776 32.3307 72.24 33.824C74.7787 35.3173 76.7947 37.3333 78.288 39.872C79.856 42.336 80.64 45.0987 80.64 48.16V64.064C80.64 67.0507 79.856 69.8133 78.288 72.352C76.7947 74.8907 74.7787 76.9067 72.24 78.4C69.776 79.8933 67.0506 80.64 64.064 80.64H16.576ZM97.678 80.64V1.14441e-05H172.158V17.472H115.262V31.584H161.07V49.056H115.262V63.168H172.158V80.64H97.678ZM187.684 80.64V1.14441e-05H205.604L250.74 53.76V1.14441e-05H268.324V80.64H250.404L205.044 26.656V80.64H187.684ZM301.927 80.64C298.866 80.64 296.066 79.8933 293.527 78.4C291.063 76.9067 289.085 74.928 287.591 72.464C286.098 69.9253 285.351 67.1253 285.351 64.064V16.576C285.351 13.5147 286.098 10.752 287.591 8.28801C289.085 5.74935 291.063 3.73335 293.527 2.24001C296.066 0.746677 298.866 1.14441e-05 301.927 1.14441e-05H365.767V17.472H306.407C305.213 17.472 304.279 17.7707 303.607 18.368C303.01 18.9653 302.711 19.8987 302.711 21.168V59.472C302.711 60.6667 303.01 61.6 303.607 62.272C304.279 62.8693 305.213 63.168 306.407 63.168H365.767V80.64H301.927ZM382.149 80.64V1.14441e-05H456.629V17.472H399.733V31.584H445.541V49.056H399.733V63.168H456.629V80.64H382.149Z" fill="#D28C14" fill-opacity="0.35"/>
</svg>
