<svg width="206" height="81" viewBox="0 0 206 81" fill="none" xmlns="http://www.w3.org/2000/svg">
<path d="M16.576 80.64C13.5893 80.64 10.8267 79.8933 8.288 78.4C5.74934 76.9067 3.73334 74.8907 2.24 72.352C0.74667 69.8133 3.63588e-06 67.0507 3.63588e-06 64.064V56.56H17.36V63.168H63.056V49.056H16.576C13.5893 49.056 10.8267 48.3093 8.288 46.816C5.74934 45.3227 3.73334 43.344 2.24 40.88C0.74667 38.3413 3.63588e-06 35.5413 3.63588e-06 32.48V16.576C3.63588e-06 13.5147 0.74667 10.752 2.24 8.28801C3.73334 5.74935 5.74934 3.73335 8.288 2.24001C10.8267 0.746677 13.5893 1.14441e-05 16.576 1.14441e-05H64.064C67.0507 1.14441e-05 69.776 0.746677 72.24 2.24001C74.7787 3.73335 76.7947 5.74935 78.288 8.28801C79.856 10.752 80.64 13.5147 80.64 16.576V24.08H63.056V17.472H17.36V31.584H64.064C67.0507 31.584 69.776 32.3307 72.24 33.824C74.7787 35.3173 76.7947 37.3333 78.288 39.872C79.856 42.336 80.64 45.0987 80.64 48.16V64.064C80.64 67.0507 79.856 69.8133 78.288 72.352C76.7947 74.8907 74.7787 76.9067 72.24 78.4C69.776 79.8933 67.0507 80.64 64.064 80.64H16.576ZM94.654 80.64V1.14441e-05H111.79V80.64H94.654ZM124.767 80.64V74.704L153.551 40.32L124.767 5.93601V1.14441e-05H142.799L165.199 26.544L187.375 1.14441e-05H205.407V5.93601L176.511 40.32L205.407 74.592V80.64H187.375L164.975 54.208L142.799 80.64H124.767Z" fill="#D28C14" fill-opacity="0.35"/>
</svg>
