<svg width="715" height="109" viewBox="0 0 715 109" fill="none" xmlns="http://www.w3.org/2000/svg">
<path d="M0.167975 80.472V77.112C0.167975 74.76 1.34397 73.584 3.69597 73.584H17.976C20.328 73.584 21.504 74.76 21.504 77.112V78.456C21.504 82.712 22.344 85.624 24.024 87.192C25.704 88.76 28.784 89.544 33.264 89.544H41.16C45.528 89.544 48.552 88.704 50.232 87.024C52.024 85.344 52.92 82.208 52.92 77.616V75.6C52.92 72.352 51.576 69.888 48.888 68.208C46.312 66.416 43.064 65.352 39.144 65.016C35.224 64.68 30.968 64.064 26.376 63.168C21.896 62.16 17.696 60.928 13.776 59.472C9.85598 57.904 6.55197 54.936 3.86397 50.568C1.28797 46.088 -2.58088e-05 40.376 -2.58088e-05 33.432V27.552C-2.58088e-05 18.816 2.46397 12.04 7.39198 7.22398C12.32 2.40798 19.152 -1.43051e-05 27.888 -1.43051e-05H44.688C53.536 -1.43051e-05 60.424 2.40798 65.352 7.22398C70.28 12.04 72.744 18.816 72.744 27.552V30.744C72.744 33.096 71.568 34.272 69.216 34.272H54.936C52.584 34.272 51.408 33.096 51.408 30.744V29.736C51.408 25.368 50.568 22.4 48.888 20.832C47.208 19.264 44.128 18.48 39.648 18.48H33.096C28.504 18.48 25.368 19.376 23.688 21.168C22.12 22.848 21.336 26.208 21.336 31.248V34.44C21.336 39.704 25.928 42.728 35.112 43.512C44.632 44.296 53.088 46.2 60.48 49.224C64.4 50.904 67.648 53.928 70.224 58.296C72.912 62.552 74.256 68.04 74.256 74.76V80.472C74.256 89.208 71.792 95.984 66.864 100.8C61.936 105.616 55.104 108.024 46.368 108.024H28.056C19.32 108.024 12.488 105.616 7.55997 100.8C2.63197 95.984 0.167975 89.208 0.167975 80.472ZM118.954 3.52798V104.496C118.954 106.848 117.778 108.024 115.426 108.024H101.146C98.7945 108.024 97.6185 106.848 97.6185 104.496V3.52798C97.6185 1.17598 98.7945 -1.43051e-05 101.146 -1.43051e-05H115.426C117.778 -1.43051e-05 118.954 1.17598 118.954 3.52798ZM157.192 108.024H140.56C139.44 108.024 138.656 107.688 138.208 107.016C137.76 106.232 137.76 105.336 138.208 104.328L164.248 52.752L139.048 3.69598C138.6 2.79998 138.6 1.95998 139.048 1.17598C139.496 0.391984 140.28 -1.43051e-05 141.4 -1.43051e-05H157.528C160.328 -1.43051e-05 162.176 1.17598 163.072 3.52798L179.032 39.648H179.704L195.496 3.52798C196.616 1.17598 198.408 -1.43051e-05 200.872 -1.43051e-05H217.336C218.456 -1.43051e-05 219.24 0.447983 219.688 1.34398C220.248 2.12798 220.304 2.96798 219.856 3.86399L194.32 52.752L220.36 104.16C220.92 105.28 220.976 106.232 220.528 107.016C220.08 107.688 219.24 108.024 218.008 108.024H201.208C198.856 108.024 197.232 106.904 196.336 104.664L179.704 68.376H179.032L162.232 104.664C161.224 106.904 159.544 108.024 157.192 108.024ZM276.6 80.472V77.112C276.6 74.76 277.776 73.584 280.128 73.584H294.408C296.76 73.584 297.936 74.76 297.936 77.112V78.456C297.936 82.712 298.776 85.624 300.456 87.192C302.136 88.76 305.216 89.544 309.696 89.544H317.592C321.96 89.544 324.984 88.704 326.664 87.024C328.456 85.344 329.352 82.208 329.352 77.616V75.6C329.352 72.352 328.008 69.888 325.32 68.208C322.744 66.416 319.496 65.352 315.576 65.016C311.656 64.68 307.4 64.064 302.808 63.168C298.328 62.16 294.128 60.928 290.208 59.472C286.288 57.904 282.984 54.936 280.296 50.568C277.72 46.088 276.432 40.376 276.432 33.432V27.552C276.432 18.816 278.896 12.04 283.824 7.22398C288.752 2.40798 295.584 -1.43051e-05 304.32 -1.43051e-05H321.12C329.968 -1.43051e-05 336.856 2.40798 341.784 7.22398C346.712 12.04 349.176 18.816 349.176 27.552V30.744C349.176 33.096 348 34.272 345.648 34.272H331.368C329.016 34.272 327.84 33.096 327.84 30.744V29.736C327.84 25.368 327 22.4 325.32 20.832C323.64 19.264 320.56 18.48 316.08 18.48H309.528C304.936 18.48 301.8 19.376 300.12 21.168C298.552 22.848 297.768 26.208 297.768 31.248V34.44C297.768 39.704 302.36 42.728 311.544 43.512C321.064 44.296 329.52 46.2 336.912 49.224C340.832 50.904 344.08 53.928 346.656 58.296C349.344 62.552 350.688 68.04 350.688 74.76V80.472C350.688 89.208 348.224 95.984 343.296 100.8C338.368 105.616 331.536 108.024 322.8 108.024H304.488C295.752 108.024 288.92 105.616 283.992 100.8C279.064 95.984 276.6 89.208 276.6 80.472ZM431.675 108.024H376.739C374.387 108.024 373.211 106.848 373.211 104.496V3.52798C373.211 1.17598 374.387 -1.43051e-05 376.739 -1.43051e-05H431.675C433.915 -1.43051e-05 435.035 1.17598 435.035 3.52798V14.952C435.035 17.304 433.915 18.48 431.675 18.48H396.563C395.219 18.48 394.547 19.096 394.547 20.328V42.168C394.547 43.4 395.219 44.016 396.563 44.016H425.291C427.643 44.016 428.819 45.192 428.819 47.544V58.968C428.819 61.32 427.643 62.496 425.291 62.496H396.563C395.219 62.496 394.547 63.112 394.547 64.344V87.696C394.547 88.928 395.219 89.544 396.563 89.544H431.675C433.915 89.544 435.035 90.72 435.035 93.072V104.496C435.035 106.848 433.915 108.024 431.675 108.024ZM474.433 108.024H460.489C458.137 108.024 456.961 106.848 456.961 104.496V3.52798C456.961 1.17598 458.137 -1.43051e-05 460.489 -1.43051e-05H473.089C475.441 -1.43051e-05 477.009 0.783986 477.793 2.35199L511.729 66.024H512.401V3.52798C512.401 1.17598 513.577 -1.43051e-05 515.929 -1.43051e-05H529.873C532.225 -1.43051e-05 533.401 1.17598 533.401 3.52798V104.496C533.401 106.848 532.225 108.024 529.873 108.024H517.609C515.145 108.024 513.353 106.904 512.233 104.664L478.633 42.168H477.961V104.496C477.961 106.848 476.785 108.024 474.433 108.024ZM602.947 108.024H584.635C575.787 108.024 568.955 105.672 564.139 100.968C559.323 96.264 556.915 89.488 556.915 80.64V27.384C556.915 18.536 559.323 11.76 564.139 7.05598C568.955 2.35199 575.787 -1.43051e-05 584.635 -1.43051e-05H602.947C611.683 -1.43051e-05 618.459 2.40798 623.275 7.22398C628.203 11.928 630.667 18.648 630.667 27.384V35.28C630.667 37.744 629.435 38.976 626.971 38.976H612.859C610.507 38.976 609.331 37.744 609.331 35.28V28.392C609.331 24.808 608.547 22.288 606.979 20.832C605.523 19.264 603.003 18.48 599.419 18.48H587.995C584.523 18.48 582.003 19.264 580.435 20.832C578.979 22.288 578.251 24.808 578.251 28.392V79.632C578.251 83.216 578.979 85.792 580.435 87.36C582.003 88.816 584.523 89.544 587.995 89.544H599.419C603.003 89.544 605.523 88.816 606.979 87.36C608.547 85.792 609.331 83.216 609.331 79.632V72.744C609.331 70.28 610.507 69.048 612.859 69.048H626.971C629.435 69.048 630.667 70.28 630.667 72.744V80.64C630.667 89.376 628.203 96.152 623.275 100.968C618.459 105.672 611.683 108.024 602.947 108.024ZM710.817 108.024H655.881C653.529 108.024 652.353 106.848 652.353 104.496V3.52798C652.353 1.17598 653.529 -1.43051e-05 655.881 -1.43051e-05H710.817C713.057 -1.43051e-05 714.177 1.17598 714.177 3.52798V14.952C714.177 17.304 713.057 18.48 710.817 18.48H675.705C674.361 18.48 673.689 19.096 673.689 20.328V42.168C673.689 43.4 674.361 44.016 675.705 44.016H704.433C706.785 44.016 707.961 45.192 707.961 47.544V58.968C707.961 61.32 706.785 62.496 704.433 62.496H675.705C674.361 62.496 673.689 63.112 673.689 64.344V87.696C673.689 88.928 674.361 89.544 675.705 89.544H710.817C713.057 89.544 714.177 90.72 714.177 93.072V104.496C714.177 106.848 713.057 108.024 710.817 108.024Z" fill="url(#paint0_linear_1_62)"/>
<defs>
<linearGradient id="paint0_linear_1_62" x1="292.521" y1="-14.976" x2="297.969" y2="137.431" gradientUnits="userSpaceOnUse">
<stop stop-color="white"/>
<stop offset="0.4" stop-color="white"/>
<stop offset="0.75" stop-color="#FFA800"/>
<stop offset="1" stop-color="#CC8600"/>
</linearGradient>
</defs>
</svg>
