<svg width="855" height="15" viewBox="0 0 855 15" fill="none" xmlns="http://www.w3.org/2000/svg">
<path d="M6.89919 3.02622H8.65535C8.83305 3.02622 8.92191 3.11507 8.92191 3.29278V12.8419C8.92191 13.0196 8.83305 13.1085 8.65535 13.1085H7.68319C7.50548 13.1085 7.41663 13.0196 7.41663 12.8419V4.9235H7.35391L5.31551 10.6624C5.25279 10.8296 5.1378 10.9133 4.97055 10.9133H3.96703C3.81023 10.9133 3.70047 10.8296 3.63775 10.6624L1.55231 4.90782H1.48959V12.8419C1.48959 12.9464 1.46868 13.0196 1.42687 13.0614C1.39551 13.0928 1.32756 13.1085 1.22303 13.1085H0.266547C0.0888401 13.1085 -1.3198e-05 13.0196 -1.3198e-05 12.8419V3.29278C-1.3198e-05 3.11507 0.0888401 3.02622 0.266547 3.02622H2.02271C2.13769 3.02622 2.22132 3.08371 2.27359 3.1987L4.42175 9.25118H4.50015L6.66399 3.1987C6.68489 3.08371 6.76329 3.02622 6.89919 3.02622ZM19.9111 13.1085H18.7822C18.6358 13.1085 18.5836 13.0196 18.6254 12.8419L21.3537 3.29278C21.406 3.11507 21.5314 3.02622 21.73 3.02622H23.298C23.5071 3.02622 23.6325 3.11507 23.6743 3.29278L26.4027 12.8419C26.4445 13.0196 26.387 13.1085 26.2302 13.1085H25.1169C25.0228 13.1085 24.9549 13.0928 24.9131 13.0614C24.8817 13.0196 24.8556 12.9464 24.8347 12.8419L24.2388 10.8035H20.7892L20.1934 12.8419C20.1516 13.0196 20.0575 13.1085 19.9111 13.1085ZM22.4827 4.5315L21.1028 9.5491H23.9409L22.5454 4.5315H22.4827ZM38.8659 13.1085H37.8781C37.6899 13.1085 37.5958 13.0196 37.5958 12.8419V4.51582C37.5958 4.41129 37.5436 4.35902 37.439 4.35902H35.4634C35.2752 4.35902 35.1811 4.27017 35.1811 4.09246V3.29278C35.1811 3.11507 35.2752 3.02622 35.4634 3.02622H41.2806C41.4688 3.02622 41.5629 3.11507 41.5629 3.29278V4.09246C41.5629 4.27017 41.4688 4.35902 41.2806 4.35902H39.305C39.19 4.35902 39.1325 4.41129 39.1325 4.51582V12.8419C39.1325 13.0196 39.0436 13.1085 38.8659 13.1085ZM55.1511 13.1085H53.3322C52.5587 13.1085 51.9576 12.8942 51.529 12.4656C51.1109 12.037 50.9018 11.4412 50.9018 10.6781V5.45662C50.9018 4.68307 51.1109 4.08723 51.529 3.6691C51.9576 3.24051 52.5587 3.02622 53.3322 3.02622H55.1511C55.9142 3.02622 56.51 3.24051 56.9386 3.6691C57.3672 4.08723 57.5815 4.68307 57.5815 5.45662V6.20926C57.5815 6.39742 57.4874 6.4915 57.2992 6.4915H56.3114C56.1337 6.4915 56.0448 6.39742 56.0448 6.20926V5.51934C56.0448 4.74579 55.6685 4.35902 54.9159 4.35902H53.5517C52.7991 4.35902 52.4228 4.74579 52.4228 5.51934V10.6153C52.4228 11.3889 52.7991 11.7757 53.5517 11.7757H54.9159C55.6685 11.7757 56.0448 11.3889 56.0448 10.6153V9.92542C56.0448 9.73726 56.1337 9.64318 56.3114 9.64318H57.2992C57.4874 9.64318 57.5815 9.73726 57.5815 9.92542V10.6781C57.5815 11.4412 57.3672 12.037 56.9386 12.4656C56.51 12.8942 55.9142 13.1085 55.1511 13.1085ZM68.9344 13.1085H67.9466C67.7689 13.1085 67.68 13.0196 67.68 12.8419V3.29278C67.68 3.11507 67.7689 3.02622 67.9466 3.02622H68.9344C69.1121 3.02622 69.201 3.11507 69.201 3.29278V7.21278C69.201 7.31731 69.2637 7.36958 69.3891 7.36958H72.6976C72.8021 7.36958 72.8544 7.31731 72.8544 7.21278V3.29278C72.8544 3.11507 72.9433 3.02622 73.121 3.02622H74.1245C74.3022 3.02622 74.3911 3.11507 74.3911 3.29278V12.8419C74.3911 13.0196 74.3022 13.1085 74.1245 13.1085H73.121C72.9433 13.1085 72.8544 13.0196 72.8544 12.8419V8.87486C72.8544 8.77033 72.8021 8.71806 72.6976 8.71806H69.3891C69.2637 8.71806 69.201 8.77033 69.201 8.87486V12.8419C69.201 13.0196 69.1121 13.1085 68.9344 13.1085ZM91.7366 3.02622H93.4927C93.6704 3.02622 93.7593 3.11507 93.7593 3.29278V12.8419C93.7593 13.0196 93.6704 13.1085 93.4927 13.1085H92.5206C92.3429 13.1085 92.254 13.0196 92.254 12.8419V4.9235H92.1913L90.1529 10.6624C90.0902 10.8296 89.9752 10.9133 89.8079 10.9133H88.8044C88.6476 10.9133 88.5378 10.8296 88.4751 10.6624L86.3897 4.90782H86.327V12.8419C86.327 12.9464 86.3061 13.0196 86.2642 13.0614C86.2329 13.0928 86.1649 13.1085 86.0604 13.1085H85.1039C84.9262 13.1085 84.8374 13.0196 84.8374 12.8419V3.29278C84.8374 3.11507 84.9262 3.02622 85.1039 3.02622H86.8601C86.9751 3.02622 87.0587 3.08371 87.111 3.1987L89.2591 9.25118H89.3375L91.5014 3.1987C91.5223 3.08371 91.6007 3.02622 91.7366 3.02622ZM104.749 13.1085H103.62C103.473 13.1085 103.421 13.0196 103.463 12.8419L106.191 3.29278C106.243 3.11507 106.369 3.02622 106.567 3.02622H108.135C108.344 3.02622 108.47 3.11507 108.512 3.29278L111.24 12.8419C111.282 13.0196 111.224 13.1085 111.068 13.1085H109.954C109.86 13.1085 109.792 13.0928 109.75 13.0614C109.719 13.0196 109.693 12.9464 109.672 12.8419L109.076 10.8035H105.627L105.031 12.8419C104.989 13.0196 104.895 13.1085 104.749 13.1085ZM107.32 4.5315L105.94 9.5491H108.778L107.383 4.5315H107.32ZM122.198 13.1085H121.21C121.032 13.1085 120.944 13.0196 120.944 12.8419V3.29278C120.944 3.11507 121.032 3.02622 121.21 3.02622H122.198C122.376 3.02622 122.465 3.11507 122.465 3.29278V8.26334H122.512C122.616 7.9811 122.752 7.71977 122.919 7.47934L125.914 3.29278C126.029 3.11507 126.196 3.02622 126.416 3.02622H127.576C127.796 3.02622 127.832 3.12553 127.686 3.32414L124.628 7.47934L128.078 12.7949C128.203 13.0039 128.141 13.1085 127.89 13.1085H127.012C126.73 13.1085 126.531 13.0196 126.416 12.8419L123.703 8.59262L122.465 10.0509V12.8419C122.465 13.0196 122.376 13.1085 122.198 13.1085ZM139.287 3.29278V12.8419C139.287 13.0196 139.198 13.1085 139.02 13.1085H138.032C137.855 13.1085 137.766 13.0196 137.766 12.8419V3.29278C137.766 3.11507 137.855 3.02622 138.032 3.02622H139.02C139.198 3.02622 139.287 3.11507 139.287 3.29278ZM151.046 13.1085H150.074C149.896 13.1085 149.807 13.0196 149.807 12.8419V3.29278C149.807 3.11507 149.896 3.02622 150.074 3.02622H150.952C151.119 3.02622 151.234 3.08371 151.297 3.1987L155.091 10.0195H155.154V3.29278C155.154 3.11507 155.243 3.02622 155.421 3.02622H156.393C156.57 3.02622 156.659 3.11507 156.659 3.29278V12.8419C156.659 13.0196 156.57 13.1085 156.393 13.1085H155.546C155.379 13.1085 155.243 13.0248 155.138 12.8576L151.375 6.11518H151.312V12.8419C151.312 13.0196 151.223 13.1085 151.046 13.1085ZM171.054 13.1085H169.376C168.602 13.1085 168.001 12.8942 167.573 12.4656C167.155 12.037 166.945 11.4412 166.945 10.6781V5.45662C166.945 4.68307 167.155 4.08723 167.573 3.6691C168.001 3.24051 168.602 3.02622 169.376 3.02622H171.054C171.827 3.02622 172.423 3.24051 172.841 3.6691C173.27 4.08723 173.484 4.68307 173.484 5.45662V6.0211C173.484 6.20926 173.395 6.30334 173.217 6.30334H172.23C172.052 6.30334 171.963 6.20926 171.963 6.0211V5.51934C171.963 4.74579 171.587 4.35902 170.834 4.35902H169.595C168.843 4.35902 168.466 4.74579 168.466 5.51934V10.6153C168.466 11.3889 168.843 11.7757 169.595 11.7757H170.834C171.587 11.7757 171.963 11.3889 171.963 10.6153V9.20414C171.963 9.09961 171.906 9.04734 171.791 9.04734H170.52C170.343 9.04734 170.254 8.95849 170.254 8.78078V7.9811C170.254 7.80339 170.343 7.71454 170.52 7.71454H173.155C173.374 7.71454 173.484 7.8243 173.484 8.04382V10.6781C173.484 11.4412 173.27 12.037 172.841 12.4656C172.413 12.8942 171.817 13.1085 171.054 13.1085ZM195.471 10.6624V10.2547C195.471 10.077 195.56 9.98814 195.738 9.98814H196.741C196.919 9.98814 197.008 10.077 197.008 10.2547V10.5369C197.008 10.976 197.102 11.2948 197.29 11.4934C197.489 11.6816 197.813 11.7757 198.262 11.7757H199.344C199.794 11.7757 200.118 11.6764 200.316 11.4777C200.515 11.2687 200.614 10.9342 200.614 10.4742V10.1136C200.614 9.77907 200.484 9.51774 200.222 9.32958C199.971 9.13097 199.658 9.00553 199.282 8.95326C198.905 8.89054 198.492 8.80691 198.043 8.70238C197.593 8.59785 197.18 8.47763 196.804 8.34174C196.428 8.20585 196.109 7.94974 195.848 7.57342C195.597 7.1971 195.471 6.71625 195.471 6.13086V5.4723C195.471 4.70921 195.686 4.11337 196.114 3.68478C196.553 3.24574 197.154 3.02622 197.917 3.02622H199.579C200.353 3.02622 200.954 3.24574 201.383 3.68478C201.822 4.11337 202.041 4.70921 202.041 5.4723V5.81726C202.041 5.99497 201.952 6.08382 201.775 6.08382H200.771C200.593 6.08382 200.505 5.99497 200.505 5.81726V5.61342C200.505 5.16393 200.405 4.8451 200.207 4.65694C200.018 4.45833 199.7 4.35902 199.25 4.35902H198.262C197.813 4.35902 197.489 4.46355 197.29 4.67262C197.102 4.87123 197.008 5.21619 197.008 5.7075V6.19358C197.008 6.66398 197.348 6.98281 198.027 7.15006C198.33 7.22323 198.66 7.28595 199.015 7.33822C199.381 7.39049 199.747 7.46889 200.113 7.57342C200.478 7.67795 200.813 7.81907 201.116 7.99678C201.419 8.16403 201.665 8.42537 201.853 8.78078C202.041 9.12574 202.135 9.5491 202.135 10.0509V10.6624C202.135 11.4255 201.916 12.0265 201.477 12.4656C201.048 12.8942 200.452 13.1085 199.689 13.1085H197.933C197.17 13.1085 196.569 12.8942 196.13 12.4656C195.691 12.0265 195.471 11.4255 195.471 10.6624ZM215.163 13.1085H214.175C213.987 13.1085 213.893 13.0196 213.893 12.8419V4.51582C213.893 4.41129 213.841 4.35902 213.736 4.35902H211.76C211.572 4.35902 211.478 4.27017 211.478 4.09246V3.29278C211.478 3.11507 211.572 3.02622 211.76 3.02622H217.578C217.766 3.02622 217.86 3.11507 217.86 3.29278V4.09246C217.86 4.27017 217.766 4.35902 217.578 4.35902H215.602C215.487 4.35902 215.43 4.41129 215.43 4.51582V12.8419C215.43 13.0196 215.341 13.1085 215.163 13.1085ZM228.61 13.1085H227.622C227.445 13.1085 227.356 13.0196 227.356 12.8419V3.29278C227.356 3.11507 227.445 3.02622 227.622 3.02622H231.291C232.054 3.02622 232.65 3.24574 233.079 3.68478C233.518 4.11337 233.737 4.70921 233.737 5.4723V6.78942C233.737 7.99155 233.241 8.74942 232.248 9.06302V9.12574L233.988 12.7949C234.103 13.0039 234.035 13.1085 233.784 13.1085H232.812C232.561 13.1085 232.399 13.0196 232.326 12.8419L230.649 9.2355H229.065C228.939 9.2355 228.877 9.28777 228.877 9.3923V12.8419C228.877 13.0196 228.788 13.1085 228.61 13.1085ZM229.049 7.9811H231.041C231.814 7.9811 232.201 7.59955 232.201 6.83646V5.51934C232.201 4.74579 231.814 4.35902 231.041 4.35902H229.049C228.934 4.35902 228.877 4.41129 228.877 4.51582V7.8243C228.877 7.92883 228.934 7.9811 229.049 7.9811ZM249.276 3.02622H250.264C250.452 3.02622 250.546 3.10985 250.546 3.2771V10.6781C250.546 11.4412 250.327 12.037 249.888 12.4656C249.459 12.8942 248.863 13.1085 248.1 13.1085H246.36C245.597 13.1085 245.001 12.8942 244.572 12.4656C244.144 12.037 243.929 11.4412 243.929 10.6781V3.29278C243.929 3.11507 244.018 3.02622 244.196 3.02622H245.184C245.361 3.02622 245.45 3.11507 245.45 3.29278V10.6153C245.45 11.3889 245.827 11.7757 246.579 11.7757H247.865C248.628 11.7757 249.01 11.3889 249.01 10.6153V3.29278C249.01 3.11507 249.099 3.02622 249.276 3.02622ZM264.982 13.1085H263.163C262.39 13.1085 261.788 12.8942 261.36 12.4656C260.942 12.037 260.733 11.4412 260.733 10.6781V5.45662C260.733 4.68307 260.942 4.08723 261.36 3.6691C261.788 3.24051 262.39 3.02622 263.163 3.02622H264.982C265.745 3.02622 266.341 3.24051 266.769 3.6691C267.198 4.08723 267.412 4.68307 267.412 5.45662V6.20926C267.412 6.39742 267.318 6.4915 267.13 6.4915H266.142C265.965 6.4915 265.876 6.39742 265.876 6.20926V5.51934C265.876 4.74579 265.499 4.35902 264.747 4.35902H263.383C262.63 4.35902 262.254 4.74579 262.254 5.51934V10.6153C262.254 11.3889 262.63 11.7757 263.383 11.7757H264.747C265.499 11.7757 265.876 11.3889 265.876 10.6153V9.92542C265.876 9.73726 265.965 9.64318 266.142 9.64318H267.13C267.318 9.64318 267.412 9.73726 267.412 9.92542V10.6781C267.412 11.4412 267.198 12.037 266.769 12.4656C266.341 12.8942 265.745 13.1085 264.982 13.1085ZM280.271 13.1085H279.283C279.095 13.1085 279 13.0196 279 12.8419V4.51582C279 4.41129 278.948 4.35902 278.844 4.35902H276.868C276.68 4.35902 276.586 4.27017 276.586 4.09246V3.29278C276.586 3.11507 276.68 3.02622 276.868 3.02622H282.685C282.873 3.02622 282.968 3.11507 282.968 3.29278V4.09246C282.968 4.27017 282.873 4.35902 282.685 4.35902H280.71C280.595 4.35902 280.537 4.41129 280.537 4.51582V12.8419C280.537 13.0196 280.448 13.1085 280.271 13.1085ZM297.732 3.02622H298.72C298.908 3.02622 299.002 3.10985 299.002 3.2771V10.6781C299.002 11.4412 298.782 12.037 298.343 12.4656C297.915 12.8942 297.319 13.1085 296.556 13.1085H294.815C294.052 13.1085 293.456 12.8942 293.028 12.4656C292.599 12.037 292.385 11.4412 292.385 10.6781V3.29278C292.385 3.11507 292.474 3.02622 292.651 3.02622H293.639C293.817 3.02622 293.906 3.11507 293.906 3.29278V10.6153C293.906 11.3889 294.282 11.7757 295.035 11.7757H296.32C297.084 11.7757 297.465 11.3889 297.465 10.6153V3.29278C297.465 3.11507 297.554 3.02622 297.732 3.02622ZM310.599 13.1085H309.612C309.434 13.1085 309.345 13.0196 309.345 12.8419V3.29278C309.345 3.11507 309.434 3.02622 309.612 3.02622H313.281C314.044 3.02622 314.64 3.24574 315.068 3.68478C315.507 4.11337 315.727 4.70921 315.727 5.4723V6.78942C315.727 7.99155 315.23 8.74942 314.237 9.06302V9.12574L315.978 12.7949C316.093 13.0039 316.025 13.1085 315.774 13.1085H314.802C314.551 13.1085 314.389 13.0196 314.316 12.8419L312.638 9.2355H311.054C310.929 9.2355 310.866 9.28777 310.866 9.3923V12.8419C310.866 13.0196 310.777 13.1085 310.599 13.1085ZM311.038 7.9811H313.03C313.803 7.9811 314.19 7.59955 314.19 6.83646V5.51934C314.19 4.74579 313.803 4.35902 313.03 4.35902H311.038C310.923 4.35902 310.866 4.41129 310.866 4.51582V7.8243C310.866 7.92883 310.923 7.9811 311.038 7.9811ZM329.29 -2.11787e-05H330.529C330.612 -2.11787e-05 330.664 0.0261121 330.685 0.0783787C330.717 0.130645 330.706 0.193365 330.654 0.266538L329.337 1.83454C329.232 1.95998 329.107 2.0227 328.961 2.0227H328.224C328.046 2.0227 328.004 1.93385 328.098 1.75614L328.898 0.250858C328.981 0.0836053 329.112 -2.11787e-05 329.29 -2.11787e-05ZM331.281 13.1085H326.264C326.086 13.1085 325.997 13.0196 325.997 12.8419V3.29278C325.997 3.11507 326.086 3.02622 326.264 3.02622H331.281C331.448 3.02622 331.532 3.11507 331.532 3.29278V4.09246C331.532 4.27017 331.448 4.35902 331.281 4.35902H327.706C327.581 4.35902 327.518 4.41129 327.518 4.51582V7.16574C327.518 7.27027 327.581 7.32254 327.706 7.32254H330.732C330.921 7.32254 331.015 7.41139 331.015 7.5891V8.38878C331.015 8.56649 330.921 8.65534 330.732 8.65534H327.706C327.581 8.65534 327.518 8.70761 327.518 8.81214V11.6032C327.518 11.7182 327.581 11.7757 327.706 11.7757H331.281C331.448 11.7757 331.532 11.8645 331.532 12.0422V12.8419C331.532 13.0196 331.448 13.1085 331.281 13.1085ZM342.892 10.9289V12.152C342.892 12.4029 342.792 12.7165 342.594 13.0928L341.763 14.6137C341.721 14.7078 341.643 14.7549 341.528 14.7549C341.381 14.7549 341.308 14.6712 341.308 14.504V10.9289C341.308 10.7617 341.397 10.6781 341.575 10.6781H342.641C342.808 10.6781 342.892 10.7617 342.892 10.9289ZM371.751 3.02622H373.507C373.685 3.02622 373.773 3.11507 373.773 3.29278V12.8419C373.773 13.0196 373.685 13.1085 373.507 13.1085H372.535C372.357 13.1085 372.268 13.0196 372.268 12.8419V4.9235H372.205L370.167 10.6624C370.104 10.8296 369.989 10.9133 369.822 10.9133H368.819C368.662 10.9133 368.552 10.8296 368.489 10.6624L366.404 4.90782H366.341V12.8419C366.341 12.9464 366.32 13.0196 366.278 13.0614C366.247 13.0928 366.179 13.1085 366.075 13.1085H365.118C364.94 13.1085 364.852 13.0196 364.852 12.8419V3.29278C364.852 3.11507 364.94 3.02622 365.118 3.02622H366.874C366.989 3.02622 367.073 3.08371 367.125 3.1987L369.273 9.25118H369.352L371.516 3.1987C371.536 3.08371 371.615 3.02622 371.751 3.02622ZM386.707 11.7757H388.071C388.834 11.7757 389.216 11.3889 389.216 10.6153V5.51934C389.216 4.74579 388.834 4.35902 388.071 4.35902H386.707C385.954 4.35902 385.578 4.74579 385.578 5.51934V10.6153C385.578 11.3889 385.954 11.7757 386.707 11.7757ZM388.306 13.1085H386.487C385.714 13.1085 385.113 12.8942 384.684 12.4656C384.266 12.037 384.057 11.4412 384.057 10.6781V5.45662C384.057 4.68307 384.266 4.08723 384.684 3.6691C385.113 3.24051 385.714 3.02622 386.487 3.02622H388.306C389.08 3.02622 389.681 3.24051 390.11 3.6691C390.538 4.08723 390.752 4.68307 390.752 5.45662V10.6781C390.752 11.4412 390.538 12.037 390.11 12.4656C389.681 12.8942 389.08 13.1085 388.306 13.1085ZM402.713 11.7757H404.923C405.676 11.7757 406.052 11.3889 406.052 10.6153V5.51934C406.052 4.74579 405.676 4.35902 404.923 4.35902H402.713C402.598 4.35902 402.54 4.41129 402.54 4.51582V11.6032C402.54 11.7182 402.598 11.7757 402.713 11.7757ZM401.019 12.8419V3.29278C401.019 3.11507 401.108 3.02622 401.286 3.02622H405.143C405.906 3.02622 406.502 3.24051 406.93 3.6691C407.369 4.08723 407.589 4.68307 407.589 5.45662V10.6781C407.589 11.4412 407.369 12.037 406.93 12.4656C406.502 12.8942 405.906 13.1085 405.143 13.1085H401.286C401.108 13.1085 401.019 13.0196 401.019 12.8419ZM423.154 13.1085H418.137C417.959 13.1085 417.87 13.0196 417.87 12.8419V3.29278C417.87 3.11507 417.959 3.02622 418.137 3.02622H423.154C423.322 3.02622 423.405 3.11507 423.405 3.29278V4.09246C423.405 4.27017 423.322 4.35902 423.154 4.35902H419.579C419.454 4.35902 419.391 4.41129 419.391 4.51582V7.16574C419.391 7.27027 419.454 7.32254 419.579 7.32254H422.605C422.794 7.32254 422.888 7.41139 422.888 7.5891V8.38878C422.888 8.56649 422.794 8.65534 422.605 8.65534H419.579C419.454 8.65534 419.391 8.70761 419.391 8.81214V11.6032C419.391 11.7182 419.454 11.7757 419.579 11.7757H423.154C423.322 11.7757 423.405 11.8645 423.405 12.0422V12.8419C423.405 13.0196 423.322 13.1085 423.154 13.1085ZM446.702 13.1085H445.714C445.536 13.1085 445.447 13.0196 445.447 12.8419V3.29278C445.447 3.11507 445.536 3.02622 445.714 3.02622H449.383C450.146 3.02622 450.742 3.24574 451.171 3.68478C451.61 4.11337 451.829 4.70921 451.829 5.4723V6.78942C451.829 7.99155 451.333 8.74942 450.34 9.06302V9.12574L452.08 12.7949C452.195 13.0039 452.127 13.1085 451.876 13.1085H450.904C450.653 13.1085 450.491 13.0196 450.418 12.8419L448.74 9.2355H447.156C447.031 9.2355 446.968 9.28777 446.968 9.3923V12.8419C446.968 13.0196 446.879 13.1085 446.702 13.1085ZM447.141 7.9811H449.132C449.906 7.9811 450.292 7.59955 450.292 6.83646V5.51934C450.292 4.74579 449.906 4.35902 449.132 4.35902H447.141C447.026 4.35902 446.968 4.41129 446.968 4.51582V7.8243C446.968 7.92883 447.026 7.9811 447.141 7.9811ZM462.648 13.1085H461.519C461.373 13.1085 461.321 13.0196 461.362 12.8419L464.091 3.29278C464.143 3.11507 464.268 3.02622 464.467 3.02622H466.035C466.244 3.02622 466.37 3.11507 466.411 3.29278L469.14 12.8419C469.182 13.0196 469.124 13.1085 468.967 13.1085H467.854C467.76 13.1085 467.692 13.0928 467.65 13.0614C467.619 13.0196 467.593 12.9464 467.572 12.8419L466.976 10.8035H463.526L462.93 12.8419C462.889 13.0196 462.795 13.1085 462.648 13.1085ZM465.22 4.5315L463.84 9.5491H466.678L465.282 4.5315H465.22ZM480.082 13.1085H479.11C478.932 13.1085 478.843 13.0196 478.843 12.8419V3.29278C478.843 3.11507 478.932 3.02622 479.11 3.02622H479.988C480.155 3.02622 480.27 3.08371 480.333 3.1987L484.127 10.0195H484.19V3.29278C484.19 3.11507 484.279 3.02622 484.457 3.02622H485.429C485.607 3.02622 485.695 3.11507 485.695 3.29278V12.8419C485.695 13.0196 485.607 13.1085 485.429 13.1085H484.582C484.415 13.1085 484.279 13.0248 484.175 12.8576L480.411 6.11518H480.349V12.8419C480.349 13.0196 480.26 13.1085 480.082 13.1085ZM497.393 13.1085H496.405C496.227 13.1085 496.138 13.0196 496.138 12.8419V3.29278C496.138 3.11507 496.227 3.02622 496.405 3.02622H497.393C497.571 3.02622 497.659 3.11507 497.659 3.29278V8.26334H497.706C497.811 7.9811 497.947 7.71977 498.114 7.47934L501.109 3.29278C501.224 3.11507 501.391 3.02622 501.611 3.02622H502.771C502.991 3.02622 503.027 3.12553 502.881 3.32414L499.823 7.47934L503.273 12.7949C503.398 13.0039 503.336 13.1085 503.085 13.1085H502.207C501.924 13.1085 501.726 13.0196 501.611 12.8419L498.898 8.59262L497.659 10.0509V12.8419C497.659 13.0196 497.571 13.1085 497.393 13.1085ZM518.167 13.1085H513.149C512.971 13.1085 512.882 13.0196 512.882 12.8419V3.29278C512.882 3.11507 512.971 3.02622 513.149 3.02622H518.167C518.334 3.02622 518.417 3.11507 518.417 3.29278V4.09246C518.417 4.27017 518.334 4.35902 518.167 4.35902H514.591C514.466 4.35902 514.403 4.41129 514.403 4.51582V7.16574C514.403 7.27027 514.466 7.32254 514.591 7.32254H517.618C517.806 7.32254 517.9 7.41139 517.9 7.5891V8.38878C517.9 8.56649 517.806 8.65534 517.618 8.65534H514.591C514.466 8.65534 514.403 8.70761 514.403 8.81214V11.6032C514.403 11.7182 514.466 11.7757 514.591 11.7757H518.167C518.334 11.7757 518.417 11.8645 518.417 12.0422V12.8419C518.417 13.0196 518.334 13.1085 518.167 13.1085ZM530.263 11.7757H532.474C533.227 11.7757 533.603 11.3889 533.603 10.6153V5.51934C533.603 4.74579 533.227 4.35902 532.474 4.35902H530.263C530.148 4.35902 530.091 4.41129 530.091 4.51582V11.6032C530.091 11.7182 530.148 11.7757 530.263 11.7757ZM528.57 12.8419V3.29278C528.57 3.11507 528.659 3.02622 528.836 3.02622H532.694C533.457 3.02622 534.053 3.24051 534.481 3.6691C534.92 4.08723 535.14 4.68307 535.14 5.45662V10.6781C535.14 11.4412 534.92 12.037 534.481 12.4656C534.053 12.8942 533.457 13.1085 532.694 13.1085H528.836C528.659 13.1085 528.57 13.0196 528.57 12.8419ZM546.628 10.9289V12.152C546.628 12.4029 546.529 12.7165 546.33 13.0928L545.499 14.6137C545.457 14.7078 545.379 14.7549 545.264 14.7549C545.118 14.7549 545.045 14.6712 545.045 14.504V10.9289C545.045 10.7617 545.133 10.6781 545.311 10.6781H546.377C546.545 10.6781 546.628 10.7617 546.628 10.9289ZM569.842 13.1085H568.855C568.677 13.1085 568.588 13.0196 568.588 12.8419V3.29278C568.588 3.11507 568.677 3.02622 568.855 3.02622H572.586C573.349 3.02622 573.945 3.24051 574.374 3.6691C574.803 4.08723 575.017 4.68307 575.017 5.45662V7.08734C575.017 7.85043 574.803 8.44627 574.374 8.87486C573.945 9.30345 573.349 9.51774 572.586 9.51774H570.297C570.172 9.51774 570.109 9.57001 570.109 9.67454V12.8419C570.109 13.0196 570.02 13.1085 569.842 13.1085ZM570.281 8.16926H572.367C573.109 8.16926 573.48 7.78249 573.48 7.00894V5.51934C573.48 4.74579 573.109 4.35902 572.367 4.35902H570.281C570.166 4.35902 570.109 4.41129 570.109 4.51582V8.01246C570.109 8.11699 570.166 8.16926 570.281 8.16926ZM586.28 13.1085H585.292C585.115 13.1085 585.026 13.0196 585.026 12.8419V3.29278C585.026 3.11507 585.115 3.02622 585.292 3.02622H588.961C589.724 3.02622 590.32 3.24574 590.749 3.68478C591.188 4.11337 591.407 4.70921 591.407 5.4723V6.78942C591.407 7.99155 590.911 8.74942 589.918 9.06302V9.12574L591.658 12.7949C591.773 13.0039 591.705 13.1085 591.454 13.1085H590.482C590.231 13.1085 590.069 13.0196 589.996 12.8419L588.318 9.2355H586.735C586.609 9.2355 586.547 9.28777 586.547 9.3923V12.8419C586.547 13.0196 586.458 13.1085 586.28 13.1085ZM586.719 7.9811H588.71C589.484 7.9811 589.871 7.59955 589.871 6.83646V5.51934C589.871 4.74579 589.484 4.35902 588.71 4.35902H586.719C586.604 4.35902 586.547 4.41129 586.547 4.51582V7.8243C586.547 7.92883 586.604 7.9811 586.719 7.9811ZM604.171 11.7757H605.535C606.298 11.7757 606.68 11.3889 606.68 10.6153V5.51934C606.68 4.74579 606.298 4.35902 605.535 4.35902H604.171C603.418 4.35902 603.042 4.74579 603.042 5.51934V10.6153C603.042 11.3889 603.418 11.7757 604.171 11.7757ZM605.77 13.1085H603.951C603.178 13.1085 602.577 12.8942 602.148 12.4656C601.73 12.037 601.521 11.4412 601.521 10.6781V5.45662C601.521 4.68307 601.73 4.08723 602.148 3.6691C602.577 3.24051 603.178 3.02622 603.951 3.02622H605.77C606.544 3.02622 607.145 3.24051 607.573 3.6691C608.002 4.08723 608.216 4.68307 608.216 5.45662V10.6781C608.216 11.4412 608.002 12.037 607.573 12.4656C607.145 12.8942 606.544 13.1085 605.77 13.1085ZM622.434 13.1085H620.756C619.983 13.1085 619.382 12.8942 618.953 12.4656C618.535 12.037 618.326 11.4412 618.326 10.6781V5.45662C618.326 4.68307 618.535 4.08723 618.953 3.6691C619.382 3.24051 619.983 3.02622 620.756 3.02622H622.434C623.208 3.02622 623.804 3.24051 624.222 3.6691C624.65 4.08723 624.865 4.68307 624.865 5.45662V6.0211C624.865 6.20926 624.776 6.30334 624.598 6.30334H623.61C623.433 6.30334 623.344 6.20926 623.344 6.0211V5.51934C623.344 4.74579 622.967 4.35902 622.215 4.35902H620.976C620.223 4.35902 619.847 4.74579 619.847 5.51934V10.6153C619.847 11.3889 620.223 11.7757 620.976 11.7757H622.215C622.967 11.7757 623.344 11.3889 623.344 10.6153V9.20414C623.344 9.09961 623.286 9.04734 623.171 9.04734H621.901C621.723 9.04734 621.635 8.95849 621.635 8.78078V7.9811C621.635 7.80339 621.723 7.71454 621.901 7.71454H624.535C624.755 7.71454 624.865 7.8243 624.865 8.04382V10.6781C624.865 11.4412 624.65 12.037 624.222 12.4656C623.793 12.8942 623.197 13.1085 622.434 13.1085ZM636.405 13.1085H635.417C635.239 13.1085 635.15 13.0196 635.15 12.8419V3.29278C635.15 3.11507 635.239 3.02622 635.417 3.02622H639.086C639.849 3.02622 640.445 3.24574 640.873 3.68478C641.312 4.11337 641.532 4.70921 641.532 5.4723V6.78942C641.532 7.99155 641.035 8.74942 640.042 9.06302V9.12574L641.783 12.7949C641.898 13.0039 641.83 13.1085 641.579 13.1085H640.607C640.356 13.1085 640.194 13.0196 640.121 12.8419L638.443 9.2355H636.859C636.734 9.2355 636.671 9.28777 636.671 9.3923V12.8419C636.671 13.0196 636.582 13.1085 636.405 13.1085ZM636.844 7.9811H638.835C639.609 7.9811 639.995 7.59955 639.995 6.83646V5.51934C639.995 4.74579 639.609 4.35902 638.835 4.35902H636.844C636.729 4.35902 636.671 4.41129 636.671 4.51582V7.8243C636.671 7.92883 636.729 7.9811 636.844 7.9811ZM657.086 13.1085H652.069C651.891 13.1085 651.802 13.0196 651.802 12.8419V3.29278C651.802 3.11507 651.891 3.02622 652.069 3.02622H657.086C657.254 3.02622 657.337 3.11507 657.337 3.29278V4.09246C657.337 4.27017 657.254 4.35902 657.086 4.35902H653.511C653.386 4.35902 653.323 4.41129 653.323 4.51582V7.16574C653.323 7.27027 653.386 7.32254 653.511 7.32254H656.538C656.726 7.32254 656.82 7.41139 656.82 7.5891V8.38878C656.82 8.56649 656.726 8.65534 656.538 8.65534H653.511C653.386 8.65534 653.323 8.70761 653.323 8.81214V11.6032C653.323 11.7182 653.386 11.7757 653.511 11.7757H657.086C657.254 11.7757 657.337 11.8645 657.337 12.0422V12.8419C657.337 13.0196 657.254 13.1085 657.086 13.1085ZM667.301 10.6624V10.2547C667.301 10.077 667.39 9.98814 667.568 9.98814H668.572C668.749 9.98814 668.838 10.077 668.838 10.2547V10.5369C668.838 10.976 668.932 11.2948 669.12 11.4934C669.319 11.6816 669.643 11.7757 670.092 11.7757H671.174C671.624 11.7757 671.948 11.6764 672.147 11.4777C672.345 11.2687 672.444 10.9342 672.444 10.4742V10.1136C672.444 9.77907 672.314 9.51774 672.052 9.32958C671.802 9.13097 671.488 9.00553 671.112 8.95326C670.735 8.89054 670.322 8.80691 669.873 8.70238C669.423 8.59785 669.011 8.47763 668.634 8.34174C668.258 8.20585 667.939 7.94974 667.678 7.57342C667.427 7.1971 667.301 6.71625 667.301 6.13086V5.4723C667.301 4.70921 667.516 4.11337 667.944 3.68478C668.383 3.24574 668.984 3.02622 669.748 3.02622H671.41C672.183 3.02622 672.784 3.24574 673.213 3.68478C673.652 4.11337 673.871 4.70921 673.871 5.4723V5.81726C673.871 5.99497 673.783 6.08382 673.605 6.08382H672.601C672.424 6.08382 672.335 5.99497 672.335 5.81726V5.61342C672.335 5.16393 672.235 4.8451 672.037 4.65694C671.849 4.45833 671.53 4.35902 671.08 4.35902H670.092C669.643 4.35902 669.319 4.46355 669.12 4.67262C668.932 4.87123 668.838 5.21619 668.838 5.7075V6.19358C668.838 6.66398 669.178 6.98281 669.857 7.15006C670.16 7.22323 670.49 7.28595 670.845 7.33822C671.211 7.39049 671.577 7.46889 671.943 7.57342C672.309 7.67795 672.643 7.81907 672.946 7.99678C673.249 8.16403 673.495 8.42537 673.683 8.78078C673.871 9.12574 673.965 9.5491 673.965 10.0509V10.6624C673.965 11.4255 673.746 12.0265 673.307 12.4656C672.878 12.8942 672.282 13.1085 671.519 13.1085H669.763C669 13.1085 668.399 12.8942 667.96 12.4656C667.521 12.0265 667.301 11.4255 667.301 10.6624ZM684.045 10.6624V10.2547C684.045 10.077 684.134 9.98814 684.312 9.98814H685.315C685.493 9.98814 685.582 10.077 685.582 10.2547V10.5369C685.582 10.976 685.676 11.2948 685.864 11.4934C686.063 11.6816 686.387 11.7757 686.836 11.7757H687.918C688.368 11.7757 688.692 11.6764 688.89 11.4777C689.089 11.2687 689.188 10.9342 689.188 10.4742V10.1136C689.188 9.77907 689.058 9.51774 688.796 9.32958C688.546 9.13097 688.232 9.00553 687.856 8.95326C687.479 8.89054 687.066 8.80691 686.617 8.70238C686.167 8.59785 685.754 8.47763 685.378 8.34174C685.002 8.20585 684.683 7.94974 684.422 7.57342C684.171 7.1971 684.045 6.71625 684.045 6.13086V5.4723C684.045 4.70921 684.26 4.11337 684.688 3.68478C685.127 3.24574 685.728 3.02622 686.491 3.02622H688.154C688.927 3.02622 689.528 3.24574 689.957 3.68478C690.396 4.11337 690.615 4.70921 690.615 5.4723V5.81726C690.615 5.99497 690.526 6.08382 690.349 6.08382H689.345C689.167 6.08382 689.079 5.99497 689.079 5.81726V5.61342C689.079 5.16393 688.979 4.8451 688.781 4.65694C688.593 4.45833 688.274 4.35902 687.824 4.35902H686.836C686.387 4.35902 686.063 4.46355 685.864 4.67262C685.676 4.87123 685.582 5.21619 685.582 5.7075V6.19358C685.582 6.66398 685.922 6.98281 686.601 7.15006C686.904 7.22323 687.234 7.28595 687.589 7.33822C687.955 7.39049 688.321 7.46889 688.687 7.57342C689.052 7.67795 689.387 7.81907 689.69 7.99678C689.993 8.16403 690.239 8.42537 690.427 8.78078C690.615 9.12574 690.709 9.5491 690.709 10.0509V10.6624C690.709 11.4255 690.49 12.0265 690.051 12.4656C689.622 12.8942 689.026 13.1085 688.263 13.1085H686.507C685.744 13.1085 685.143 12.8942 684.704 12.4656C684.265 12.0265 684.045 11.4255 684.045 10.6624ZM702.577 3.29278V12.8419C702.577 13.0196 702.488 13.1085 702.31 13.1085H701.322C701.145 13.1085 701.056 13.0196 701.056 12.8419V3.29278C701.056 3.11507 701.145 3.02622 701.322 3.02622H702.31C702.488 3.02622 702.577 3.11507 702.577 3.29278ZM715.59 11.7757H716.954C717.717 11.7757 718.099 11.3889 718.099 10.6153V5.51934C718.099 4.74579 717.717 4.35902 716.954 4.35902H715.59C714.837 4.35902 714.461 4.74579 714.461 5.51934V10.6153C714.461 11.3889 714.837 11.7757 715.59 11.7757ZM717.189 13.1085H715.371C714.597 13.1085 713.996 12.8942 713.567 12.4656C713.149 12.037 712.94 11.4412 712.94 10.6781V5.45662C712.94 4.68307 713.149 4.08723 713.567 3.6691C713.996 3.24051 714.597 3.02622 715.371 3.02622H717.189C717.963 3.02622 718.564 3.24051 718.993 3.6691C719.421 4.08723 719.636 4.68307 719.636 5.45662V10.6781C719.636 11.4412 719.421 12.037 718.993 12.4656C718.564 12.8942 717.963 13.1085 717.189 13.1085ZM731.141 13.1085H730.169C729.991 13.1085 729.902 13.0196 729.902 12.8419V3.29278C729.902 3.11507 729.991 3.02622 730.169 3.02622H731.047C731.214 3.02622 731.329 3.08371 731.392 3.1987L735.186 10.0195H735.249V3.29278C735.249 3.11507 735.338 3.02622 735.516 3.02622H736.488C736.665 3.02622 736.754 3.11507 736.754 3.29278V12.8419C736.754 13.0196 736.665 13.1085 736.488 13.1085H735.641C735.474 13.1085 735.338 13.0248 735.233 12.8576L731.47 6.11518H731.407V12.8419C731.407 13.0196 731.319 13.1085 731.141 13.1085ZM760.342 13.1085H759.354C759.176 13.1085 759.087 13.0196 759.087 12.8419V3.29278C759.087 3.11507 759.176 3.02622 759.354 3.02622H763.023C763.786 3.02622 764.382 3.24574 764.81 3.68478C765.249 4.11337 765.469 4.70921 765.469 5.4723V6.78942C765.469 7.99155 764.972 8.74942 763.979 9.06302V9.12574L765.72 12.7949C765.835 13.0039 765.767 13.1085 765.516 13.1085H764.544C764.293 13.1085 764.131 13.0196 764.058 12.8419L762.38 9.2355H760.796C760.671 9.2355 760.608 9.28777 760.608 9.3923V12.8419C760.608 13.0196 760.519 13.1085 760.342 13.1085ZM760.781 7.9811H762.772C763.545 7.9811 763.932 7.59955 763.932 6.83646V5.51934C763.932 4.74579 763.545 4.35902 762.772 4.35902H760.781C760.666 4.35902 760.608 4.41129 760.608 4.51582V7.8243C760.608 7.92883 760.666 7.9811 760.781 7.9811ZM779.032 -2.11787e-05H780.271C780.354 -2.11787e-05 780.407 0.0261121 780.428 0.0783787C780.459 0.130645 780.448 0.193365 780.396 0.266538L779.079 1.83454C778.974 1.95998 778.849 2.0227 778.703 2.0227H777.966C777.788 2.0227 777.746 1.93385 777.84 1.75614L778.64 0.250858C778.724 0.0836053 778.854 -2.11787e-05 779.032 -2.11787e-05ZM781.023 13.1085H776.006C775.828 13.1085 775.739 13.0196 775.739 12.8419V3.29278C775.739 3.11507 775.828 3.02622 776.006 3.02622H781.023C781.191 3.02622 781.274 3.11507 781.274 3.29278V4.09246C781.274 4.27017 781.191 4.35902 781.023 4.35902H777.448C777.323 4.35902 777.26 4.41129 777.26 4.51582V7.16574C777.26 7.27027 777.323 7.32254 777.448 7.32254H780.475C780.663 7.32254 780.757 7.41139 780.757 7.5891V8.38878C780.757 8.56649 780.663 8.65534 780.475 8.65534H777.448C777.323 8.65534 777.26 8.70761 777.26 8.81214V11.6032C777.26 11.7182 777.323 11.7757 777.448 11.7757H781.023C781.191 11.7757 781.274 11.8645 781.274 12.0422V12.8419C781.274 13.0196 781.191 13.1085 781.023 13.1085ZM796.711 13.1085H791.693C791.515 13.1085 791.427 13.0196 791.427 12.8419V3.29278C791.427 3.11507 791.515 3.02622 791.693 3.02622H796.711C796.878 3.02622 796.962 3.11507 796.962 3.29278V4.09246C796.962 4.27017 796.878 4.35902 796.711 4.35902H793.136C793.01 4.35902 792.948 4.41129 792.948 4.51582V7.16574C792.948 7.27027 793.01 7.32254 793.136 7.32254H796.162C796.35 7.32254 796.444 7.41139 796.444 7.5891V8.38878C796.444 8.56649 796.35 8.65534 796.162 8.65534H793.136C793.01 8.65534 792.948 8.70761 792.948 8.81214V11.6032C792.948 11.7182 793.01 11.7757 793.136 11.7757H796.711C796.878 11.7757 796.962 11.8645 796.962 12.0422V12.8419C796.962 13.0196 796.878 13.1085 796.711 13.1085ZM812.461 13.1085H807.38C807.203 13.1085 807.114 13.0196 807.114 12.8419V3.29278C807.114 3.11507 807.203 3.02622 807.38 3.02622H808.368C808.546 3.02622 808.635 3.11507 808.635 3.29278V11.5875C808.635 11.692 808.698 11.7443 808.823 11.7443H812.461C812.638 11.7443 812.727 11.8384 812.727 12.0265V12.8419C812.727 13.0196 812.638 13.1085 812.461 13.1085ZM827.673 13.1085H822.593C822.415 13.1085 822.327 13.0196 822.327 12.8419V3.29278C822.327 3.11507 822.415 3.02622 822.593 3.02622H823.581C823.759 3.02622 823.848 3.11507 823.848 3.29278V11.5875C823.848 11.692 823.91 11.7443 824.036 11.7443H827.673C827.851 11.7443 827.94 11.8384 827.94 12.0265V12.8419C827.94 13.0196 827.851 13.1085 827.673 13.1085ZM842.823 13.1085H837.806C837.628 13.1085 837.539 13.0196 837.539 12.8419V3.29278C837.539 3.11507 837.628 3.02622 837.806 3.02622H842.823C842.991 3.02622 843.074 3.11507 843.074 3.29278V4.09246C843.074 4.27017 842.991 4.35902 842.823 4.35902H839.248C839.123 4.35902 839.06 4.41129 839.06 4.51582V7.16574C839.06 7.27027 839.123 7.32254 839.248 7.32254H842.275C842.463 7.32254 842.557 7.41139 842.557 7.5891V8.38878C842.557 8.56649 842.463 8.65534 842.275 8.65534H839.248C839.123 8.65534 839.06 8.70761 839.06 8.81214V11.6032C839.06 11.7182 839.123 11.7757 839.248 11.7757H842.823C842.991 11.7757 843.074 11.8645 843.074 12.0422V12.8419C843.074 13.0196 842.991 13.1085 842.823 13.1085ZM854.434 10.9289V12.8419C854.434 13.0196 854.35 13.1085 854.183 13.1085H853.117C852.939 13.1085 852.85 13.0196 852.85 12.8419V10.9289C852.85 10.7617 852.939 10.6781 853.117 10.6781H854.183C854.35 10.6781 854.434 10.7617 854.434 10.9289Z" fill="white" fill-opacity="0.45"/>
</svg>
