<svg width="60" height="8" viewBox="0 0 60 8" fill="none" xmlns="http://www.w3.org/2000/svg">
<path d="M2.7776 7.20166H1.5904C1.456 7.20166 1.3776 7.13819 1.3552 7.01126L0.0224009 0.19046C0.00746761 0.0635267 0.0709343 6.02041e-05 0.212801 6.02041e-05H1.0752C1.21707 6.02041e-05 1.29173 0.0635267 1.2992 0.19046L2.2064 6.05926H2.2736L3.5952 0.16806C3.61013 0.0560601 3.67733 6.02041e-05 3.7968 6.02041e-05H4.7376C4.85707 6.02041e-05 4.928 0.0560601 4.9504 0.16806L6.2832 6.05926H6.3504L7.2576 0.20166C7.26507 0.0672602 7.33973 6.02041e-05 7.4816 6.02041e-05H8.344C8.49333 6.02041e-05 8.5568 0.0672602 8.5344 0.20166L7.2016 7.01126C7.1792 7.13819 7.10453 7.20166 6.9776 7.20166H5.7904C5.66347 7.20166 5.5888 7.13819 5.5664 7.01126L4.3008 1.34406H4.256L2.9904 7.01126C2.968 7.13819 2.89707 7.20166 2.7776 7.20166ZM13.1909 0.19046V7.01126C13.1909 7.13819 13.1274 7.20166 13.0005 7.20166H12.2949C12.168 7.20166 12.1045 7.13819 12.1045 7.01126V0.19046C12.1045 0.0635267 12.168 6.02041e-05 12.2949 6.02041e-05H13.0005C13.1274 6.02041e-05 13.1909 0.0635267 13.1909 0.19046ZM18.2301 7.20166H17.5357C17.4088 7.20166 17.3453 7.13819 17.3453 7.01126V0.19046C17.3453 0.0635267 17.4088 6.02041e-05 17.5357 6.02041e-05H18.1629C18.2824 6.02041e-05 18.3645 0.0411268 18.4093 0.12326L21.1197 4.99526H21.1645V0.19046C21.1645 0.0635267 21.228 6.02041e-05 21.3549 6.02041e-05H22.0493C22.1762 6.02041e-05 22.2397 0.0635267 22.2397 0.19046V7.01126C22.2397 7.13819 22.1762 7.20166 22.0493 7.20166H21.4445C21.325 7.20166 21.228 7.14193 21.1533 7.02246L18.4653 2.20646H18.4205V7.01126C18.4205 7.13819 18.357 7.20166 18.2301 7.20166ZM27.5486 6.24966H29.1278C29.6654 6.24966 29.9342 5.97339 29.9342 5.42086V1.78086C29.9342 1.22833 29.6654 0.95206 29.1278 0.95206H27.5486C27.4665 0.95206 27.4254 0.989393 27.4254 1.06406V6.12646C27.4254 6.20859 27.4665 6.24966 27.5486 6.24966ZM26.339 7.01126V0.19046C26.339 0.0635267 26.4025 6.02041e-05 26.5294 6.02041e-05H29.2846C29.8297 6.02041e-05 30.2553 0.153127 30.5614 0.45926C30.875 0.757926 31.0318 1.18353 31.0318 1.73606V5.46566C31.0318 6.01073 30.875 6.43633 30.5614 6.74246C30.2553 7.04859 29.8297 7.20166 29.2846 7.20166H26.5294C26.4025 7.20166 26.339 7.13819 26.339 7.01126ZM36.7963 6.24966H37.7707C38.3158 6.24966 38.5883 5.97339 38.5883 5.42086V1.78086C38.5883 1.22833 38.3158 0.95206 37.7707 0.95206H36.7963C36.2587 0.95206 35.9899 1.22833 35.9899 1.78086V5.42086C35.9899 5.97339 36.2587 6.24966 36.7963 6.24966ZM37.9387 7.20166H36.6395C36.087 7.20166 35.6576 7.04859 35.3515 6.74246C35.0528 6.43633 34.9035 6.01073 34.9035 5.46566V1.73606C34.9035 1.18353 35.0528 0.757926 35.3515 0.45926C35.6576 0.153127 36.087 6.02041e-05 36.6395 6.02041e-05H37.9387C38.4912 6.02041e-05 38.9206 0.153127 39.2267 0.45926C39.5328 0.757926 39.6859 1.18353 39.6859 1.73606V5.46566C39.6859 6.01073 39.5328 6.43633 39.2267 6.74246C38.9206 7.04859 38.4912 7.20166 37.9387 7.20166ZM45.832 7.20166H44.6448C44.5104 7.20166 44.432 7.13819 44.4096 7.01126L43.0768 0.19046C43.0618 0.0635267 43.1253 6.02041e-05 43.2672 6.02041e-05H44.1296C44.2714 6.02041e-05 44.3461 0.0635267 44.3536 0.19046L45.2608 6.05926H45.328L46.6496 0.16806C46.6645 0.0560601 46.7317 6.02041e-05 46.8512 6.02041e-05H47.792C47.9114 6.02041e-05 47.9824 0.0560601 48.0048 0.16806L49.3376 6.05926H49.4048L50.312 0.20166C50.3194 0.0672602 50.3941 6.02041e-05 50.536 6.02041e-05H51.3984C51.5477 6.02041e-05 51.6112 0.0672602 51.5888 0.20166L50.256 7.01126C50.2336 7.13819 50.1589 7.20166 50.032 7.20166H48.8448C48.7178 7.20166 48.6432 7.13819 48.6208 7.01126L47.3552 1.34406H47.3104L46.0448 7.01126C46.0224 7.13819 45.9514 7.20166 45.832 7.20166ZM54.9685 5.45446V5.16326C54.9685 5.03633 55.0319 4.97286 55.1589 4.97286H55.8757C56.0026 4.97286 56.0661 5.03633 56.0661 5.16326V5.36486C56.0661 5.67846 56.1333 5.90619 56.2677 6.04806C56.4095 6.18246 56.641 6.24966 56.9621 6.24966H57.7349C58.0559 6.24966 58.2874 6.17873 58.4293 6.03686C58.5711 5.88753 58.6421 5.64859 58.6421 5.32006V5.06246C58.6421 4.82353 58.5487 4.63686 58.3621 4.50246C58.1829 4.36059 57.9589 4.27099 57.6901 4.23366C57.4213 4.18886 57.1263 4.12913 56.8053 4.05446C56.4842 3.97979 56.1893 3.89393 55.9205 3.79686C55.6517 3.69979 55.4239 3.51686 55.2373 3.24806C55.0581 2.97926 54.9685 2.63579 54.9685 2.21766V1.74726C54.9685 1.20219 55.1215 0.776594 55.4277 0.47046C55.7413 0.15686 56.1706 6.02041e-05 56.7157 6.02041e-05H57.9029C58.4554 6.02041e-05 58.8847 0.15686 59.1909 0.47046C59.5045 0.776594 59.6613 1.20219 59.6613 1.74726V1.99366C59.6613 2.12059 59.5978 2.18406 59.4709 2.18406H58.7541C58.6271 2.18406 58.5637 2.12059 58.5637 1.99366V1.84806C58.5637 1.52699 58.4927 1.29926 58.3509 1.16486C58.2165 1.02299 57.9887 0.95206 57.6677 0.95206H56.9621C56.641 0.95206 56.4095 1.02673 56.2677 1.17606C56.1333 1.31793 56.0661 1.56433 56.0661 1.91526V2.26246C56.0661 2.59846 56.3087 2.82619 56.7941 2.94566C57.0106 2.99793 57.2458 3.04273 57.4997 3.08006C57.761 3.11739 58.0223 3.17339 58.2837 3.24806C58.545 3.32273 58.7839 3.42353 59.0005 3.55046C59.217 3.66993 59.3925 3.85659 59.5269 4.11046C59.6613 4.35686 59.7285 4.65926 59.7285 5.01766V5.45446C59.7285 5.99953 59.5717 6.42886 59.2581 6.74246C58.9519 7.04859 58.5263 7.20166 57.9813 7.20166H56.7269C56.1818 7.20166 55.7525 7.04859 55.4389 6.74246C55.1253 6.42886 54.9685 5.99953 54.9685 5.45446Z" fill="white" fill-opacity="0.4"/>
</svg>
